{"glyphs":{"0":{"ha":958,"x_min":61,"x_max":938,"o":"m 608 396 q 634 540 625 489 q 647 618 643 592 q 652 651 651 644 q 653 663 653 658 q 623 735 653 711 q 542 760 593 760 q 443 728 483 760 q 392 632 403 696 q 366 487 375 539 q 353 409 357 435 q 348 376 349 383 q 347 364 347 368 q 376 292 347 315 q 456 268 406 268 q 556 299 515 268 q 608 396 597 331 m 899 439 q 734 99 858 211 q 407 -14 610 -14 q 149 66 236 -14 q 61 308 61 146 q 63 342 61 324 q 68 390 64 360 q 80 467 72 419 q 100 589 88 515 q 265 928 140 815 q 593 1040 390 1040 q 851 960 764 1040 q 938 719 938 879 q 936 686 938 704 q 931 638 935 668 q 919 560 926 608 q 899 439 911 513 z "},"1":{"ha":575,"x_min":72,"x_max":603,"o":"m 256 551 q 181 532 219 532 q 101 567 131 532 q 72 651 72 603 q 144 788 72 725 l 371 979 q 436 1021 404 1007 q 506 1035 468 1035 q 576 1015 550 1035 q 603 944 603 994 q 599 906 603 926 l 463 133 q 403 28 450 65 q 297 -8 356 -8 q 213 21 246 -8 q 179 104 179 50 q 180 118 179 111 q 182 133 181 125 l 256 551 z "},"2":{"ha":957,"x_min":-1,"x_max":961,"o":"m 26 0 q -1 29 -1 0 q -1 37 -1 31 q 5 72 0 43 q 20 160 10 100 q 50 328 31 219 q 167 572 78 488 q 408 656 257 656 l 640 656 q 707 707 707 656 q 656 742 707 742 l 275 742 q 160 853 160 742 q 198 980 160 933 q 324 1026 236 1026 l 688 1026 q 961 774 961 1026 q 938 608 961 682 q 869 481 915 533 q 753 399 822 428 q 592 371 683 371 l 360 371 q 297 328 303 371 l 290 285 l 726 285 q 858 172 858 285 q 814 45 858 90 q 678 0 769 0 l 26 0 z "},"3":{"ha":888,"x_min":-1,"x_max":924,"o":"m 113 0 q -1 108 -1 0 q 38 238 -1 192 q 164 285 78 285 l 476 285 q 542 336 542 285 q 492 371 542 371 l 182 371 q 68 479 68 371 q 107 609 68 563 q 231 656 146 656 l 542 656 q 607 707 607 656 q 557 742 607 742 l 238 742 q 129 849 129 742 q 167 979 129 932 q 286 1026 206 1026 l 707 1026 q 805 1010 764 1026 q 872 967 846 994 q 911 901 899 939 q 924 818 924 863 q 858 609 924 688 q 675 514 792 531 q 795 447 756 500 q 835 313 835 394 q 816 194 835 250 q 760 94 797 138 q 665 26 722 51 q 531 0 608 0 l 113 0 z "},"4":{"ha":919,"x_min":72,"x_max":943,"o":"m 192 371 q 72 474 72 371 q 74 489 72 478 q 82 540 75 500 q 103 663 89 581 q 143 894 117 746 q 165 955 149 929 q 203 999 181 981 q 253 1026 226 1017 q 308 1035 281 1035 q 394 1007 360 1035 q 428 925 428 979 q 427 914 428 921 q 422 881 426 907 q 409 801 418 854 q 383 656 400 749 l 614 656 l 656 894 q 677 955 661 929 q 716 999 693 981 q 766 1026 739 1017 q 821 1035 793 1035 q 908 1007 872 1035 q 943 925 943 979 q 942 910 943 918 q 940 894 942 903 l 807 132 q 783 72 800 99 q 744 28 767 46 q 693 1 721 10 q 638 -8 665 -8 q 554 20 589 -8 q 519 103 519 49 q 520 114 519 107 q 525 147 521 121 q 538 226 529 174 q 564 371 547 278 l 192 371 z "},"5":{"ha":953,"x_min":18,"x_max":975,"o":"m 149 0 q 18 110 18 0 q 62 239 18 193 q 201 285 106 285 l 578 285 q 643 336 643 285 q 593 371 643 371 l 126 371 q 81 417 81 371 q 81 422 81 418 q 84 442 82 426 q 92 492 86 458 q 109 588 99 526 q 136 742 119 649 q 176 969 153 835 q 239 1026 186 1026 l 861 1026 q 975 921 975 1026 q 935 790 975 838 q 810 742 896 742 l 419 742 l 404 656 l 644 656 q 835 592 774 656 q 897 407 897 529 q 802 107 897 214 q 513 0 707 0 l 149 0 z "},"6":{"ha":939,"x_min":42,"x_max":956,"o":"m 386 371 q 332 318 332 371 q 371 285 332 285 l 557 285 q 624 336 624 285 q 572 371 624 371 l 386 371 m 294 0 q 103 57 164 0 q 42 231 42 114 q 42 249 42 239 q 45 277 43 258 q 52 326 47 296 q 65 407 57 357 q 86 529 74 457 q 117 703 99 601 q 496 1026 175 1026 l 840 1026 q 956 921 956 1026 q 914 790 956 839 q 789 742 872 742 l 465 742 q 419 726 439 742 q 394 682 400 711 l 388 646 l 624 646 q 878 403 878 646 q 783 107 878 214 q 492 0 688 0 l 294 0 z "},"7":{"ha":871,"x_min":13,"x_max":947,"o":"m 283 83 q 210 15 243 38 q 131 -8 178 -8 q 42 26 71 -8 q 13 106 13 60 q 20 152 13 121 q 64 225 28 183 l 513 742 l 226 742 q 136 777 167 742 q 106 863 106 813 q 118 924 106 894 q 153 977 131 954 q 206 1013 175 1000 q 276 1026 238 1026 l 835 1026 q 916 999 885 1026 q 947 921 947 972 q 939 872 947 901 q 903 810 931 843 l 283 83 z "},"8":{"ha":906,"x_min":6,"x_max":942,"o":"m 456 742 q 390 690 390 742 q 440 656 390 656 l 560 656 q 625 707 625 656 q 575 742 625 742 l 456 742 m 390 371 q 325 319 325 371 q 375 285 325 285 l 494 285 q 560 336 560 285 q 510 371 560 371 l 390 371 m 221 0 q 123 16 164 0 q 56 60 82 32 q 18 126 31 88 q 6 210 6 164 q 24 331 6 278 q 76 422 43 385 q 156 483 110 460 q 257 514 201 506 q 135 576 178 526 q 93 710 93 625 q 111 829 93 772 q 167 930 129 886 q 264 1000 206 974 q 404 1026 322 1026 l 725 1026 q 823 1010 782 1026 q 890 967 864 994 q 929 901 917 939 q 942 818 942 863 q 876 609 942 688 q 693 514 810 531 q 813 447 772 500 q 853 313 853 393 q 834 194 853 250 q 778 94 815 138 q 683 26 740 51 q 547 0 625 0 l 221 0 z "},"9":{"ha":939,"x_min":33,"x_max":939,"o":"m 422 742 q 357 690 357 742 q 407 656 357 656 l 594 656 q 650 707 650 656 q 610 742 650 742 l 422 742 m 149 0 q 33 106 33 0 q 74 237 33 189 q 200 285 114 285 l 515 285 q 561 300 542 285 q 586 344 581 315 l 593 382 l 358 382 q 103 624 103 382 q 198 919 103 813 q 489 1026 293 1026 l 686 1026 q 939 794 939 1026 q 938 765 939 783 q 928 700 936 747 q 906 564 921 653 q 864 324 890 475 q 485 0 806 0 l 149 0 z "},"\u0017":{"ha":433,"x_min":0,"x_max":0,"o":""}," ":{"ha":433,"x_min":0,"x_max":0,"o":""},"!":{"ha":415,"x_min":18,"x_max":439,"o":"m 138 -8 q 51 28 85 -8 q 18 114 18 64 q 33 176 18 146 q 71 228 47 206 q 125 265 94 251 q 188 278 156 278 q 272 242 240 278 q 304 154 304 206 q 290 92 304 122 q 252 40 275 63 q 199 5 229 18 q 138 -8 168 -8 m 154 894 q 215 999 167 963 q 321 1035 264 1035 q 406 1007 372 1035 q 439 926 439 979 q 438 919 439 924 q 435 901 438 915 q 428 858 433 886 q 415 781 424 831 q 394 658 407 732 q 363 476 381 583 q 303 372 351 410 q 197 333 256 333 q 112 363 146 333 q 78 447 78 393 q 78 454 78 450 q 81 472 79 458 q 88 514 83 486 q 101 590 93 542 q 122 713 110 639 q 154 894 135 788 z "},"\"":{"ha":504,"x_min":94,"x_max":583,"o":"m 390 1000 q 432 1070 399 1044 q 504 1096 465 1096 q 561 1076 539 1096 q 583 1021 583 1057 q 583 1013 583 1018 q 578 985 582 1007 q 567 917 575 963 q 546 790 560 871 q 506 718 538 743 q 433 693 474 693 q 376 713 399 693 q 353 769 353 733 q 353 778 353 772 q 358 806 354 783 q 369 873 361 828 q 390 1000 376 918 m 133 1000 q 174 1070 140 1044 q 246 1096 207 1096 q 303 1076 281 1096 q 326 1021 326 1057 q 326 1013 326 1018 q 322 985 325 1007 q 310 917 318 963 q 289 790 303 871 q 248 718 281 743 q 175 693 215 693 q 117 713 140 693 q 94 769 94 732 q 95 777 94 771 q 100 806 96 783 q 112 873 104 828 q 133 1000 119 918 z "},"#":{"ha":944,"x_min":21,"x_max":965,"o":"m 589 607 l 432 607 l 399 422 l 556 422 l 589 607 m 722 221 l 707 138 q 663 63 697 89 q 588 36 628 36 q 528 57 551 36 q 504 117 504 78 q 504 123 504 119 q 506 137 504 126 q 511 167 508 147 q 521 221 514 188 l 364 221 l 349 138 q 303 63 339 89 q 228 36 268 36 q 169 57 192 36 q 146 117 146 78 q 146 122 146 118 q 148 137 146 126 q 153 167 150 147 q 163 221 156 188 l 106 221 q 42 245 64 221 q 21 304 21 269 q 30 348 21 326 q 55 386 39 369 q 92 413 71 403 q 140 422 114 422 l 197 422 l 231 607 l 174 607 q 110 632 132 607 q 89 692 89 657 q 98 735 89 714 q 122 772 107 756 q 160 799 138 789 q 208 808 182 808 l 265 808 l 281 892 q 323 965 289 939 q 397 992 357 992 q 458 971 433 992 q 483 911 483 950 q 483 905 483 908 q 481 891 483 901 q 476 861 479 881 q 467 808 472 842 l 624 808 l 639 892 q 682 965 647 939 q 757 992 717 992 q 817 971 793 992 q 842 911 842 950 q 842 905 842 908 q 840 891 842 901 q 834 861 838 881 q 825 808 831 842 l 879 808 q 944 783 922 808 q 965 722 965 757 q 956 679 965 700 q 931 642 947 658 q 893 617 915 626 q 844 607 871 607 l 790 607 l 757 422 l 811 422 q 875 397 854 422 q 896 336 896 371 q 887 293 896 314 q 863 256 878 272 q 825 231 847 240 q 776 221 803 221 l 722 221 z "},"$":{"ha":940,"x_min":18,"x_max":914,"o":"m 463 742 l 417 742 q 351 690 351 742 q 401 656 351 656 l 447 656 l 463 742 m 567 285 q 632 336 632 285 q 582 371 632 371 l 535 371 l 519 285 l 567 285 m 469 0 q 434 -73 458 -53 q 385 -93 410 -93 q 344 -80 361 -93 q 326 -37 326 -67 q 327 -28 326 -35 q 332 0 328 -21 l 133 0 q 18 106 18 0 q 59 237 18 189 q 185 285 100 285 l 382 285 l 397 371 l 349 371 q 159 435 222 371 q 96 622 96 500 q 121 793 96 718 q 197 920 146 868 q 326 999 247 972 q 513 1026 404 1026 q 547 1099 522 1079 q 599 1119 571 1119 q 638 1106 621 1119 q 656 1064 656 1092 q 655 1054 656 1061 q 650 1026 654 1047 l 797 1026 q 884 1001 854 1026 q 914 928 914 976 q 872 790 914 839 q 746 742 831 742 l 600 742 l 585 656 l 633 656 q 824 592 761 656 q 886 406 886 528 q 863 235 886 310 q 788 108 839 160 q 658 28 738 56 q 469 0 579 0 z "},"%":{"ha":1200,"x_min":92,"x_max":1153,"o":"m 92 0 m 392 678 q 405 756 400 728 q 412 797 410 783 q 415 814 414 810 q 415 819 415 818 q 400 855 415 843 q 360 867 385 867 q 315 851 333 867 q 290 806 296 836 q 277 728 282 756 q 270 686 272 700 q 267 668 268 672 q 267 663 267 664 q 280 628 267 639 q 317 617 293 617 q 366 632 346 617 q 392 678 386 647 m 565 701 q 472 510 543 574 q 288 447 401 447 q 142 492 192 447 q 92 626 92 536 q 92 645 92 635 q 96 672 93 656 q 103 715 99 689 q 115 782 107 742 q 392 1035 164 1035 q 586 854 586 1035 q 585 836 586 846 q 583 810 585 826 q 576 767 581 793 q 565 701 572 742 m 860 983 q 905 1023 881 1011 q 954 1035 929 1035 q 1017 1010 990 1035 q 1043 949 1043 985 q 1036 916 1043 931 q 1017 883 1029 901 l 383 43 q 338 4 364 17 q 289 -8 313 -8 q 226 19 250 -8 q 203 81 203 46 q 226 144 203 113 l 860 983 m 958 222 q 972 300 967 272 q 978 341 976 328 q 981 358 981 354 q 982 364 982 363 q 967 399 982 388 q 926 411 951 411 q 881 396 900 411 q 857 350 863 381 q 844 272 849 300 q 837 231 839 244 q 834 213 835 217 q 833 207 833 208 q 847 172 833 183 q 883 161 860 161 q 933 176 913 161 q 958 222 953 192 m 1132 246 q 1039 55 1110 118 q 854 -8 968 -8 q 708 36 758 -8 q 658 171 658 81 q 659 190 658 179 q 663 217 660 200 q 669 260 665 233 q 682 326 674 286 q 958 579 731 579 q 1153 399 1153 579 q 1152 381 1153 390 q 1149 354 1151 371 q 1143 312 1147 338 q 1132 246 1139 286 z "},"&":{"ha":1004,"x_min":6,"x_max":1029,"o":"m 558 371 l 389 371 q 324 319 324 371 q 374 285 324 285 l 543 285 l 558 371 m 219 0 q 122 15 163 0 q 56 58 82 31 q 18 124 31 86 q 6 208 6 163 q 24 330 6 276 q 75 421 42 383 q 154 482 108 458 q 256 514 200 506 q 135 576 176 526 q 93 710 93 625 q 111 829 93 772 q 167 930 129 886 q 264 1000 206 974 q 404 1026 322 1026 l 533 1026 q 642 918 642 1026 q 601 788 642 835 q 482 742 561 742 l 454 742 q 389 690 389 742 q 439 656 389 656 l 608 656 l 613 678 q 674 783 625 747 q 781 819 722 819 q 865 791 831 819 q 899 708 899 763 q 897 691 899 701 q 892 656 896 681 l 915 656 q 1029 547 1029 656 q 989 418 1029 465 q 864 371 949 371 l 842 371 l 801 142 q 777 77 794 104 q 735 33 760 50 q 681 8 710 17 q 621 0 651 0 l 219 0 z "},"'":{"ha":247,"x_min":94,"x_max":326,"o":"m 133 1000 q 174 1070 140 1044 q 246 1096 207 1096 q 303 1076 281 1096 q 326 1021 326 1057 q 326 1013 326 1018 q 322 985 325 1007 q 310 917 318 963 q 289 790 303 871 q 248 718 281 743 q 175 693 215 693 q 117 713 140 693 q 94 769 94 732 q 95 777 94 771 q 100 806 96 783 q 112 873 104 828 q 133 1000 119 918 z "},"(":{"ha":539,"x_min":114,"x_max":679,"o":"m 310 -299 q 256 -290 272 -299 q 226 -261 240 -281 q 176 -165 197 -222 q 141 -41 154 -108 q 121 100 128 26 q 114 249 114 174 q 139 541 114 392 q 213 829 164 690 q 333 1089 261 968 q 500 1297 406 1210 q 540 1326 521 1317 q 597 1336 560 1336 q 658 1315 636 1336 q 679 1254 679 1294 q 670 1208 679 1226 q 646 1169 661 1189 q 519 982 575 1083 q 423 770 463 881 q 362 544 383 660 q 340 313 340 428 q 345 194 340 256 q 359 75 350 133 q 383 -37 368 17 q 417 -132 397 -90 q 424 -156 422 -143 q 426 -179 426 -168 q 394 -267 426 -236 q 310 -299 363 -299 z "},")":{"ha":539,"x_min":-96,"x_max":468,"o":"m 82 -261 q 42 -290 61 -281 q -15 -299 22 -299 q -74 -278 -53 -299 q -96 -218 -96 -258 q -87 -171 -96 -190 q -62 -132 -78 -151 q 63 53 7 -47 q 159 264 119 154 q 220 490 199 374 q 242 722 242 606 q 238 841 242 779 q 224 962 233 903 q 200 1074 214 1021 q 167 1169 186 1128 q 159 1193 161 1181 q 157 1217 157 1206 q 188 1304 157 1272 q 272 1336 219 1336 q 326 1326 310 1336 q 357 1297 342 1317 q 407 1201 386 1257 q 441 1077 428 1144 q 461 935 454 1010 q 468 786 468 861 q 443 492 468 640 q 369 205 418 343 q 247 -53 319 67 q 82 -261 175 -174 z "},"*":{"ha":718,"x_min":54,"x_max":767,"o":"m 472 543 l 453 432 q 351 339 436 339 q 279 404 279 339 q 280 413 279 407 q 283 432 281 418 q 289 472 285 446 q 301 543 293 497 l 178 483 q 153 472 165 476 q 131 468 142 468 q 74 488 94 468 q 54 539 54 507 q 119 631 54 600 l 244 688 l 140 747 q 101 807 101 769 q 133 881 101 851 q 204 910 164 910 q 228 906 218 910 q 250 896 239 903 l 353 835 l 372 949 q 474 1035 386 1035 q 544 972 544 1035 q 544 965 544 969 q 542 947 544 960 q 536 907 540 933 q 524 835 532 881 l 647 896 q 672 906 660 903 q 696 910 683 910 q 744 890 722 910 q 767 835 767 871 q 707 747 767 775 l 576 688 l 686 631 q 713 604 706 621 q 719 568 719 588 q 710 526 719 544 q 685 494 700 507 q 651 475 669 482 q 618 468 633 468 q 575 482 599 468 l 472 543 z "},"+":{"ha":881,"x_min":86,"x_max":836,"o":"m 544 414 l 514 242 q 470 167 506 193 q 394 140 435 140 q 335 161 358 140 q 311 221 311 182 q 312 228 311 224 q 315 252 313 233 q 324 309 318 271 q 343 414 331 347 l 171 414 q 108 439 129 414 q 86 497 86 464 q 95 541 86 519 q 119 579 104 563 q 157 606 135 596 q 206 615 179 615 l 378 615 l 408 788 q 451 861 417 835 q 526 888 486 888 q 587 867 563 888 q 611 807 611 846 q 610 799 611 804 q 607 776 610 794 q 598 719 604 757 q 579 615 592 682 l 751 615 q 815 590 793 615 q 836 529 836 564 q 827 486 836 507 q 803 449 818 465 q 765 424 788 433 q 717 414 743 414 l 544 414 z "},",":{"ha":335,"x_min":-60,"x_max":264,"o":"m 146 278 q 190 270 168 278 q 228 248 211 263 q 254 211 244 233 q 264 158 264 189 q 260 126 264 142 q 245 83 257 110 q 211 13 233 57 q 151 -104 189 -32 q 102 -166 132 -143 q 29 -189 72 -189 q -36 -167 -12 -189 q -60 -104 -60 -144 q -59 -95 -60 -101 q -54 -67 -58 -89 q -42 -1 -50 -44 q -21 122 -35 43 q 39 235 -8 193 q 146 278 86 278 z "},"-":{"ha":581,"x_min":47,"x_max":575,"o":"m 132 414 q 69 439 90 414 q 47 497 47 464 q 56 541 47 519 q 81 579 65 563 q 119 606 97 596 q 167 615 140 615 l 492 615 q 554 590 533 615 q 575 529 575 564 q 542 449 575 485 q 457 414 510 414 l 132 414 z "},".":{"ha":338,"x_min":-21,"x_max":265,"o":"m 99 -8 q 13 28 46 -8 q -21 114 -21 64 q -6 176 -21 146 q 32 228 8 206 q 86 265 56 251 q 149 278 117 278 q 233 242 201 278 q 265 154 265 206 q 251 92 265 122 q 214 40 238 63 q 160 5 190 18 q 99 -8 131 -8 z "},"/":{"ha":481,"x_min":-71,"x_max":588,"o":"m 390 1014 q 435 1069 407 1051 q 494 1088 463 1088 q 560 1064 533 1088 q 588 1004 588 1040 q 584 978 588 990 q 575 956 581 967 l 126 -22 q 79 -79 108 -62 q 18 -96 50 -96 q -44 -74 -18 -96 q -71 -15 -71 -51 q -67 11 -71 -1 q -56 38 -62 24 l 390 1014 z "},":":{"ha":338,"x_min":10,"x_max":361,"o":"m 10 160 m 194 531 q 108 567 142 531 q 75 653 75 603 q 90 715 75 685 q 128 767 104 744 q 182 803 151 790 q 244 817 213 817 q 329 781 297 817 q 361 693 361 744 q 347 631 361 661 q 310 579 333 601 q 256 544 286 557 q 194 531 226 531 m 129 160 q 43 196 76 160 q 10 282 10 232 q 24 344 10 314 q 63 397 39 374 q 117 433 86 419 q 179 446 147 446 q 264 410 232 446 q 296 322 296 374 q 282 260 296 290 q 244 208 268 231 q 191 173 221 186 q 129 160 161 160 z "},";":{"ha":338,"x_min":-28,"x_max":361,"o":"m 0 0 m 194 531 q 108 567 142 531 q 75 653 75 603 q 90 715 75 685 q 128 767 104 744 q 182 803 151 790 q 244 817 213 817 q 329 781 297 817 q 361 693 361 744 q 347 631 361 661 q 310 579 333 601 q 256 544 286 557 q 194 531 226 531 m 178 446 q 222 438 200 446 q 260 416 243 431 q 286 379 276 401 q 296 326 296 357 q 292 294 296 310 q 277 251 289 278 q 243 181 265 225 q 183 64 221 136 q 134 2 164 25 q 61 -21 104 -21 q -4 1 19 -21 q -28 64 -28 24 q -27 73 -28 67 q -22 101 -26 79 q -10 167 -18 124 q 11 290 -3 211 q 71 403 24 361 q 178 446 118 446 z "},"<":{"ha":881,"x_min":86,"x_max":896,"o":"m 122 425 q 94 457 103 438 q 86 497 86 476 q 103 553 86 526 q 151 600 119 581 l 757 940 q 811 956 783 956 q 872 929 849 956 q 896 865 896 903 q 882 814 896 840 q 832 768 868 788 l 378 511 l 742 257 q 769 224 761 243 q 776 186 776 206 q 766 142 776 163 q 739 105 756 121 q 700 79 722 89 q 654 69 678 69 q 606 85 628 69 l 122 425 z "},"=":{"ha":881,"x_min":57,"x_max":865,"o":"m 142 249 q 78 273 100 249 q 57 332 57 297 q 66 376 57 354 q 91 414 75 397 q 128 440 107 431 q 176 450 150 450 l 722 450 q 785 424 764 450 q 807 364 807 399 q 798 321 807 342 q 774 284 789 300 q 736 258 758 268 q 688 249 714 249 l 142 249 m 200 579 q 137 604 158 579 q 115 663 115 629 q 124 706 115 685 q 149 744 133 728 q 187 771 165 761 q 235 781 208 781 l 781 781 q 844 755 822 781 q 865 694 865 729 q 856 651 865 672 q 832 615 847 631 q 794 589 817 599 q 746 579 772 579 l 200 579 z "},">":{"ha":881,"x_min":26,"x_max":836,"o":"m 165 85 q 111 69 139 69 q 50 96 74 69 q 26 158 26 122 q 41 210 26 183 q 92 257 56 236 l 544 513 l 182 768 q 154 801 163 782 q 146 839 146 819 q 156 882 146 861 q 183 919 167 903 q 222 946 200 936 q 267 956 243 956 q 292 952 279 956 q 317 940 306 949 l 801 600 q 828 568 819 588 q 836 528 836 549 q 820 471 836 497 q 771 425 804 444 l 165 85 z "},"?":{"ha":861,"x_min":97,"x_max":899,"o":"m 383 371 q 256 482 256 371 q 299 610 256 565 q 431 656 342 656 l 578 656 q 644 707 644 656 q 593 742 644 742 l 222 742 q 129 769 161 742 q 97 856 97 797 q 139 981 97 936 q 271 1026 181 1026 l 628 1026 q 899 775 899 1026 q 803 478 899 585 q 514 371 708 371 l 383 371 m 303 -8 q 217 28 250 -8 q 183 114 183 64 q 198 176 183 146 q 236 228 213 206 q 290 265 260 251 q 353 278 321 278 q 438 241 404 278 q 471 154 471 204 q 456 92 471 122 q 417 40 442 63 q 363 5 393 18 q 303 -8 333 -8 z "},"@":{"ha":1135,"x_min":44,"x_max":1086,"o":"m 632 417 l 599 417 q 526 394 549 417 q 503 319 503 371 q 515 276 503 290 q 549 261 528 261 q 590 274 571 261 q 614 315 608 288 l 632 417 m 764 494 q 759 458 764 483 q 749 403 754 432 q 738 346 743 374 q 733 303 733 318 q 782 261 733 261 q 815 268 799 261 q 847 298 832 275 q 870 364 861 321 q 879 478 879 407 q 869 553 879 518 q 836 614 860 588 q 772 655 813 640 q 671 669 732 669 q 496 640 572 669 q 366 556 419 610 q 285 426 313 501 q 257 263 257 351 q 317 84 257 146 q 468 10 376 22 q 504 3 486 7 q 536 -8 522 0 q 558 -32 550 -17 q 567 -72 567 -47 q 404 -207 567 -207 q 267 -176 332 -207 q 152 -89 201 -146 q 74 50 103 -32 q 44 235 44 132 q 90 485 44 368 q 220 691 135 603 q 428 831 306 779 q 703 882 550 882 q 863 860 792 882 q 983 796 933 839 q 1060 687 1033 753 q 1086 532 1086 621 q 1060 340 1086 418 q 990 215 1033 263 q 891 146 947 167 q 775 125 835 125 q 720 131 743 125 q 682 144 697 136 q 657 161 667 151 q 642 179 647 171 q 586 143 622 160 q 510 126 550 126 q 451 140 476 126 q 408 178 425 154 q 382 235 390 203 q 374 303 374 267 q 391 406 374 358 q 442 489 408 454 q 526 543 476 524 q 639 563 575 563 l 681 563 q 746 543 728 563 q 764 494 764 524 z "},"A":{"ha":990,"x_min":-35,"x_max":932,"o":"m 631 139 l 269 139 q 218 66 242 94 q 174 21 194 38 q 135 -2 154 4 q 96 -8 115 -8 q 3 24 42 -8 q -35 108 -35 56 q -28 151 -35 133 q -14 183 -22 168 l 206 532 q 272 603 235 579 q 347 626 308 626 q 438 592 400 626 q 476 506 476 558 q 469 468 476 492 q 432 396 461 444 l 569 396 l 463 843 q 460 860 460 850 q 460 878 460 871 q 476 942 460 913 q 517 992 492 971 q 574 1024 542 1013 q 638 1035 606 1035 q 706 1013 678 1035 q 746 943 735 992 l 929 183 q 932 165 932 175 q 932 147 932 156 q 916 84 932 113 q 874 35 900 56 q 816 3 849 14 q 751 -8 783 -8 q 644 85 668 -8 l 631 139 z "},"B":{"ha":921,"x_min":-1,"x_max":954,"o":"m 113 0 q -1 108 -1 0 q 38 238 -1 192 q 165 285 78 285 l 510 285 q 575 336 575 285 q 525 371 575 371 l 199 371 q 83 479 83 371 q 122 609 83 563 q 246 656 161 656 l 575 656 q 640 707 640 656 q 590 742 640 742 l 246 742 q 136 850 136 742 q 174 979 136 932 q 293 1026 213 1026 l 736 1026 q 835 1010 793 1026 q 903 967 876 994 q 942 901 929 939 q 954 818 954 863 q 890 612 954 693 q 708 514 826 531 q 828 447 788 500 q 868 313 868 393 q 849 193 868 250 q 793 94 831 136 q 698 26 756 51 q 563 0 640 0 l 113 0 z "},"C":{"ha":853,"x_min":58,"x_max":907,"o":"m 546 0 q 333 33 424 0 q 181 124 242 65 q 89 263 119 182 q 58 443 58 344 q 133 712 58 589 q 338 919 208 835 q 510 998 414 969 q 735 1026 607 1026 l 774 1026 q 876 990 844 1026 q 907 906 907 954 q 895 844 907 874 q 860 790 883 814 q 803 753 838 767 q 724 739 769 739 l 683 739 q 567 729 610 739 q 492 701 524 719 q 391 613 431 668 q 351 481 351 558 q 362 405 351 440 q 401 342 372 369 q 477 300 429 315 q 600 285 525 285 l 639 285 q 744 249 713 285 q 776 165 776 214 q 765 103 776 133 q 731 51 754 74 q 672 14 707 28 q 589 0 636 0 l 546 0 z "},"D":{"ha":1032,"x_min":19,"x_max":1017,"o":"m 425 285 q 547 306 492 285 q 640 363 601 326 q 701 447 679 399 q 722 549 722 494 q 708 622 722 588 q 667 683 694 657 q 600 724 640 710 q 506 739 560 739 l 410 739 l 329 285 l 425 285 m 144 0 q 51 30 83 0 q 19 111 19 60 q 20 119 19 114 q 24 148 21 125 q 36 219 28 171 q 59 351 44 267 q 97 566 74 436 q 153 885 119 696 q 174 937 157 911 q 216 982 192 963 q 269 1014 240 1001 q 325 1026 297 1026 l 535 1026 q 743 992 653 1026 q 894 900 833 958 q 986 763 956 842 q 1017 593 1017 683 q 968 365 1017 472 q 832 176 919 257 q 623 47 744 94 q 356 0 501 0 l 144 0 z "},"E":{"ha":964,"x_min":18,"x_max":1001,"o":"m 138 0 q 18 101 18 0 q 22 142 18 121 l 153 885 q 318 1026 178 1026 l 882 1026 q 971 992 940 1026 q 1001 908 1001 957 q 989 846 1001 876 q 954 792 976 815 q 901 756 932 769 q 832 742 869 742 l 408 742 l 392 646 l 824 646 q 900 619 872 646 q 928 542 928 593 q 885 423 928 467 q 776 379 843 379 l 344 379 l 328 285 l 754 285 q 844 249 813 285 q 875 165 875 214 q 863 102 875 132 q 827 49 850 72 q 773 13 804 26 q 704 0 742 0 l 138 0 z "},"F":{"ha":919,"x_min":17,"x_max":975,"o":"m 343 371 l 300 132 q 240 28 288 64 q 136 -8 193 -8 q 51 20 85 -8 q 17 103 17 49 q 17 117 17 110 q 19 132 18 125 l 153 885 q 318 1026 178 1026 l 854 1026 q 944 992 913 1026 q 975 907 975 957 q 963 845 975 875 q 927 792 950 815 q 873 756 904 769 q 804 742 842 742 l 408 742 l 393 656 l 789 656 q 878 621 847 656 q 910 536 910 586 q 897 474 910 504 q 862 422 885 444 q 808 385 839 399 q 739 371 776 371 l 343 371 z "},"G":{"ha":1117,"x_min":57,"x_max":1124,"o":"m 503 0 q 319 40 401 6 q 178 132 236 75 q 88 267 119 189 q 57 438 57 344 q 106 664 57 557 q 240 851 154 771 q 446 979 326 932 q 706 1026 565 1026 l 942 1026 q 1030 990 1000 1026 q 1060 904 1060 954 q 1047 842 1060 872 q 1013 790 1035 813 q 959 753 990 767 q 890 739 928 739 l 600 739 q 503 717 549 739 q 424 660 458 696 q 370 577 390 624 q 350 481 350 531 q 365 401 350 438 q 406 340 379 365 q 470 299 433 314 q 551 285 507 285 l 615 285 l 764 546 l 1014 546 q 1124 447 1124 546 q 1085 327 1124 369 q 968 285 1047 285 l 881 285 l 733 0 l 503 0 z "},"H":{"ha":929,"x_min":17,"x_max":953,"o":"m 344 371 l 303 132 q 281 72 297 99 q 242 28 265 46 q 192 1 219 10 q 136 -8 165 -8 q 51 20 85 -8 q 17 103 17 49 q 17 117 17 110 q 19 132 18 125 l 154 894 q 214 999 167 964 q 319 1035 261 1035 q 405 1007 369 1035 q 440 925 440 979 q 440 914 440 921 q 435 881 439 907 q 422 801 431 854 q 396 656 413 749 l 626 656 l 668 894 q 690 955 674 929 q 728 999 706 981 q 778 1026 751 1017 q 833 1035 806 1035 q 919 1007 885 1035 q 953 925 953 979 q 952 910 953 918 q 950 894 951 903 l 815 132 q 756 28 803 64 q 650 -8 708 -8 q 565 20 600 -8 q 531 103 531 49 q 531 114 531 107 q 536 147 532 121 q 549 226 540 174 q 575 371 558 278 l 344 371 z "},"J":{"ha":757,"x_min":-33,"x_max":781,"o":"m 86 0 q -3 35 28 0 q -33 119 -33 71 q -21 181 -33 151 q 15 234 -8 211 q 68 271 38 257 q 136 285 99 285 l 164 285 q 353 347 290 285 q 435 525 415 410 l 499 894 q 520 955 504 929 q 558 999 536 981 q 608 1026 581 1017 q 664 1035 635 1035 q 747 1007 714 1035 q 781 926 781 979 q 780 911 781 919 q 778 894 779 903 l 711 511 q 640 302 690 396 q 515 141 590 208 q 342 37 440 74 q 129 0 244 0 l 86 0 z "},"K":{"ha":868,"x_min":17,"x_max":931,"o":"m 344 371 l 301 132 q 242 28 289 64 q 138 -8 194 -8 q 51 20 85 -8 q 17 103 17 49 q 17 117 17 110 q 19 132 18 125 l 154 894 q 215 999 167 964 q 321 1035 263 1035 q 404 1007 369 1035 q 439 925 439 979 q 438 914 439 921 q 433 881 438 907 q 420 801 429 854 q 394 656 411 749 l 664 958 q 740 1020 706 1006 q 807 1035 774 1035 q 901 999 871 1035 q 931 918 931 963 q 918 860 931 889 q 865 792 906 832 l 592 518 l 775 236 q 801 151 801 193 q 788 92 801 121 q 749 42 774 64 q 694 6 725 19 q 631 -8 664 -8 q 570 6 599 -8 q 522 57 542 21 l 344 371 z "},"L":{"ha":647,"x_min":18,"x_max":592,"o":"m 138 0 q 18 101 18 0 q 22 142 18 121 l 154 894 q 176 955 160 929 q 214 999 192 981 q 263 1026 236 1017 q 319 1035 290 1035 q 403 1007 368 1035 q 438 925 438 979 q 437 910 438 918 q 435 894 436 903 l 328 285 l 479 285 q 565 251 538 285 q 592 168 592 217 q 581 106 592 136 q 549 51 569 75 q 497 14 528 28 q 429 0 467 0 l 138 0 z "},"M":{"ha":1258,"x_min":-28,"x_max":1282,"o":"m 881 742 l 774 132 q 713 28 761 64 q 608 -8 664 -8 q 522 20 557 -8 q 488 101 488 49 q 488 109 488 104 q 492 133 489 114 q 501 192 494 153 q 520 302 508 232 q 551 479 532 372 q 597 742 569 586 l 544 742 l 249 96 q 181 15 221 38 q 101 -8 142 -8 q 10 24 49 -8 q -28 107 -28 56 q -23 138 -28 124 q -11 169 -18 153 l 318 890 q 397 992 349 957 q 496 1026 444 1026 l 1160 1026 q 1282 924 1282 1026 q 1278 885 1282 906 l 1144 132 q 1084 28 1132 64 q 979 -8 1036 -8 q 893 20 928 -8 q 858 101 858 49 q 859 109 858 104 q 863 133 860 114 q 872 192 865 153 q 891 302 879 232 q 922 479 903 372 q 968 742 940 586 l 881 742 z "},"N":{"ha":929,"x_min":17,"x_max":953,"o":"m 356 435 l 301 132 q 242 28 289 64 q 136 -8 194 -8 q 51 20 85 -8 q 17 103 17 49 q 17 111 17 106 q 22 140 18 117 q 35 213 26 164 q 58 348 43 261 q 97 568 74 435 q 154 894 119 701 q 214 999 167 964 q 319 1035 261 1035 q 390 1016 367 1035 q 428 963 413 997 l 610 572 l 667 894 q 689 955 672 929 q 728 999 706 981 q 778 1026 751 1017 q 833 1035 806 1035 q 919 1007 885 1035 q 953 925 953 979 q 952 917 953 922 q 947 888 951 911 q 935 815 943 864 q 911 679 926 767 q 872 458 896 592 q 815 132 849 325 q 756 28 803 64 q 650 -8 708 -8 q 567 14 593 -8 q 528 67 542 36 l 356 435 z "},"O":{"ha":1139,"x_min":57,"x_max":1124,"o":"m 833 544 q 819 625 833 588 q 778 690 804 663 q 715 735 751 718 q 633 751 678 751 q 528 729 579 751 q 437 669 476 707 q 374 581 397 631 q 350 475 350 531 q 365 395 350 432 q 405 331 379 358 q 467 287 431 303 q 549 271 504 271 q 654 292 603 271 q 745 351 706 314 q 809 439 785 389 q 833 544 833 489 m 1124 589 q 1071 357 1124 467 q 931 165 1018 247 q 730 35 843 83 q 496 -14 617 -14 q 319 22 400 -14 q 181 118 239 57 q 90 261 122 179 q 57 438 57 343 q 110 669 57 560 q 249 860 163 778 q 449 992 336 943 q 682 1040 561 1040 q 860 1005 779 1040 q 1000 908 942 969 q 1091 765 1058 847 q 1124 589 1124 683 z "},"P":{"ha":914,"x_min":18,"x_max":951,"o":"m 346 371 l 304 138 q 136 -8 276 -8 q 46 17 74 -8 q 18 93 18 42 q 19 101 18 96 q 21 120 19 107 q 26 158 22 133 q 38 224 31 182 q 56 328 46 265 q 83 482 67 392 q 144 613 99 569 q 274 656 190 656 l 631 656 q 697 707 697 656 q 646 742 697 742 l 265 742 q 150 853 150 742 q 186 979 150 932 q 314 1026 222 1026 l 681 1026 q 951 775 951 1026 q 856 478 951 585 q 567 371 761 371 l 346 371 z "},"Q":{"ha":1139,"x_min":57,"x_max":1124,"o":"m 575 269 q 522 340 542 313 q 491 386 501 368 q 478 415 481 404 q 475 439 475 426 q 487 504 475 474 q 522 558 499 535 q 577 596 544 582 q 651 610 610 610 q 678 606 665 610 q 710 589 692 603 q 756 547 729 575 q 824 472 783 519 q 835 514 832 496 q 839 551 839 532 q 824 629 839 593 q 783 693 810 665 q 717 737 756 721 q 628 753 678 753 q 508 728 561 753 q 418 663 456 703 q 361 572 381 622 q 342 469 342 521 q 355 390 342 428 q 393 326 368 353 q 454 283 418 299 q 536 267 490 267 q 558 267 547 267 q 575 269 568 268 m 758 54 q 630 5 696 24 q 490 -14 564 -14 q 316 21 396 -14 q 178 117 236 56 q 89 260 121 178 q 57 436 57 342 q 109 668 57 558 q 248 860 161 778 q 448 992 335 943 q 682 1040 561 1040 q 860 1005 779 1040 q 1000 909 942 969 q 1091 766 1058 849 q 1124 590 1124 683 q 1090 413 1124 490 q 1001 258 1056 335 q 1031 203 1022 229 q 1039 156 1039 178 q 1024 97 1039 126 q 985 45 1010 68 q 929 8 961 22 q 864 -7 897 -7 q 815 6 839 -7 q 758 54 790 18 z "},"R":{"ha":897,"x_min":71,"x_max":935,"o":"m 125 358 q 86 416 101 385 q 71 488 71 447 q 118 608 71 561 q 258 656 165 656 l 615 656 q 681 707 681 656 q 631 742 681 742 l 249 742 q 163 769 193 742 q 133 854 133 797 q 172 980 133 933 q 297 1026 210 1026 l 665 1026 q 935 774 935 1026 q 903 575 935 650 q 819 460 871 500 q 701 406 767 419 q 571 392 636 392 l 515 392 l 638 254 q 667 210 657 232 q 676 161 676 188 q 664 96 676 126 q 629 42 651 65 q 577 6 607 19 q 513 -8 547 -8 q 400 43 451 -8 l 125 358 z "},"S":{"ha":926,"x_min":11,"x_max":907,"o":"m 126 0 q 11 106 11 0 q 52 237 11 189 q 178 285 93 285 l 558 285 q 625 336 625 285 q 574 371 625 371 l 342 371 q 151 435 214 371 q 89 621 89 499 q 185 919 89 813 q 479 1026 282 1026 l 792 1026 q 907 921 907 1026 q 865 790 907 838 q 739 742 824 742 l 408 742 q 343 690 343 742 q 393 656 343 656 l 626 656 q 817 591 754 656 q 879 404 879 526 q 785 107 879 214 q 493 0 690 0 l 126 0 z "},"T":{"ha":793,"x_min":99,"x_max":869,"o":"m 219 742 q 129 778 160 742 q 99 863 99 814 q 111 924 99 894 q 147 977 124 954 q 201 1013 169 1000 q 269 1026 232 1026 l 749 1026 q 838 992 807 1026 q 869 907 869 957 q 857 845 869 875 q 822 792 844 815 q 767 756 799 769 q 699 742 736 742 l 600 742 l 493 133 q 432 29 481 65 q 328 -7 383 -7 q 242 22 276 -7 q 208 103 208 50 q 209 110 208 106 q 213 135 210 115 q 222 194 215 154 q 241 303 229 233 q 272 480 253 374 q 318 742 290 586 l 219 742 z "},"U":{"ha":917,"x_min":53,"x_max":947,"o":"m 661 894 q 683 955 667 929 q 722 999 699 981 q 772 1026 744 1017 q 826 1035 799 1035 q 913 1007 878 1035 q 947 925 947 979 q 947 918 947 922 q 944 899 946 914 q 936 853 942 883 q 922 770 931 824 q 899 636 913 717 q 864 439 885 556 q 388 -14 785 -14 q 53 300 53 -14 q 53 323 53 310 q 58 360 54 336 q 67 424 61 385 q 83 525 72 463 q 109 678 93 588 q 147 894 125 768 q 208 999 160 963 q 314 1035 257 1035 q 399 1007 365 1035 q 433 925 433 979 q 433 917 433 922 q 429 897 432 913 q 422 848 426 881 q 406 758 417 815 q 381 612 396 700 q 343 396 365 524 q 339 357 339 375 q 436 268 339 268 q 574 396 551 268 l 661 894 z "},"V":{"ha":940,"x_min":100,"x_max":1017,"o":"m 104 843 q 101 860 101 850 q 100 878 100 871 q 116 942 100 913 q 157 992 132 971 q 213 1024 182 1013 q 274 1035 244 1035 q 347 1011 317 1035 q 386 943 376 988 l 483 474 l 746 943 q 810 1013 774 992 q 889 1035 847 1035 q 938 1026 914 1035 q 978 1002 961 1018 q 1006 965 996 986 q 1017 917 1017 943 q 1011 878 1017 899 q 996 843 1006 858 l 554 88 q 404 -8 499 -8 q 365 -4 385 -8 q 329 11 346 0 q 299 41 313 22 q 279 88 285 60 l 104 843 z "},"W":{"ha":1258,"x_min":110,"x_max":1283,"o":"m 315 0 q 228 35 264 0 q 185 136 192 69 l 111 857 q 110 869 110 863 q 110 882 110 876 q 125 944 110 915 q 165 992 140 972 q 222 1024 190 1013 q 285 1035 253 1035 q 357 1012 325 1035 q 396 931 389 989 l 464 285 l 518 285 l 625 894 q 647 954 631 928 q 685 999 663 981 q 735 1026 708 1017 q 792 1035 763 1035 q 876 1006 842 1035 q 911 925 911 978 q 910 910 911 918 q 908 894 910 903 l 801 285 l 889 285 l 996 894 q 1017 954 1001 928 q 1056 999 1033 981 q 1106 1026 1079 1017 q 1163 1035 1133 1035 q 1249 1006 1214 1035 q 1283 922 1283 976 q 1283 908 1283 915 q 1281 894 1282 901 l 1147 142 q 979 0 1122 0 l 315 0 z "},"X":{"ha":808,"x_min":-24,"x_max":878,"o":"m 382 264 l 247 83 q 174 11 207 31 q 103 -8 142 -8 q 47 3 71 -8 q 7 31 22 14 q -16 69 -8 47 q -24 111 -24 90 q -11 162 -24 135 q 31 225 1 189 l 267 511 l 129 803 q 114 846 118 825 q 110 883 110 867 q 122 935 110 908 q 158 984 135 963 q 213 1020 181 1006 q 285 1035 244 1035 q 349 1016 324 1035 q 396 944 374 997 l 471 771 l 606 944 q 679 1016 646 997 q 750 1035 713 1035 q 806 1024 782 1035 q 845 997 829 1014 q 869 958 861 979 q 878 915 878 936 q 864 864 878 890 q 822 803 850 838 l 582 511 l 719 225 q 735 181 731 201 q 739 143 739 160 q 726 92 739 118 q 691 43 714 65 q 635 6 668 21 q 564 -8 603 -8 q 500 11 526 -8 q 453 83 474 31 l 382 264 z "},"Y":{"ha":814,"x_min":97,"x_max":893,"o":"m 276 446 q 201 612 232 543 q 151 727 171 681 q 121 801 132 774 q 104 843 110 828 q 98 865 99 858 q 97 875 97 871 q 113 940 97 911 q 152 990 128 969 q 208 1023 176 1011 q 271 1035 239 1035 q 376 963 346 1035 l 468 739 l 636 963 q 768 1035 690 1035 q 862 998 831 1035 q 893 915 893 961 q 856 819 893 865 l 558 446 l 503 132 q 442 28 490 64 q 338 -8 394 -8 q 251 20 285 -8 q 218 103 218 49 q 219 117 218 110 q 221 132 219 124 l 276 446 z "},"Z":{"ha":890,"x_min":-18,"x_max":949,"o":"m 117 0 q 18 28 54 0 q -18 107 -18 56 q 2 183 -18 150 q 63 257 22 217 l 529 742 l 239 742 q 149 777 179 742 q 119 861 119 813 q 131 924 119 894 q 165 977 143 954 q 219 1013 188 1000 q 289 1026 250 1026 l 836 1026 q 917 999 885 1026 q 949 915 949 972 q 945 877 949 893 q 935 848 942 861 q 918 822 928 835 q 894 796 908 810 l 425 285 l 699 285 q 788 249 757 285 q 818 165 818 214 q 806 102 818 132 q 770 49 793 72 q 716 13 747 26 q 647 0 685 0 l 117 0 z "},"[":{"ha":583,"x_min":3,"x_max":718,"o":"m 3 -285 l 285 1313 l 628 1313 q 718 1231 718 1313 q 685 1135 718 1168 q 590 1103 653 1103 l 458 1103 l 250 -76 l 382 -76 q 474 -157 474 -76 q 441 -252 474 -219 q 346 -285 408 -285 l 3 -285 z "},"\\":{"ha":481,"x_min":104,"x_max":413,"o":"m 108 919 q 105 961 106 951 q 104 976 104 971 q 116 1022 104 1001 q 146 1056 128 1042 q 186 1079 164 1071 q 231 1088 208 1088 q 284 1069 263 1088 q 310 1014 306 1051 l 411 38 q 413 25 413 32 q 413 13 413 18 q 402 -31 413 -11 q 374 -66 392 -51 q 335 -88 357 -81 q 290 -96 313 -96 q 235 -79 258 -96 q 208 -22 213 -62 l 108 919 z "},"]":{"ha":582,"x_min":-93,"x_max":622,"o":"m -3 -285 q -93 -204 -93 -285 q -62 -109 -93 -142 q 33 -76 -32 -76 l 165 -76 l 374 1103 l 242 1103 q 151 1183 151 1103 q 183 1279 151 1246 q 279 1313 214 1313 l 622 1313 l 340 -285 l -3 -285 z "},"^":{"ha":789,"x_min":53,"x_max":778,"o":"m 454 738 l 232 463 q 187 425 211 436 q 139 414 163 414 q 77 440 101 414 q 53 501 53 465 q 58 533 53 517 q 78 568 63 550 l 410 979 q 455 1015 429 1004 q 507 1026 481 1026 q 552 1015 531 1026 q 585 979 574 1004 l 771 568 q 776 549 775 558 q 778 529 778 539 q 767 485 778 506 q 739 448 757 464 q 699 423 721 432 q 653 414 676 414 q 611 424 631 414 q 579 463 592 435 l 454 738 z "},"_":{"ha":739,"x_min":-156,"x_max":704,"o":"m -67 -257 q -156 -176 -156 -257 q -126 -81 -156 -115 q -31 -47 -97 -47 l 617 -47 q 704 -128 704 -47 q 674 -224 704 -190 q 581 -257 643 -257 l -67 -257 z "},"`":{"ha":454,"x_min":179,"x_max":556,"o":"m 214 1188 q 188 1215 196 1199 q 179 1250 179 1232 q 190 1298 179 1276 q 217 1335 200 1319 q 253 1358 233 1350 q 294 1367 274 1367 q 346 1347 322 1367 l 528 1196 q 556 1136 556 1172 q 547 1101 556 1118 q 525 1072 539 1085 q 493 1051 511 1058 q 457 1043 475 1043 q 413 1057 435 1043 l 214 1188 z "},"I":{"ha":415,"x_min":17,"x_max":439,"o":"m 154 894 q 215 999 167 964 q 321 1035 263 1035 q 404 1007 369 1035 q 439 925 439 979 q 438 910 439 918 q 436 894 438 903 l 301 132 q 242 28 289 64 q 138 -8 194 -8 q 51 20 85 -8 q 17 103 17 49 q 17 117 17 110 q 19 132 18 125 l 154 894 z "},"{":{"ha":717,"x_min":19,"x_max":839,"o":"m 386 4 q 385 -6 385 -1 q 385 -15 385 -11 q 393 -47 385 -35 q 414 -65 401 -58 q 441 -73 426 -71 q 469 -75 456 -75 q 560 -94 528 -78 q 592 -160 592 -110 q 585 -217 592 -193 q 562 -256 579 -240 q 515 -278 544 -271 q 438 -285 485 -285 q 240 -229 308 -285 q 172 -65 172 -174 q 174 -32 172 -49 q 179 4 176 -15 q 205 148 196 94 q 218 232 214 201 q 224 276 222 263 q 225 297 225 289 q 217 351 225 332 q 193 382 208 371 q 157 397 178 393 q 110 404 136 401 q 40 437 61 411 q 19 499 19 463 q 31 563 19 539 q 63 601 43 588 q 106 622 82 615 q 154 631 131 628 q 194 638 175 633 q 231 654 214 642 q 265 691 249 667 q 296 758 281 715 q 327 866 311 801 q 360 1025 343 931 q 478 1239 385 1165 q 718 1313 571 1313 q 810 1295 782 1313 q 839 1236 839 1278 q 798 1131 839 1157 q 678 1101 757 1104 q 648 1099 665 1101 q 614 1090 631 1097 q 584 1067 597 1082 q 567 1025 571 1051 q 527 822 546 904 q 484 684 508 740 q 425 590 460 628 q 339 517 390 551 q 412 424 392 471 q 432 317 432 376 q 431 283 432 301 q 424 230 429 264 q 410 142 419 196 q 386 4 401 89 z "},"|":{"ha":428,"x_min":19,"x_max":444,"o":"m 231 1085 q 271 1165 240 1138 q 356 1193 301 1193 q 444 1114 444 1193 q 443 1103 444 1111 q 436 1060 442 1096 q 417 951 431 1025 q 381 744 404 878 q 322 406 358 611 q 233 -97 286 200 q 110 -203 215 -203 q 19 -128 19 -203 q 20 -117 19 -125 q 27 -74 21 -110 q 46 35 33 -39 q 82 242 58 108 q 142 581 106 376 q 231 1085 178 786 z "},"}":{"ha":717,"x_min":-81,"x_max":742,"o":"m 399 4 q 280 -211 374 -137 q 39 -285 186 -285 q -53 -268 -25 -285 q -81 -208 -81 -251 q -71 -143 -81 -168 q -41 -103 -61 -118 q 10 -83 -21 -89 q 81 -75 40 -76 q 113 -72 96 -75 q 147 -61 131 -69 q 175 -37 163 -53 q 192 4 188 -22 l 222 175 q 244 283 232 235 q 278 371 257 331 q 333 447 299 411 q 419 517 367 482 q 347 609 367 561 q 326 717 326 657 q 331 784 326 749 q 343 860 336 819 q 360 959 354 924 q 369 1013 367 994 q 373 1035 372 1031 q 374 1042 374 1039 q 365 1074 374 1063 q 342 1091 356 1085 q 314 1099 329 1097 q 288 1101 299 1101 q 197 1121 229 1104 q 165 1188 165 1138 q 172 1243 165 1219 q 197 1282 179 1267 q 244 1305 214 1297 q 321 1313 274 1313 q 517 1257 449 1313 q 586 1093 586 1201 q 585 1074 586 1085 q 579 1035 583 1063 q 567 960 575 1008 q 544 829 558 911 q 535 738 535 776 q 550 674 535 694 q 588 644 565 653 q 638 632 611 635 q 688 622 665 629 q 726 599 711 615 q 742 544 742 582 q 735 497 742 519 q 714 455 729 474 q 673 422 699 436 q 610 404 647 408 q 549 394 576 400 q 501 369 522 388 q 463 312 479 350 q 435 207 447 274 l 399 4 z "},"~":{"ha":893,"x_min":78,"x_max":856,"o":"m 856 564 q 835 490 856 524 q 780 431 815 456 q 697 391 744 406 q 597 376 650 376 q 505 393 549 376 q 421 433 461 410 q 369 458 393 449 q 317 468 346 468 q 274 455 290 468 q 229 415 257 442 q 192 391 214 401 q 139 381 169 381 q 95 399 113 381 q 78 449 78 417 q 98 523 78 489 q 153 582 118 557 q 235 622 189 607 q 336 636 282 636 q 428 619 383 636 q 513 579 472 603 q 563 553 539 564 q 617 543 586 543 q 660 557 643 543 q 704 597 676 571 q 742 622 719 611 q 794 632 764 632 q 838 614 821 632 q 856 564 856 596 z "},"¡":{"ha":415,"x_min":-7,"x_max":414,"o":"m 294 896 q 381 860 347 896 q 414 774 414 824 q 399 712 414 742 q 361 659 385 682 q 307 623 338 636 q 244 610 276 610 q 160 646 192 610 q 128 733 128 682 q 142 795 128 765 q 180 847 157 825 q 233 883 203 869 q 294 896 263 896 m 278 -7 q 255 -68 271 -42 q 217 -112 239 -94 q 167 -138 194 -129 q 111 -147 140 -147 q 26 -119 60 -147 q -7 -39 -7 -92 q -6 -32 -7 -36 q -3 -13 -6 -28 q 3 29 -1 1 q 15 106 7 57 q 37 230 24 156 q 69 411 50 304 q 128 516 81 478 q 235 554 176 554 q 320 524 286 554 q 354 439 354 493 q 353 433 354 438 q 351 415 353 429 q 344 374 349 401 q 331 297 339 346 q 309 174 322 249 q 278 -7 296 100 z "},"¢":{"ha":856,"x_min":58,"x_max":907,"o":"m 610 285 q 688 275 656 285 q 740 249 719 265 q 768 210 760 232 q 776 164 776 189 q 765 103 776 132 q 728 51 754 74 q 661 14 703 28 q 558 0 619 0 q 524 -73 549 -53 q 474 -93 500 -93 q 435 -79 451 -93 q 418 -28 418 -65 q 422 10 418 -11 q 265 65 333 25 q 151 161 197 104 q 82 290 106 218 q 58 440 58 361 q 94 637 58 542 q 199 810 131 732 q 369 942 268 888 q 600 1018 471 997 q 636 1099 611 1078 q 688 1119 661 1119 q 726 1106 710 1119 q 743 1056 743 1092 q 742 1042 743 1049 q 740 1026 742 1035 q 818 1017 786 1026 q 870 990 850 1007 q 899 951 890 974 q 907 904 907 929 q 896 844 907 874 q 859 791 885 814 q 792 753 833 768 q 689 739 750 739 l 610 285 m 547 724 q 478 695 514 715 q 415 644 443 675 q 369 574 388 614 q 351 483 351 533 q 382 372 351 422 q 474 300 413 321 l 547 724 z "},"£":{"ha":944,"x_min":-12,"x_max":949,"o":"m 108 0 q 19 35 50 0 q -12 119 -12 71 q 0 181 -12 151 q 35 234 13 211 q 90 271 58 257 q 158 285 121 285 l 181 414 q 98 439 122 414 q 74 497 74 464 q 83 541 74 519 q 110 579 92 563 q 157 606 129 596 q 222 615 185 615 q 306 787 253 710 q 430 919 358 864 q 591 1005 501 975 q 786 1035 681 1035 l 828 1035 q 917 1000 886 1035 q 949 915 949 965 q 936 853 949 883 q 901 801 924 824 q 847 764 878 778 q 778 750 815 750 l 750 750 q 600 716 653 750 q 514 615 547 682 l 832 615 q 894 590 874 615 q 915 529 915 564 q 907 486 915 507 q 883 449 899 465 q 844 424 867 433 q 796 414 822 414 l 464 414 l 442 285 l 732 285 q 822 249 792 285 q 853 165 853 214 q 840 103 853 133 q 806 51 828 74 q 751 14 783 28 q 682 0 719 0 l 108 0 z "},"¤":{"ha":881,"x_min":14,"x_max":906,"o":"m 628 532 q 617 588 628 561 q 588 634 607 614 q 543 665 569 654 q 486 676 517 676 q 411 661 447 676 q 347 619 375 646 q 303 558 319 593 q 286 485 286 524 q 326 383 286 425 q 428 342 365 342 q 501 357 465 342 q 565 399 538 372 q 610 460 593 425 q 628 532 628 494 m 397 183 q 322 192 357 183 q 257 217 288 201 l 176 149 q 99 117 139 117 q 38 143 63 117 q 14 206 14 169 q 24 247 14 226 q 58 290 33 268 l 140 361 q 131 406 133 381 q 129 456 129 432 q 147 563 129 514 q 196 658 164 611 l 136 731 q 117 786 117 754 q 128 831 117 810 q 156 869 139 853 q 196 894 174 885 q 240 903 218 903 q 274 896 257 903 q 304 874 292 889 l 365 799 q 513 831 433 831 q 588 822 553 831 q 653 797 624 813 l 743 874 q 817 903 778 903 q 881 876 857 903 q 906 814 906 850 q 861 731 906 767 l 772 656 q 783 608 779 635 q 788 557 788 582 q 770 456 788 503 q 722 363 753 408 l 783 290 q 799 263 794 278 q 803 233 803 249 q 792 192 803 213 q 765 154 782 171 q 726 127 749 138 q 682 117 704 117 q 615 149 642 117 l 557 219 q 397 183 481 183 z "},"¥":{"ha":872,"x_min":65,"x_max":924,"o":"m 565 318 l 532 132 q 472 28 519 64 q 367 -8 424 -8 q 281 20 314 -8 q 247 103 247 49 q 248 112 247 106 q 252 140 249 118 q 263 203 256 161 q 283 318 271 244 l 150 318 q 87 342 108 318 q 65 401 65 367 q 74 445 65 424 q 99 483 83 467 q 137 510 115 500 q 185 519 158 519 l 272 519 l 138 819 q 129 847 132 832 q 126 875 126 863 q 142 940 126 911 q 181 990 157 969 q 237 1023 206 1011 q 301 1035 268 1035 q 407 963 376 1035 l 497 739 l 667 963 q 799 1035 721 1035 q 892 998 861 1035 q 924 915 924 961 q 885 819 924 867 l 646 519 l 731 519 q 794 494 774 519 q 815 433 815 468 q 806 390 815 411 q 782 353 797 369 q 744 328 767 338 q 696 318 722 318 l 565 318 z "},"¨":{"ha":581,"x_min":168,"x_max":696,"o":"m 254 1090 q 192 1117 217 1090 q 168 1181 168 1143 q 178 1224 168 1203 q 206 1263 189 1246 q 246 1289 224 1279 q 292 1299 268 1299 q 353 1272 329 1299 q 378 1208 378 1244 q 367 1163 378 1185 q 340 1126 357 1142 q 300 1100 322 1110 q 254 1090 278 1090 m 572 1090 q 510 1117 533 1090 q 486 1179 486 1143 q 497 1224 486 1203 q 524 1263 507 1246 q 564 1289 542 1279 q 610 1299 586 1299 q 672 1272 649 1299 q 696 1208 696 1244 q 685 1163 696 1185 q 658 1126 675 1142 q 618 1100 640 1110 q 572 1090 596 1090 z "},"©":{"ha":1139,"x_min":57,"x_max":1124,"o":"m 572 283 q 485 299 524 283 q 420 343 447 315 q 378 408 393 371 q 364 489 364 446 q 386 594 364 544 q 449 682 408 644 q 546 742 490 719 q 668 764 601 764 l 706 764 q 747 747 733 764 q 761 707 761 731 q 739 653 761 676 q 682 629 717 629 l 619 629 q 574 619 596 629 q 536 592 553 608 q 510 553 519 575 q 500 508 500 532 q 527 443 500 468 q 596 418 554 418 l 644 418 q 686 401 672 418 q 700 360 700 383 q 678 306 700 328 q 621 283 657 283 l 572 283 m 521 114 q 697 150 613 114 q 848 248 782 186 q 953 392 914 310 q 992 567 992 475 q 967 700 992 638 q 899 808 943 763 q 795 881 856 854 q 661 908 735 908 q 485 871 569 908 q 336 771 401 833 q 232 626 271 708 q 193 451 193 543 q 217 319 193 381 q 284 212 240 257 q 388 140 328 167 q 521 114 447 114 m 1124 589 q 1071 357 1124 467 q 931 165 1018 247 q 730 35 843 83 q 496 -14 617 -14 q 319 22 400 -14 q 181 118 239 57 q 90 261 122 179 q 57 438 57 343 q 110 669 57 560 q 249 860 163 778 q 449 992 336 943 q 682 1040 561 1040 q 860 1005 779 1040 q 1000 908 942 969 q 1091 765 1058 847 q 1124 589 1124 683 z "},"ª":{"ha":549,"x_min":22,"x_max":553,"o":"m 225 586 q 181 528 201 542 q 140 515 160 515 q 94 531 114 515 q 75 574 75 547 q 81 599 75 586 q 100 635 86 613 l 307 983 q 378 1028 335 1028 q 422 1012 404 1028 q 440 967 440 996 q 438 944 440 950 q 432 933 435 939 l 300 713 l 371 713 q 365 737 367 728 q 364 751 364 746 q 392 808 364 786 q 451 829 419 829 q 506 782 493 829 l 551 613 q 553 603 553 608 q 553 594 553 597 q 525 537 553 558 q 465 515 497 515 q 430 529 446 515 q 406 586 414 543 l 225 586 m 88 290 q 39 309 56 290 q 22 356 22 328 q 49 419 22 390 q 115 447 75 447 l 453 447 q 501 427 485 447 q 518 381 518 407 q 492 317 518 344 q 425 290 465 290 l 88 290 z "},"«":{"ha":714,"x_min":6,"x_max":757,"o":"m 6 0 m 10 390 q 6 422 6 404 q 12 460 6 446 q 26 488 18 474 l 235 825 q 283 872 256 858 q 336 886 310 886 q 401 862 375 886 q 428 803 428 838 q 420 768 428 782 q 403 739 413 754 l 218 439 l 297 139 q 301 119 300 131 q 303 97 303 108 q 292 57 303 76 q 264 23 282 38 q 224 0 246 8 q 179 -8 201 -8 q 130 6 153 -8 q 99 53 107 19 l 10 390 m 339 390 q 335 422 335 404 q 341 460 335 446 q 356 488 347 474 l 564 825 q 612 872 585 858 q 665 886 639 886 q 731 862 704 886 q 757 803 757 838 q 749 768 757 782 q 732 739 742 754 l 547 439 l 626 139 q 631 119 629 131 q 632 97 632 108 q 622 57 632 76 q 593 23 611 38 q 553 0 575 8 q 508 -8 531 -8 q 459 6 482 -8 q 428 53 436 19 l 339 390 z "},"®":{"ha":689,"x_min":81,"x_max":724,"o":"m 644 753 q 630 833 644 796 q 589 899 615 871 q 526 944 563 928 q 444 961 489 961 q 339 938 390 961 q 249 877 288 915 q 186 789 210 839 q 163 685 163 739 q 176 606 163 643 q 217 541 190 568 q 279 498 243 514 q 360 482 315 482 q 465 503 414 482 q 556 563 517 525 q 620 649 596 600 q 644 753 644 699 m 724 768 q 692 628 724 694 q 607 513 660 563 q 485 435 554 464 q 344 406 417 406 q 238 426 286 406 q 155 484 190 447 q 100 570 119 521 q 81 676 81 619 q 113 816 81 750 q 197 932 144 882 q 317 1011 249 982 q 457 1040 385 1040 q 564 1019 515 1040 q 648 960 613 997 q 703 874 683 924 q 724 768 724 825 m 361 683 l 349 611 q 294 563 340 563 q 257 596 257 563 q 257 601 257 597 q 259 617 257 604 q 265 653 261 629 q 276 719 269 676 q 339 776 286 776 l 454 776 q 478 794 478 776 q 460 806 478 806 l 338 806 q 299 840 299 806 q 311 882 299 867 q 353 897 324 897 l 472 897 q 560 818 560 897 q 539 740 560 765 q 479 700 518 715 q 505 660 496 675 q 518 635 514 644 q 524 622 522 626 q 525 615 525 618 q 506 578 525 594 q 468 563 488 563 q 457 565 463 563 q 442 580 451 568 q 418 616 433 592 q 378 683 403 640 l 361 683 z "},"¯":{"ha":699,"x_min":171,"x_max":817,"o":"m 249 1122 q 191 1145 211 1122 q 171 1200 171 1168 q 179 1240 171 1221 q 202 1275 188 1260 q 237 1299 217 1290 q 282 1308 257 1308 l 739 1308 q 797 1285 778 1308 q 817 1229 817 1261 q 785 1155 817 1188 q 706 1122 754 1122 l 249 1122 z "},"°":{"ha":522,"x_min":96,"x_max":571,"o":"m 456 819 q 426 893 456 863 q 353 924 397 924 q 299 913 325 924 q 254 883 274 901 q 222 839 235 864 q 210 786 210 814 q 238 712 210 742 q 311 682 267 682 q 365 693 339 682 q 410 723 390 704 q 443 767 431 742 q 456 819 456 792 m 290 568 q 210 583 246 568 q 149 625 175 599 q 110 688 124 651 q 96 767 96 724 q 118 871 96 822 q 178 956 140 919 q 267 1014 217 993 q 372 1035 317 1035 q 453 1020 417 1035 q 516 979 490 1006 q 556 917 542 953 q 571 838 571 881 q 548 733 571 782 q 486 647 525 683 q 397 590 447 611 q 290 568 346 568 z "},"²":{"ha":568,"x_min":63,"x_max":601,"o":"m 63 456 m 86 456 q 63 479 63 456 q 63 484 63 481 q 66 503 64 488 q 74 551 68 518 q 90 642 79 583 q 294 821 121 821 l 419 821 q 446 847 446 821 q 428 864 446 864 l 222 864 q 150 926 150 864 q 175 1000 150 974 q 249 1026 200 1026 l 446 1026 q 601 885 601 1026 q 551 721 601 778 q 393 664 501 664 l 267 664 q 240 642 244 664 l 238 622 l 467 622 q 546 556 546 622 q 519 481 546 507 q 439 456 492 456 l 86 456 z "},"³":{"ha":529,"x_min":64,"x_max":582,"o":"m 64 456 m 132 456 q 64 518 64 456 q 89 593 64 567 q 163 619 114 619 l 331 619 q 358 646 358 619 q 339 664 358 664 l 172 664 q 101 726 101 664 q 125 796 101 771 q 199 821 149 821 l 367 821 q 394 846 394 821 q 374 864 394 864 l 201 864 q 136 925 136 864 q 158 999 136 972 q 229 1026 181 1026 l 458 1026 q 553 993 524 1026 q 582 907 582 960 q 553 802 582 844 q 474 743 524 760 q 518 699 503 729 q 533 632 533 669 q 523 565 533 597 q 491 509 513 533 q 437 470 469 485 q 360 456 404 456 l 132 456 z "},"´":{"ha":454,"x_min":156,"x_max":582,"o":"m 274 1057 q 224 1043 247 1043 q 175 1065 194 1043 q 156 1115 156 1088 q 170 1160 156 1139 q 208 1196 185 1181 l 443 1347 q 500 1367 474 1367 q 558 1344 533 1367 q 582 1281 582 1321 q 521 1188 582 1219 l 274 1057 z "},"·":{"ha":338,"x_min":47,"x_max":333,"o":"m 47 374 m 167 374 q 81 410 114 374 q 47 496 47 446 q 62 558 47 528 q 100 610 76 588 q 154 647 124 633 q 217 660 185 660 q 301 624 269 660 q 333 536 333 588 q 319 474 333 504 q 282 422 306 444 q 228 387 258 400 q 167 374 199 374 z "},"¸":{"ha":293,"x_min":-82,"x_max":178,"o":"m 69 -253 q -14 -299 29 -299 q -64 -279 -46 -299 q -82 -232 -82 -260 q -77 -204 -82 -217 q -64 -176 -72 -192 l -6 -78 q 38 -32 11 -49 q 92 -15 64 -15 q 121 -21 106 -15 q 149 -37 136 -26 q 169 -62 161 -47 q 178 -96 178 -76 q 171 -128 178 -111 q 143 -169 164 -146 l 69 -253 z "},"¹":{"ha":358,"x_min":103,"x_max":406,"o":"m 103 451 m 199 750 q 183 746 192 747 q 168 744 175 744 q 120 765 138 744 q 103 815 103 786 q 113 858 103 836 q 143 896 124 881 l 268 1000 q 346 1032 307 1032 q 390 1019 374 1032 q 406 976 406 1007 q 406 966 406 971 q 404 954 406 961 l 331 536 q 295 474 324 496 q 232 451 267 451 q 181 469 201 451 q 160 518 160 486 q 160 525 160 519 q 165 553 161 531 q 176 621 168 575 q 199 750 183 667 z "},"º":{"ha":600,"x_min":47,"x_max":643,"o":"m 493 786 q 465 861 493 831 q 390 892 436 892 q 335 881 361 892 q 288 850 308 869 q 256 805 268 831 q 243 750 243 779 q 272 676 243 706 q 346 646 301 646 q 401 657 375 646 q 448 687 428 668 q 481 731 468 706 q 493 786 493 757 m 319 497 q 227 515 269 497 q 154 565 185 533 q 107 639 124 596 q 90 731 90 682 q 117 851 90 794 q 190 949 144 907 q 295 1017 236 992 q 417 1042 354 1042 q 508 1024 467 1042 q 579 974 549 1006 q 626 901 610 943 q 643 808 643 858 q 616 689 643 746 q 544 590 589 632 q 440 522 499 547 q 319 497 382 497 m 113 290 q 64 310 81 290 q 47 356 47 329 q 73 419 47 390 q 140 447 99 447 l 478 447 q 526 427 510 447 q 543 379 543 407 q 517 318 543 346 q 450 290 490 290 l 113 290 z "},"»":{"ha":714,"x_min":-28,"x_max":724,"o":"m 0 0 m 165 53 q 117 6 144 19 q 64 -8 90 -8 q -1 16 25 -8 q -28 75 -28 40 q -19 110 -28 94 q -3 139 -11 125 l 182 439 l 103 739 q 98 757 100 747 q 96 778 96 767 q 107 819 96 800 q 135 853 118 839 q 175 877 153 868 q 221 886 197 886 q 269 872 247 886 q 301 825 292 858 l 390 488 q 394 454 394 471 q 390 426 394 443 q 374 390 386 410 l 165 53 m 494 53 q 447 6 474 19 q 393 -8 419 -8 q 328 16 354 -8 q 301 75 301 40 q 310 110 301 94 q 326 139 318 125 l 511 439 l 432 739 q 427 757 429 747 q 425 778 425 767 q 436 819 425 800 q 465 853 447 839 q 504 877 482 868 q 550 886 526 886 q 599 872 576 886 q 631 825 621 858 l 719 488 q 724 454 724 471 q 719 426 724 443 q 703 390 715 410 l 494 53 z "},"¼":{"ha":1110,"x_min":72,"x_max":1083,"o":"m 72 0 m 215 750 q 200 746 208 747 q 185 744 192 744 q 137 765 154 744 q 119 815 119 786 q 130 858 119 836 q 160 896 140 881 l 285 1000 q 363 1032 324 1032 q 406 1019 390 1032 q 422 976 422 1007 q 422 966 422 971 q 421 954 422 961 l 347 536 q 312 474 340 496 q 249 451 283 451 q 197 469 218 451 q 176 518 176 486 q 177 525 176 519 q 181 553 178 531 q 192 621 185 575 q 215 750 200 667 m 729 983 q 774 1023 750 1011 q 824 1035 799 1035 q 886 1010 860 1035 q 913 949 913 985 q 906 916 913 931 q 886 883 899 901 l 253 43 q 208 4 233 17 q 158 -8 182 -8 q 96 19 119 -8 q 72 81 72 46 q 96 144 72 113 l 729 983 m 667 201 q 594 263 594 201 q 595 272 594 265 q 600 300 596 278 q 612 367 604 322 q 633 492 619 413 q 670 556 640 535 q 733 576 700 576 q 784 560 764 576 q 804 510 804 543 q 803 503 804 507 q 801 486 803 500 q 794 446 799 472 q 782 372 790 419 l 890 372 l 911 492 q 947 556 918 535 q 1010 576 976 576 q 1062 560 1040 576 q 1083 510 1083 543 q 1083 505 1083 508 q 1081 488 1083 501 q 1074 449 1079 475 q 1061 375 1069 422 q 1040 256 1053 328 q 1010 79 1028 183 q 972 17 1003 39 q 907 -4 942 -4 q 858 13 878 -4 q 838 61 838 29 q 838 67 838 63 q 841 85 839 71 q 848 126 843 99 q 861 201 853 153 l 667 201 z "},"½":{"ha":1122,"x_min":71,"x_max":1081,"o":"m 71 0 m 215 750 q 200 746 208 747 q 185 744 192 744 q 137 765 154 744 q 119 815 119 786 q 130 858 119 836 q 160 896 140 881 l 285 1000 q 363 1032 324 1032 q 406 1019 390 1032 q 422 976 422 1007 q 422 966 422 971 q 421 954 422 961 l 347 536 q 312 474 340 496 q 249 451 283 451 q 197 469 218 451 q 176 518 176 486 q 177 525 176 519 q 181 553 178 531 q 192 621 185 575 q 215 750 200 667 m 728 983 q 773 1023 749 1011 q 822 1035 797 1035 q 885 1010 858 1035 q 911 949 911 985 q 904 916 911 931 q 885 883 897 901 l 251 43 q 206 4 232 17 q 157 -8 181 -8 q 94 19 118 -8 q 71 81 71 46 q 94 144 71 113 l 728 983 m 565 0 q 542 24 542 0 q 542 28 542 25 q 545 47 543 32 q 553 95 547 63 q 569 186 558 128 q 774 365 600 365 l 899 365 q 925 392 925 365 q 907 408 925 408 l 701 408 q 629 471 629 408 q 654 544 629 518 q 728 571 679 571 l 925 571 q 1081 429 1081 571 q 1031 265 1081 322 q 872 208 981 208 l 746 208 q 719 186 724 208 l 717 167 l 946 167 q 1025 100 1025 167 q 998 26 1025 51 q 918 0 971 0 l 565 0 z "},"¾":{"ha":1257,"x_min":68,"x_max":1231,"o":"m 68 0 m 136 456 q 68 518 68 456 q 93 593 68 567 q 167 619 118 619 l 335 619 q 363 646 363 619 q 343 664 363 664 l 176 664 q 106 726 106 664 q 129 796 106 771 q 203 821 153 821 l 371 821 q 399 846 399 821 q 378 864 399 864 l 206 864 q 140 925 140 864 q 163 999 140 972 q 233 1026 185 1026 l 463 1026 q 557 993 528 1026 q 586 907 586 960 q 557 802 586 844 q 478 743 528 760 q 522 699 507 729 q 538 632 538 669 q 527 565 538 597 q 495 509 517 533 q 441 470 474 485 q 364 456 408 456 l 136 456 m 876 983 q 922 1023 897 1011 q 971 1035 946 1035 q 1033 1010 1007 1035 q 1060 949 1060 985 q 1053 916 1060 931 q 1033 883 1046 901 l 400 43 q 355 4 381 17 q 306 -8 329 -8 q 243 19 267 -8 q 219 81 219 46 q 243 144 219 113 l 876 983 m 814 201 q 742 263 742 201 q 742 272 742 265 q 747 300 743 278 q 759 367 751 322 q 781 492 767 413 q 817 556 788 535 q 881 576 847 576 q 931 560 911 576 q 951 510 951 543 q 951 503 951 507 q 948 486 950 500 q 942 446 946 472 q 929 372 938 419 l 1038 372 l 1058 492 q 1094 556 1065 535 q 1157 576 1124 576 q 1209 560 1188 576 q 1231 510 1231 543 q 1231 505 1231 508 q 1228 488 1231 501 q 1222 449 1226 475 q 1208 375 1217 422 q 1188 256 1200 328 q 1157 79 1175 183 q 1119 17 1150 39 q 1054 -4 1089 -4 q 1005 13 1025 -4 q 985 61 985 29 q 985 67 985 63 q 988 85 986 71 q 995 126 990 99 q 1008 201 1000 153 l 814 201 z "},"¿":{"ha":861,"x_min":-32,"x_max":769,"o":"m 483 508 q 611 397 611 508 q 569 269 611 314 q 436 224 526 224 l 289 224 q 222 172 222 224 q 274 138 222 138 l 644 138 q 738 110 706 138 q 769 24 769 82 q 728 -102 769 -57 q 596 -147 686 -147 l 239 -147 q -32 104 -32 -147 q -8 274 -32 199 q 63 401 15 349 q 183 481 111 453 q 353 508 256 508 l 483 508 m 564 888 q 650 851 617 888 q 683 765 683 815 q 669 703 683 733 q 631 651 654 674 q 576 615 607 628 q 514 601 546 601 q 430 638 463 601 q 397 725 397 675 q 412 787 397 757 q 450 839 426 817 q 503 874 474 861 q 564 888 533 888 z "},"À":{"ha":990,"x_min":-35,"x_max":932,"o":"m 0 0 m 631 139 l 269 139 q 218 66 242 94 q 174 21 194 38 q 135 -2 154 4 q 96 -8 115 -8 q 3 24 42 -8 q -35 108 -35 56 q -28 151 -35 133 q -14 183 -22 168 l 206 532 q 272 603 235 579 q 347 626 308 626 q 438 592 400 626 q 476 506 476 558 q 469 468 476 492 q 432 396 461 444 l 569 396 l 463 843 q 460 860 460 850 q 460 878 460 871 q 476 942 460 913 q 517 992 492 971 q 574 1024 542 1013 q 638 1035 606 1035 q 706 1013 678 1035 q 746 943 735 992 l 929 183 q 932 165 932 175 q 932 147 932 156 q 916 84 932 113 q 874 35 900 56 q 816 3 849 14 q 751 -8 783 -8 q 644 85 668 -8 l 631 139 m 440 1188 q 414 1215 422 1199 q 406 1250 406 1232 q 416 1298 406 1276 q 443 1335 426 1319 q 480 1358 460 1350 q 521 1367 500 1367 q 572 1347 549 1367 l 754 1196 q 782 1136 782 1172 q 774 1101 782 1118 q 751 1072 765 1085 q 719 1051 738 1058 q 683 1043 701 1043 q 639 1057 661 1043 l 440 1188 z "},"Á":{"ha":990,"x_min":-35,"x_max":932,"o":"m 0 0 m 631 139 l 269 139 q 218 66 242 94 q 174 21 194 38 q 135 -2 154 4 q 96 -8 115 -8 q 3 24 42 -8 q -35 108 -35 56 q -28 151 -35 133 q -14 183 -22 168 l 206 532 q 272 603 235 579 q 347 626 308 626 q 438 592 400 626 q 476 506 476 558 q 469 468 476 492 q 432 396 461 444 l 569 396 l 463 843 q 460 860 460 850 q 460 878 460 871 q 476 942 460 913 q 517 992 492 971 q 574 1024 542 1013 q 638 1035 606 1035 q 706 1013 678 1035 q 746 943 735 992 l 929 183 q 932 165 932 175 q 932 147 932 156 q 916 84 932 113 q 874 35 900 56 q 816 3 849 14 q 751 -8 783 -8 q 644 85 668 -8 l 631 139 m 583 1057 q 533 1043 557 1043 q 485 1065 504 1043 q 465 1115 465 1088 q 480 1160 465 1139 q 518 1196 494 1181 l 753 1347 q 810 1367 783 1367 q 867 1344 843 1367 q 892 1281 892 1321 q 831 1188 892 1219 l 583 1057 z "},"Â":{"ha":990,"x_min":-35,"x_max":932,"o":"m 0 0 m 631 139 l 269 139 q 218 66 242 94 q 174 21 194 38 q 135 -2 154 4 q 96 -8 115 -8 q 3 24 42 -8 q -35 108 -35 56 q -28 151 -35 133 q -14 183 -22 168 l 206 532 q 272 603 235 579 q 347 626 308 626 q 438 592 400 626 q 476 506 476 558 q 469 468 476 492 q 432 396 461 444 l 569 396 l 463 843 q 460 860 460 850 q 460 878 460 871 q 476 942 460 913 q 517 992 492 971 q 574 1024 542 1013 q 638 1035 606 1035 q 706 1013 678 1035 q 746 943 735 992 l 929 183 q 932 165 932 175 q 932 147 932 156 q 916 84 932 113 q 874 35 900 56 q 816 3 849 14 q 751 -8 783 -8 q 644 85 668 -8 l 631 139 m 631 1175 l 439 1064 q 412 1053 425 1056 q 389 1050 399 1050 q 340 1072 358 1050 q 321 1122 321 1094 q 335 1167 321 1146 q 375 1203 350 1188 l 596 1346 q 633 1363 614 1357 q 668 1368 653 1368 q 728 1346 701 1368 l 900 1203 q 929 1143 929 1178 q 921 1110 929 1126 q 898 1080 913 1093 q 865 1058 883 1067 q 829 1050 847 1050 q 808 1053 819 1050 q 785 1064 796 1056 l 631 1175 z "},"Ã":{"ha":990,"x_min":-35,"x_max":963,"o":"m 0 0 m 631 139 l 269 139 q 218 66 242 94 q 174 21 194 38 q 135 -2 154 4 q 96 -8 115 -8 q 3 24 42 -8 q -35 108 -35 56 q -28 151 -35 133 q -14 183 -22 168 l 206 532 q 272 603 235 579 q 347 626 308 626 q 438 592 400 626 q 476 506 476 558 q 469 468 476 492 q 432 396 461 444 l 569 396 l 463 843 q 460 860 460 850 q 460 878 460 871 q 476 942 460 913 q 517 992 492 971 q 574 1024 542 1013 q 638 1035 606 1035 q 706 1013 678 1035 q 746 943 735 992 l 929 183 q 932 165 932 175 q 932 147 932 156 q 916 84 932 113 q 874 35 900 56 q 816 3 849 14 q 751 -8 783 -8 q 644 85 668 -8 l 631 139 m 394 1122 q 337 1145 357 1122 q 317 1200 317 1168 q 325 1240 317 1221 q 348 1275 333 1260 q 383 1299 363 1290 q 428 1308 403 1308 l 885 1308 q 943 1285 924 1308 q 963 1229 963 1261 q 931 1155 963 1188 q 851 1122 900 1122 l 394 1122 z "},"Ä":{"ha":990,"x_min":-35,"x_max":932,"o":"m 0 0 m 631 139 l 269 139 q 218 66 242 94 q 174 21 194 38 q 135 -2 154 4 q 96 -8 115 -8 q 3 24 42 -8 q -35 108 -35 56 q -28 151 -35 133 q -14 183 -22 168 l 206 532 q 272 603 235 579 q 347 626 308 626 q 438 592 400 626 q 476 506 476 558 q 469 468 476 492 q 432 396 461 444 l 569 396 l 463 843 q 460 860 460 850 q 460 878 460 871 q 476 942 460 913 q 517 992 492 971 q 574 1024 542 1013 q 638 1035 606 1035 q 706 1013 678 1035 q 746 943 735 992 l 929 183 q 932 165 932 175 q 932 147 932 156 q 916 84 932 113 q 874 35 900 56 q 816 3 849 14 q 751 -8 783 -8 q 644 85 668 -8 l 631 139 m 458 1090 q 397 1117 421 1090 q 372 1181 372 1143 q 383 1224 372 1203 q 410 1263 393 1246 q 450 1289 428 1279 q 496 1299 472 1299 q 558 1272 533 1299 q 582 1208 582 1244 q 572 1163 582 1185 q 544 1126 561 1142 q 504 1100 526 1110 q 458 1090 482 1090 m 776 1090 q 714 1117 738 1090 q 690 1179 690 1143 q 701 1224 690 1203 q 728 1263 711 1246 q 768 1289 746 1279 q 814 1299 790 1299 q 876 1272 853 1299 q 900 1208 900 1244 q 890 1163 900 1185 q 862 1126 879 1142 q 822 1100 844 1110 q 776 1090 800 1090 z "},"Å":{"ha":990,"x_min":-35,"x_max":932,"o":"m 0 0 m 631 139 l 269 139 q 218 66 242 94 q 174 21 194 38 q 135 -2 154 4 q 96 -8 115 -8 q 3 24 42 -8 q -35 108 -35 56 q -28 151 -35 133 q -14 183 -22 168 l 206 532 q 272 603 235 579 q 347 626 308 626 q 438 592 400 626 q 476 506 476 558 q 469 468 476 492 q 432 396 461 444 l 569 396 l 463 843 q 460 860 460 850 q 460 878 460 871 q 476 942 460 913 q 517 992 492 971 q 574 1024 542 1013 q 638 1035 606 1035 q 706 1013 678 1035 q 746 943 735 992 l 929 183 q 932 165 932 175 q 932 147 932 156 q 916 84 932 113 q 874 35 900 56 q 816 3 849 14 q 751 -8 783 -8 q 644 85 668 -8 l 631 139 m 703 1214 q 688 1253 703 1238 q 650 1269 674 1269 q 597 1247 621 1269 q 574 1196 574 1225 q 589 1156 574 1172 q 628 1140 604 1140 q 680 1162 657 1140 q 703 1214 703 1183 m 803 1229 q 786 1158 803 1192 q 742 1098 769 1124 q 681 1058 715 1072 q 608 1043 646 1043 q 511 1083 549 1043 q 474 1182 474 1124 q 490 1253 474 1219 q 533 1313 506 1288 q 594 1353 560 1339 q 665 1368 628 1368 q 765 1328 726 1368 q 803 1229 803 1288 z "},"Æ":{"ha":1444,"x_min":11,"x_max":1482,"o":"m 644 0 q 525 103 525 0 q 526 113 525 107 q 529 136 526 119 q 537 183 532 153 q 551 264 542 213 l 319 264 l 296 132 q 237 28 283 64 q 132 -8 190 -8 q 45 20 79 -8 q 11 101 11 49 q 11 116 11 108 q 14 132 11 124 l 92 575 q 569 1026 171 1026 l 1361 1026 q 1451 992 1421 1026 q 1482 908 1482 957 q 1469 846 1482 876 q 1435 792 1457 815 q 1381 756 1413 769 q 1311 742 1349 742 l 915 742 l 899 646 l 1303 646 q 1381 619 1353 646 q 1408 542 1408 593 q 1366 423 1408 467 q 1256 379 1324 379 l 851 379 l 835 285 l 1233 285 q 1324 249 1293 285 q 1356 165 1356 214 q 1343 102 1356 132 q 1308 49 1331 72 q 1253 13 1285 26 q 1183 0 1221 0 l 644 0 m 635 746 l 521 746 q 382 618 406 746 l 364 519 l 596 519 l 635 746 z "},"Ç":{"ha":853,"x_min":58,"x_max":907,"o":"m 58 0 m 546 0 q 333 33 424 0 q 181 124 242 65 q 89 263 119 182 q 58 443 58 344 q 133 712 58 589 q 338 919 208 835 q 510 998 414 969 q 735 1026 607 1026 l 774 1026 q 876 990 844 1026 q 907 906 907 954 q 895 844 907 874 q 860 790 883 814 q 803 753 838 767 q 724 739 769 739 l 683 739 q 567 729 610 739 q 492 701 524 719 q 391 613 431 668 q 351 481 351 558 q 362 405 351 440 q 401 342 372 369 q 477 300 429 315 q 600 285 525 285 l 639 285 q 744 249 713 285 q 776 165 776 214 q 765 103 776 133 q 731 51 754 74 q 672 14 707 28 q 589 0 636 0 l 546 0 m 418 -253 q 335 -299 378 -299 q 285 -279 303 -299 q 267 -232 267 -260 q 272 -204 267 -217 q 285 -176 276 -192 l 343 -78 q 386 -32 360 -49 q 440 -15 413 -15 q 469 -21 454 -15 q 497 -37 485 -26 q 518 -62 510 -47 q 526 -96 526 -76 q 519 -128 526 -111 q 492 -169 513 -146 l 418 -253 z "},"È":{"ha":964,"x_min":18,"x_max":1001,"o":"m 18 0 m 138 0 q 18 101 18 0 q 22 142 18 121 l 153 885 q 318 1026 178 1026 l 882 1026 q 971 992 940 1026 q 1001 908 1001 957 q 989 846 1001 876 q 954 792 976 815 q 901 756 932 769 q 832 742 869 742 l 408 742 l 392 646 l 824 646 q 900 619 872 646 q 928 542 928 593 q 885 423 928 467 q 776 379 843 379 l 344 379 l 328 285 l 754 285 q 844 249 813 285 q 875 165 875 214 q 863 102 875 132 q 827 49 850 72 q 773 13 804 26 q 704 0 742 0 l 138 0 m 440 1188 q 414 1215 422 1199 q 406 1250 406 1232 q 416 1298 406 1276 q 443 1335 426 1319 q 480 1358 460 1350 q 521 1367 500 1367 q 572 1347 549 1367 l 754 1196 q 782 1136 782 1172 q 774 1101 782 1118 q 751 1072 765 1085 q 719 1051 738 1058 q 683 1043 701 1043 q 639 1057 661 1043 l 440 1188 z "},"É":{"ha":964,"x_min":18,"x_max":1001,"o":"m 18 0 m 138 0 q 18 101 18 0 q 22 142 18 121 l 153 885 q 318 1026 178 1026 l 882 1026 q 971 992 940 1026 q 1001 908 1001 957 q 989 846 1001 876 q 954 792 976 815 q 901 756 932 769 q 832 742 869 742 l 408 742 l 392 646 l 824 646 q 900 619 872 646 q 928 542 928 593 q 885 423 928 467 q 776 379 843 379 l 344 379 l 328 285 l 754 285 q 844 249 813 285 q 875 165 875 214 q 863 102 875 132 q 827 49 850 72 q 773 13 804 26 q 704 0 742 0 l 138 0 m 583 1057 q 533 1043 557 1043 q 485 1065 504 1043 q 465 1115 465 1088 q 480 1160 465 1139 q 518 1196 494 1181 l 753 1347 q 810 1367 783 1367 q 867 1344 843 1367 q 892 1281 892 1321 q 831 1188 892 1219 l 583 1057 z "},"Ê":{"ha":964,"x_min":18,"x_max":1001,"o":"m 18 0 m 138 0 q 18 101 18 0 q 22 142 18 121 l 153 885 q 318 1026 178 1026 l 882 1026 q 971 992 940 1026 q 1001 908 1001 957 q 989 846 1001 876 q 954 792 976 815 q 901 756 932 769 q 832 742 869 742 l 408 742 l 392 646 l 824 646 q 900 619 872 646 q 928 542 928 593 q 885 423 928 467 q 776 379 843 379 l 344 379 l 328 285 l 754 285 q 844 249 813 285 q 875 165 875 214 q 863 102 875 132 q 827 49 850 72 q 773 13 804 26 q 704 0 742 0 l 138 0 m 632 1175 l 440 1064 q 413 1053 426 1056 q 390 1050 400 1050 q 341 1072 360 1050 q 322 1122 322 1094 q 337 1167 322 1146 q 376 1203 351 1188 l 597 1346 q 635 1363 615 1357 q 669 1368 654 1368 q 729 1346 703 1368 l 901 1203 q 931 1143 931 1178 q 922 1110 931 1126 q 899 1080 914 1093 q 867 1058 885 1067 q 831 1050 849 1050 q 809 1053 821 1050 q 786 1064 797 1056 l 632 1175 z "},"Ë":{"ha":964,"x_min":18,"x_max":1001,"o":"m 18 0 m 138 0 q 18 101 18 0 q 22 142 18 121 l 153 885 q 318 1026 178 1026 l 882 1026 q 971 992 940 1026 q 1001 908 1001 957 q 989 846 1001 876 q 954 792 976 815 q 901 756 932 769 q 832 742 869 742 l 408 742 l 392 646 l 824 646 q 900 619 872 646 q 928 542 928 593 q 885 423 928 467 q 776 379 843 379 l 344 379 l 328 285 l 754 285 q 844 249 813 285 q 875 165 875 214 q 863 102 875 132 q 827 49 850 72 q 773 13 804 26 q 704 0 742 0 l 138 0 m 460 1090 q 398 1117 422 1090 q 374 1181 374 1143 q 384 1224 374 1203 q 412 1263 394 1246 q 451 1289 429 1279 q 497 1299 474 1299 q 559 1272 535 1299 q 583 1208 583 1244 q 573 1163 583 1185 q 545 1126 563 1142 q 506 1100 528 1110 q 460 1090 483 1090 m 778 1090 q 715 1117 739 1090 q 692 1179 692 1143 q 702 1224 692 1203 q 730 1263 713 1246 q 769 1289 747 1279 q 815 1299 792 1299 q 878 1272 854 1299 q 901 1208 901 1244 q 891 1163 901 1185 q 863 1126 881 1142 q 824 1100 846 1110 q 778 1090 801 1090 z "},"Ì":{"ha":415,"x_min":17,"x_max":508,"o":"m 17 0 m 154 894 q 215 999 167 964 q 321 1035 263 1035 q 404 1007 369 1035 q 439 925 439 979 q 438 910 439 918 q 436 894 438 903 l 301 132 q 242 28 289 64 q 138 -8 194 -8 q 51 20 85 -8 q 17 103 17 49 q 17 117 17 110 q 19 132 18 125 l 154 894 m 167 1188 q 140 1215 149 1199 q 132 1250 132 1232 q 142 1298 132 1276 q 169 1335 153 1319 q 206 1358 186 1350 q 247 1367 226 1367 q 299 1347 275 1367 l 481 1196 q 508 1136 508 1172 q 500 1101 508 1118 q 478 1072 492 1085 q 446 1051 464 1058 q 410 1043 428 1043 q 365 1057 388 1043 l 167 1188 z "},"Í":{"ha":415,"x_min":17,"x_max":590,"o":"m 17 0 m 154 894 q 215 999 167 964 q 321 1035 263 1035 q 404 1007 369 1035 q 439 925 439 979 q 438 910 439 918 q 436 894 438 903 l 301 132 q 242 28 289 64 q 138 -8 194 -8 q 51 20 85 -8 q 17 103 17 49 q 17 117 17 110 q 19 132 18 125 l 154 894 m 282 1057 q 232 1043 256 1043 q 183 1065 203 1043 q 164 1115 164 1088 q 178 1160 164 1139 q 217 1196 193 1181 l 451 1347 q 508 1367 482 1367 q 566 1344 542 1367 q 590 1281 590 1321 q 529 1188 590 1219 l 282 1057 z "},"Î":{"ha":513,"x_min":65,"x_max":692,"o":"m 65 0 m 203 894 q 263 999 215 964 q 369 1035 311 1035 q 453 1007 418 1035 q 488 925 488 979 q 487 910 488 918 q 485 894 486 903 l 350 132 q 290 28 338 64 q 186 -8 243 -8 q 99 20 133 -8 q 65 103 65 49 q 66 117 65 110 q 68 132 67 125 l 203 894 m 393 1175 l 201 1064 q 174 1053 188 1056 q 151 1050 161 1050 q 102 1072 121 1050 q 83 1122 83 1094 q 98 1167 83 1146 q 138 1203 113 1188 l 358 1346 q 396 1363 376 1357 q 431 1368 415 1368 q 490 1346 464 1368 l 663 1203 q 692 1143 692 1178 q 683 1110 692 1126 q 660 1080 675 1093 q 628 1058 646 1067 q 592 1050 610 1050 q 570 1053 582 1050 q 547 1064 558 1056 l 393 1175 z "},"Ï":{"ha":415,"x_min":17,"x_max":614,"o":"m 17 0 m 154 894 q 215 999 167 964 q 321 1035 263 1035 q 404 1007 369 1035 q 439 925 439 979 q 438 910 439 918 q 436 894 438 903 l 301 132 q 242 28 289 64 q 138 -8 194 -8 q 51 20 85 -8 q 17 103 17 49 q 17 117 17 110 q 19 132 18 125 l 154 894 m 172 1090 q 110 1117 135 1090 q 86 1181 86 1143 q 97 1224 86 1203 q 124 1263 107 1246 q 164 1289 142 1279 q 210 1299 186 1299 q 272 1272 247 1299 q 296 1208 296 1244 q 285 1163 296 1185 q 258 1126 275 1142 q 218 1100 240 1110 q 172 1090 196 1090 m 490 1090 q 428 1117 451 1090 q 404 1179 404 1143 q 415 1224 404 1203 q 442 1263 425 1246 q 482 1289 460 1279 q 528 1299 504 1299 q 590 1272 567 1299 q 614 1208 614 1244 q 603 1163 614 1185 q 576 1126 593 1142 q 536 1100 558 1110 q 490 1090 514 1090 z "},"Ð":{"ha":1083,"x_min":18,"x_max":1069,"o":"m 197 0 q 103 30 136 0 q 71 110 71 60 q 72 122 71 114 q 76 154 72 129 q 90 229 81 179 q 114 368 99 279 q 44 405 69 371 q 18 486 18 439 q 30 548 18 518 q 62 601 42 578 q 108 640 82 625 q 164 656 135 654 l 204 885 q 226 937 208 911 q 269 982 244 963 q 322 1014 293 1001 q 378 1026 350 1026 l 600 1026 q 800 993 713 1026 q 947 901 888 960 q 1038 763 1007 842 q 1069 592 1069 683 q 1016 360 1069 468 q 875 172 963 253 q 674 46 788 92 q 442 0 561 0 l 197 0 m 399 368 l 383 285 l 494 285 q 600 305 549 285 q 690 360 651 325 q 753 442 729 394 q 776 544 776 490 q 762 622 776 586 q 721 683 747 657 q 657 724 694 710 q 572 739 619 739 l 464 739 l 449 656 l 550 656 q 641 619 610 656 q 672 533 672 583 q 660 472 672 501 q 624 419 647 442 q 569 382 601 396 q 500 368 538 368 l 399 368 z "},"Ñ":{"ha":929,"x_min":17,"x_max":953,"o":"m 17 0 m 356 435 l 301 132 q 242 28 289 64 q 136 -8 194 -8 q 51 20 85 -8 q 17 103 17 49 q 17 111 17 106 q 22 140 18 117 q 35 213 26 164 q 58 348 43 261 q 97 568 74 435 q 154 894 119 701 q 214 999 167 964 q 319 1035 261 1035 q 390 1016 367 1035 q 428 963 413 997 l 610 572 l 667 894 q 689 955 672 929 q 728 999 706 981 q 778 1026 751 1017 q 833 1035 806 1035 q 919 1007 885 1035 q 953 925 953 979 q 952 917 953 922 q 947 888 951 911 q 935 815 943 864 q 911 679 926 767 q 872 458 896 592 q 815 132 849 325 q 756 28 803 64 q 650 -8 708 -8 q 567 14 593 -8 q 528 67 542 36 l 356 435 m 364 1122 q 306 1145 326 1122 q 286 1200 286 1168 q 294 1240 286 1221 q 317 1275 303 1260 q 352 1299 332 1290 q 397 1308 372 1308 l 854 1308 q 913 1285 893 1308 q 932 1229 932 1261 q 901 1155 932 1188 q 821 1122 869 1122 l 364 1122 z "},"Ò":{"ha":1139,"x_min":57,"x_max":1124,"o":"m 57 0 m 833 544 q 819 625 833 588 q 778 690 804 663 q 715 735 751 718 q 633 751 678 751 q 528 729 579 751 q 437 669 476 707 q 374 581 397 631 q 350 475 350 531 q 365 395 350 432 q 405 331 379 358 q 467 287 431 303 q 549 271 504 271 q 654 292 603 271 q 745 351 706 314 q 809 439 785 389 q 833 544 833 489 m 1124 589 q 1071 357 1124 467 q 931 165 1018 247 q 730 35 843 83 q 496 -14 617 -14 q 319 22 400 -14 q 181 118 239 57 q 90 261 122 179 q 57 438 57 343 q 110 669 57 560 q 249 860 163 778 q 449 992 336 943 q 682 1040 561 1040 q 860 1005 779 1040 q 1000 908 942 969 q 1091 765 1058 847 q 1124 589 1124 683 m 514 1188 q 488 1215 496 1199 q 479 1250 479 1232 q 490 1298 479 1276 q 517 1335 500 1319 q 553 1358 533 1350 q 594 1367 574 1367 q 646 1347 622 1367 l 828 1196 q 856 1136 856 1172 q 847 1101 856 1118 q 825 1072 839 1085 q 793 1051 811 1058 q 757 1043 775 1043 q 713 1057 735 1043 l 514 1188 z "},"Ó":{"ha":1139,"x_min":57,"x_max":1124,"o":"m 57 0 m 833 544 q 819 625 833 588 q 778 690 804 663 q 715 735 751 718 q 633 751 678 751 q 528 729 579 751 q 437 669 476 707 q 374 581 397 631 q 350 475 350 531 q 365 395 350 432 q 405 331 379 358 q 467 287 431 303 q 549 271 504 271 q 654 292 603 271 q 745 351 706 314 q 809 439 785 389 q 833 544 833 489 m 1124 589 q 1071 357 1124 467 q 931 165 1018 247 q 730 35 843 83 q 496 -14 617 -14 q 319 22 400 -14 q 181 118 239 57 q 90 261 122 179 q 57 438 57 343 q 110 669 57 560 q 249 860 163 778 q 449 992 336 943 q 682 1040 561 1040 q 860 1005 779 1040 q 1000 908 942 969 q 1091 765 1058 847 q 1124 589 1124 683 m 657 1057 q 607 1043 631 1043 q 558 1065 578 1043 q 539 1115 539 1088 q 553 1160 539 1139 q 592 1196 568 1181 l 826 1347 q 883 1367 857 1367 q 941 1344 917 1367 q 965 1281 965 1321 q 904 1188 965 1219 l 657 1057 z "},"Ô":{"ha":1139,"x_min":57,"x_max":1124,"o":"m 57 0 m 833 544 q 819 625 833 588 q 778 690 804 663 q 715 735 751 718 q 633 751 678 751 q 528 729 579 751 q 437 669 476 707 q 374 581 397 631 q 350 475 350 531 q 365 395 350 432 q 405 331 379 358 q 467 287 431 303 q 549 271 504 271 q 654 292 603 271 q 745 351 706 314 q 809 439 785 389 q 833 544 833 489 m 1124 589 q 1071 357 1124 467 q 931 165 1018 247 q 730 35 843 83 q 496 -14 617 -14 q 319 22 400 -14 q 181 118 239 57 q 90 261 122 179 q 57 438 57 343 q 110 669 57 560 q 249 860 163 778 q 449 992 336 943 q 682 1040 561 1040 q 860 1005 779 1040 q 1000 908 942 969 q 1091 765 1058 847 q 1124 589 1124 683 m 706 1175 l 514 1064 q 487 1053 500 1056 q 464 1050 474 1050 q 415 1072 433 1050 q 396 1122 396 1094 q 410 1167 396 1146 q 450 1203 425 1188 l 671 1346 q 708 1363 689 1357 q 743 1368 728 1368 q 803 1346 776 1368 l 975 1203 q 1004 1143 1004 1178 q 996 1110 1004 1126 q 973 1080 988 1093 q 940 1058 958 1067 q 904 1050 922 1050 q 883 1053 894 1050 q 860 1064 871 1056 l 706 1175 z "},"Õ":{"ha":1139,"x_min":57,"x_max":1124,"o":"m 57 0 m 833 544 q 819 625 833 588 q 778 690 804 663 q 715 735 751 718 q 633 751 678 751 q 528 729 579 751 q 437 669 476 707 q 374 581 397 631 q 350 475 350 531 q 365 395 350 432 q 405 331 379 358 q 467 287 431 303 q 549 271 504 271 q 654 292 603 271 q 745 351 706 314 q 809 439 785 389 q 833 544 833 489 m 1124 589 q 1071 357 1124 467 q 931 165 1018 247 q 730 35 843 83 q 496 -14 617 -14 q 319 22 400 -14 q 181 118 239 57 q 90 261 122 179 q 57 438 57 343 q 110 669 57 560 q 249 860 163 778 q 449 992 336 943 q 682 1040 561 1040 q 860 1005 779 1040 q 1000 908 942 969 q 1091 765 1058 847 q 1124 589 1124 683 m 468 1122 q 410 1145 431 1122 q 390 1200 390 1168 q 399 1240 390 1221 q 422 1275 407 1260 q 456 1299 436 1290 q 501 1308 476 1308 l 958 1308 q 1017 1285 997 1308 q 1036 1229 1036 1261 q 1005 1155 1036 1188 q 925 1122 974 1122 l 468 1122 z "},"Ö":{"ha":1139,"x_min":57,"x_max":1124,"o":"m 57 0 m 833 544 q 819 625 833 588 q 778 690 804 663 q 715 735 751 718 q 633 751 678 751 q 528 729 579 751 q 437 669 476 707 q 374 581 397 631 q 350 475 350 531 q 365 395 350 432 q 405 331 379 358 q 467 287 431 303 q 549 271 504 271 q 654 292 603 271 q 745 351 706 314 q 809 439 785 389 q 833 544 833 489 m 1124 589 q 1071 357 1124 467 q 931 165 1018 247 q 730 35 843 83 q 496 -14 617 -14 q 319 22 400 -14 q 181 118 239 57 q 90 261 122 179 q 57 438 57 343 q 110 669 57 560 q 249 860 163 778 q 449 992 336 943 q 682 1040 561 1040 q 860 1005 779 1040 q 1000 908 942 969 q 1091 765 1058 847 q 1124 589 1124 683 m 533 1090 q 472 1117 496 1090 q 447 1181 447 1143 q 458 1224 447 1203 q 485 1263 468 1246 q 525 1289 503 1279 q 571 1299 547 1299 q 633 1272 608 1299 q 657 1208 657 1244 q 647 1163 657 1185 q 619 1126 636 1142 q 579 1100 601 1110 q 533 1090 557 1090 m 851 1090 q 789 1117 813 1090 q 765 1179 765 1143 q 776 1224 765 1203 q 803 1263 786 1246 q 843 1289 821 1279 q 889 1299 865 1299 q 951 1272 928 1299 q 975 1208 975 1244 q 965 1163 975 1185 q 937 1126 954 1142 q 897 1100 919 1110 q 851 1090 875 1090 z "},"×":{"ha":742,"x_min":51,"x_max":733,"o":"m 368 372 l 214 240 q 175 217 194 225 q 136 210 156 210 q 76 236 100 210 q 51 299 51 263 q 59 338 51 317 q 94 383 67 360 l 251 514 l 140 646 q 126 672 131 657 q 122 701 122 686 q 133 747 122 725 q 162 784 144 768 q 201 810 179 800 q 243 819 222 819 q 279 813 261 819 q 311 789 297 806 l 418 656 l 572 789 q 647 819 608 819 q 709 792 685 819 q 733 729 733 765 q 723 685 733 707 q 690 646 713 664 l 535 514 l 643 383 q 658 356 654 371 q 663 325 663 340 q 652 282 663 303 q 624 245 642 261 q 585 219 607 229 q 540 210 563 210 q 506 217 522 210 q 475 240 489 224 l 368 372 z "},"Ø":{"ha":1139,"x_min":57,"x_max":1124,"o":"m 267 -40 q 223 -77 247 -65 q 175 -89 199 -89 q 112 -62 136 -89 q 88 0 88 -35 q 114 67 88 35 l 163 128 q 85 267 113 186 q 57 436 57 349 q 110 668 57 558 q 249 860 163 778 q 449 992 336 943 q 682 1040 561 1040 q 776 1031 731 1040 q 864 1006 822 1022 l 915 1069 q 958 1106 935 1094 q 1006 1117 982 1117 q 1068 1092 1042 1117 q 1094 1032 1094 1068 q 1067 964 1094 999 l 1015 899 q 1095 759 1067 840 q 1124 588 1124 678 q 1071 356 1124 465 q 931 165 1018 247 q 730 34 843 82 q 496 -14 617 -14 q 401 -5 446 -14 q 315 21 356 4 l 267 -40 m 517 274 q 532 272 524 272 q 551 271 540 271 q 655 292 604 271 q 745 351 706 314 q 809 438 785 389 q 833 543 833 488 q 828 597 833 569 q 813 644 824 624 l 517 274 m 658 750 q 647 751 651 750 q 631 751 642 751 q 527 729 578 751 q 437 669 476 707 q 374 580 397 631 q 350 474 350 529 q 354 426 350 450 q 367 383 358 403 l 658 750 z "},"Ù":{"ha":917,"x_min":53,"x_max":947,"o":"m 53 0 m 661 894 q 683 955 667 929 q 722 999 699 981 q 772 1026 744 1017 q 826 1035 799 1035 q 913 1007 878 1035 q 947 925 947 979 q 947 918 947 922 q 944 899 946 914 q 936 853 942 883 q 922 770 931 824 q 899 636 913 717 q 864 439 885 556 q 388 -14 785 -14 q 53 300 53 -14 q 53 323 53 310 q 58 360 54 336 q 67 424 61 385 q 83 525 72 463 q 109 678 93 588 q 147 894 125 768 q 208 999 160 963 q 314 1035 257 1035 q 399 1007 365 1035 q 433 925 433 979 q 433 917 433 922 q 429 897 432 913 q 422 848 426 881 q 406 758 417 815 q 381 612 396 700 q 343 396 365 524 q 339 357 339 375 q 436 268 339 268 q 574 396 551 268 l 661 894 m 403 1188 q 376 1215 385 1199 q 368 1250 368 1232 q 378 1298 368 1276 q 406 1335 389 1319 q 442 1358 422 1350 q 483 1367 463 1367 q 535 1347 511 1367 l 717 1196 q 744 1136 744 1172 q 736 1101 744 1118 q 714 1072 728 1085 q 682 1051 700 1058 q 646 1043 664 1043 q 601 1057 624 1043 l 403 1188 z "},"Ú":{"ha":917,"x_min":53,"x_max":947,"o":"m 53 0 m 661 894 q 683 955 667 929 q 722 999 699 981 q 772 1026 744 1017 q 826 1035 799 1035 q 913 1007 878 1035 q 947 925 947 979 q 947 918 947 922 q 944 899 946 914 q 936 853 942 883 q 922 770 931 824 q 899 636 913 717 q 864 439 885 556 q 388 -14 785 -14 q 53 300 53 -14 q 53 323 53 310 q 58 360 54 336 q 67 424 61 385 q 83 525 72 463 q 109 678 93 588 q 147 894 125 768 q 208 999 160 963 q 314 1035 257 1035 q 399 1007 365 1035 q 433 925 433 979 q 433 917 433 922 q 429 897 432 913 q 422 848 426 881 q 406 758 417 815 q 381 612 396 700 q 343 396 365 524 q 339 357 339 375 q 436 268 339 268 q 574 396 551 268 l 661 894 m 546 1057 q 496 1043 519 1043 q 447 1065 467 1043 q 428 1115 428 1088 q 442 1160 428 1139 q 481 1196 457 1181 l 715 1347 q 772 1367 746 1367 q 830 1344 806 1367 q 854 1281 854 1321 q 793 1188 854 1219 l 546 1057 z "},"Û":{"ha":917,"x_min":53,"x_max":947,"o":"m 53 0 m 661 894 q 683 955 667 929 q 722 999 699 981 q 772 1026 744 1017 q 826 1035 799 1035 q 913 1007 878 1035 q 947 925 947 979 q 947 918 947 922 q 944 899 946 914 q 936 853 942 883 q 922 770 931 824 q 899 636 913 717 q 864 439 885 556 q 388 -14 785 -14 q 53 300 53 -14 q 53 323 53 310 q 58 360 54 336 q 67 424 61 385 q 83 525 72 463 q 109 678 93 588 q 147 894 125 768 q 208 999 160 963 q 314 1035 257 1035 q 399 1007 365 1035 q 433 925 433 979 q 433 917 433 922 q 429 897 432 913 q 422 848 426 881 q 406 758 417 815 q 381 612 396 700 q 343 396 365 524 q 339 357 339 375 q 436 268 339 268 q 574 396 551 268 l 661 894 m 594 1175 l 403 1064 q 376 1053 389 1056 q 353 1050 363 1050 q 303 1072 322 1050 q 285 1122 285 1094 q 299 1167 285 1146 q 339 1203 314 1188 l 560 1346 q 597 1363 578 1357 q 632 1368 617 1368 q 692 1346 665 1368 l 864 1203 q 893 1143 893 1178 q 885 1110 893 1126 q 862 1080 876 1093 q 829 1058 847 1067 q 793 1050 811 1050 q 772 1053 783 1050 q 749 1064 760 1056 l 594 1175 z "},"Ü":{"ha":917,"x_min":53,"x_max":947,"o":"m 53 0 m 661 894 q 683 955 667 929 q 722 999 699 981 q 772 1026 744 1017 q 826 1035 799 1035 q 913 1007 878 1035 q 947 925 947 979 q 947 918 947 922 q 944 899 946 914 q 936 853 942 883 q 922 770 931 824 q 899 636 913 717 q 864 439 885 556 q 388 -14 785 -14 q 53 300 53 -14 q 53 323 53 310 q 58 360 54 336 q 67 424 61 385 q 83 525 72 463 q 109 678 93 588 q 147 894 125 768 q 208 999 160 963 q 314 1035 257 1035 q 399 1007 365 1035 q 433 925 433 979 q 433 917 433 922 q 429 897 432 913 q 422 848 426 881 q 406 758 417 815 q 381 612 396 700 q 343 396 365 524 q 339 357 339 375 q 436 268 339 268 q 574 396 551 268 l 661 894 m 422 1090 q 360 1117 385 1090 q 336 1181 336 1143 q 347 1224 336 1203 q 374 1263 357 1246 q 414 1289 392 1279 q 460 1299 436 1299 q 522 1272 497 1299 q 546 1208 546 1244 q 535 1163 546 1185 q 508 1126 525 1142 q 468 1100 490 1110 q 422 1090 446 1090 m 740 1090 q 678 1117 701 1090 q 654 1179 654 1143 q 665 1224 654 1203 q 692 1263 675 1246 q 732 1289 710 1279 q 778 1299 754 1299 q 840 1272 817 1299 q 864 1208 864 1244 q 853 1163 864 1185 q 826 1126 843 1142 q 786 1100 808 1110 q 740 1090 764 1090 z "},"Ý":{"ha":814,"x_min":97,"x_max":893,"o":"m 97 0 m 276 446 q 201 612 232 543 q 151 727 171 681 q 121 801 132 774 q 104 843 110 828 q 98 865 99 858 q 97 875 97 871 q 113 940 97 911 q 152 990 128 969 q 208 1023 176 1011 q 271 1035 239 1035 q 376 963 346 1035 l 468 739 l 636 963 q 768 1035 690 1035 q 862 998 831 1035 q 893 915 893 961 q 856 819 893 865 l 558 446 l 503 132 q 442 28 490 64 q 338 -8 394 -8 q 251 20 285 -8 q 218 103 218 49 q 219 117 218 110 q 221 132 219 124 l 276 446 m 494 1057 q 444 1043 468 1043 q 396 1065 415 1043 q 376 1115 376 1088 q 391 1160 376 1139 q 429 1196 406 1181 l 664 1347 q 721 1367 694 1367 q 778 1344 754 1367 q 803 1281 803 1321 q 742 1188 803 1219 l 494 1057 z "},"Þ":{"ha":893,"x_min":-3,"x_max":897,"o":"m 294 203 l 283 138 q 114 -8 258 -8 q -3 93 -3 -8 q -2 106 -3 99 q 1 133 -1 114 q 11 190 4 153 q 29 292 18 228 q 90 422 44 379 q 219 465 136 465 l 576 465 q 626 478 610 465 q 643 515 643 492 q 592 551 643 551 l 211 551 q 124 581 154 551 q 93 657 93 611 q 94 668 93 661 q 99 698 94 675 q 110 767 103 721 q 132 894 118 813 q 191 999 143 963 q 297 1035 239 1035 q 383 1006 349 1035 q 417 925 417 978 q 415 902 417 917 q 404 838 413 888 l 626 838 q 834 771 771 838 q 897 564 897 704 q 806 298 897 393 q 517 203 714 203 l 294 203 z "},"ß":{"ha":1853,"x_min":11,"x_max":1833,"o":"m 11 0 m 126 0 q 11 106 11 0 q 52 237 11 189 q 178 285 93 285 l 558 285 q 625 336 625 285 q 574 371 625 371 l 342 371 q 151 435 214 371 q 89 621 89 499 q 185 919 89 813 q 479 1026 282 1026 l 792 1026 q 907 921 907 1026 q 865 790 907 838 q 739 742 824 742 l 408 742 q 343 690 343 742 q 393 656 343 656 l 626 656 q 817 591 754 656 q 879 404 879 526 q 785 107 879 214 q 493 0 690 0 l 126 0 m 1053 0 q 938 106 938 0 q 978 237 938 189 q 1104 285 1019 285 l 1485 285 q 1551 336 1551 285 q 1500 371 1551 371 l 1268 371 q 1078 435 1140 371 q 1015 621 1015 499 q 1112 919 1015 813 q 1406 1026 1208 1026 l 1718 1026 q 1833 921 1833 1026 q 1792 790 1833 838 q 1665 742 1750 742 l 1335 742 q 1269 690 1269 742 q 1319 656 1269 656 l 1553 656 q 1743 591 1681 656 q 1806 404 1806 526 q 1711 107 1806 214 q 1419 0 1617 0 l 1053 0 z "},"÷":{"ha":883,"x_min":85,"x_max":840,"o":"m 206 368 q 115 403 146 368 q 85 488 85 439 q 97 550 85 519 q 132 604 110 581 q 186 642 154 628 q 256 656 218 656 l 718 656 q 809 619 778 656 q 840 533 840 583 q 828 472 840 501 q 792 419 815 442 q 738 382 769 396 q 668 368 706 368 l 206 368 m 549 185 q 533 124 549 153 q 494 72 518 94 q 440 37 471 50 q 378 24 408 24 q 292 60 325 24 q 258 146 258 96 q 273 207 258 178 q 311 258 288 236 q 365 294 335 281 q 428 307 396 307 q 514 272 479 307 q 549 185 549 236 m 500 714 q 413 751 447 714 q 379 838 379 788 q 394 899 379 869 q 432 951 408 929 q 487 987 456 974 q 550 1000 518 1000 q 635 964 601 1000 q 669 876 669 928 q 655 815 669 844 q 616 763 640 786 q 561 727 592 740 q 500 714 531 714 z "},"ÿ":{"ha":814,"x_min":97,"x_max":893,"o":"m 97 0 m 276 446 q 201 612 232 543 q 151 727 171 681 q 121 801 132 774 q 104 843 110 828 q 98 865 99 858 q 97 875 97 871 q 113 940 97 911 q 152 990 128 969 q 208 1023 176 1011 q 271 1035 239 1035 q 376 963 346 1035 l 468 739 l 636 963 q 768 1035 690 1035 q 862 998 831 1035 q 893 915 893 961 q 856 819 893 865 l 558 446 l 503 132 q 442 28 490 64 q 338 -8 394 -8 q 251 20 285 -8 q 218 103 218 49 q 219 117 218 110 q 221 132 219 124 l 276 446 m 371 1090 q 309 1117 333 1090 q 285 1181 285 1143 q 295 1224 285 1203 q 323 1263 306 1246 q 363 1289 340 1279 q 408 1299 385 1299 q 470 1272 446 1299 q 494 1208 494 1244 q 484 1163 494 1185 q 456 1126 474 1142 q 417 1100 439 1110 q 371 1090 394 1090 m 689 1090 q 626 1117 650 1090 q 603 1179 603 1143 q 613 1224 603 1203 q 641 1263 624 1246 q 681 1289 658 1279 q 726 1299 703 1299 q 789 1272 765 1299 q 813 1208 813 1244 q 802 1163 813 1185 q 774 1126 792 1142 q 735 1100 757 1110 q 689 1090 713 1090 z "},"Ā":{"ha":990,"x_min":-35,"x_max":963,"o":"m 0 0 m 631 139 l 269 139 q 218 66 242 94 q 174 21 194 38 q 135 -2 154 4 q 96 -8 115 -8 q 3 24 42 -8 q -35 108 -35 56 q -28 151 -35 133 q -14 183 -22 168 l 206 532 q 272 603 235 579 q 347 626 308 626 q 438 592 400 626 q 476 506 476 558 q 469 468 476 492 q 432 396 461 444 l 569 396 l 463 843 q 460 860 460 850 q 460 878 460 871 q 476 942 460 913 q 517 992 492 971 q 574 1024 542 1013 q 638 1035 606 1035 q 706 1013 678 1035 q 746 943 735 992 l 929 183 q 932 165 932 175 q 932 147 932 156 q 916 84 932 113 q 874 35 900 56 q 816 3 849 14 q 751 -8 783 -8 q 644 85 668 -8 l 631 139 m 394 1122 q 337 1145 357 1122 q 317 1200 317 1168 q 325 1240 317 1221 q 348 1275 333 1260 q 383 1299 363 1290 q 428 1308 403 1308 l 885 1308 q 943 1285 924 1308 q 963 1229 963 1261 q 931 1155 963 1188 q 851 1122 900 1122 l 394 1122 z "},"Ă":{"ha":990,"x_min":-35,"x_max":957,"o":"m 0 0 m 631 139 l 269 139 q 218 66 242 94 q 174 21 194 38 q 135 -2 154 4 q 96 -8 115 -8 q 3 24 42 -8 q -35 108 -35 56 q -28 151 -35 133 q -14 183 -22 168 l 206 532 q 272 603 235 579 q 347 626 308 626 q 438 592 400 626 q 476 506 476 558 q 469 468 476 492 q 432 396 461 444 l 569 396 l 463 843 q 460 860 460 850 q 460 878 460 871 q 476 942 460 913 q 517 992 492 971 q 574 1024 542 1013 q 638 1035 606 1035 q 706 1013 678 1035 q 746 943 735 992 l 929 183 q 932 165 932 175 q 932 147 932 156 q 916 84 932 113 q 874 35 900 56 q 816 3 849 14 q 751 -8 783 -8 q 644 85 668 -8 l 631 139 m 957 1296 q 932 1206 957 1250 q 861 1128 907 1163 q 751 1072 815 1093 q 610 1050 688 1050 q 495 1067 544 1050 q 411 1111 446 1083 q 359 1176 376 1139 q 342 1253 342 1213 q 371 1337 342 1306 q 453 1368 400 1368 q 506 1350 489 1368 q 526 1300 524 1332 q 554 1221 529 1249 q 635 1193 579 1193 q 726 1221 690 1193 q 782 1300 761 1249 q 818 1350 794 1332 q 878 1368 842 1368 q 938 1348 918 1368 q 957 1296 957 1328 z "},"Ą":{"ha":990,"x_min":-35,"x_max":932,"o":"m 561 -299 q 494 -276 519 -299 q 469 -214 469 -253 q 472 -192 469 -204 q 481 -164 474 -179 q 501 -132 488 -149 q 539 -96 515 -115 q 597 -47 575 -67 q 630 -10 618 -26 q 645 17 642 6 q 649 42 649 29 q 644 85 649 65 l 631 139 l 269 139 l 235 85 q 93 -8 175 -8 q 3 24 40 -8 q -35 110 -35 56 q -31 144 -35 124 q -14 183 -26 164 l 206 532 q 350 626 264 626 q 398 617 375 626 q 438 592 421 608 q 465 554 454 576 q 475 506 475 532 q 467 464 475 486 q 431 396 458 442 l 569 396 l 463 843 q 459 860 460 850 q 458 878 458 871 q 474 942 458 913 q 516 992 490 971 q 573 1024 542 1013 q 636 1035 604 1035 q 706 1013 676 1035 q 746 943 735 992 l 928 183 q 932 147 932 167 q 925 111 932 129 q 899 69 918 93 q 842 13 879 46 q 744 -67 804 -19 l 822 -67 q 895 -95 871 -67 q 919 -164 919 -124 q 910 -215 919 -190 q 881 -258 900 -239 q 837 -287 863 -276 q 781 -299 811 -299 l 561 -299 z "},"Ć":{"ha":853,"x_min":58,"x_max":907,"o":"m 58 0 m 546 0 q 333 33 424 0 q 181 124 242 65 q 89 263 119 182 q 58 443 58 344 q 133 712 58 589 q 338 919 208 835 q 510 998 414 969 q 735 1026 607 1026 l 774 1026 q 876 990 844 1026 q 907 906 907 954 q 895 844 907 874 q 860 790 883 814 q 803 753 838 767 q 724 739 769 739 l 683 739 q 567 729 610 739 q 492 701 524 719 q 391 613 431 668 q 351 481 351 558 q 362 405 351 440 q 401 342 372 369 q 477 300 429 315 q 600 285 525 285 l 639 285 q 744 249 713 285 q 776 165 776 214 q 765 103 776 133 q 731 51 754 74 q 672 14 707 28 q 589 0 636 0 l 546 0 m 583 1057 q 533 1043 557 1043 q 485 1065 504 1043 q 465 1115 465 1088 q 480 1160 465 1139 q 518 1196 494 1181 l 753 1347 q 810 1367 783 1367 q 867 1344 843 1367 q 892 1281 892 1321 q 831 1188 892 1219 l 583 1057 z "},"Ċ":{"ha":853,"x_min":58,"x_max":907,"o":"m 58 0 m 546 0 q 333 33 424 0 q 181 124 242 65 q 89 263 119 182 q 58 443 58 344 q 133 712 58 589 q 338 919 208 835 q 510 998 414 969 q 735 1026 607 1026 l 774 1026 q 876 990 844 1026 q 907 906 907 954 q 895 844 907 874 q 860 790 883 814 q 803 753 838 767 q 724 739 769 739 l 683 739 q 567 729 610 739 q 492 701 524 719 q 391 613 431 668 q 351 481 351 558 q 362 405 351 440 q 401 342 372 369 q 477 300 429 315 q 600 285 525 285 l 639 285 q 744 249 713 285 q 776 165 776 214 q 765 103 776 133 q 731 51 754 74 q 672 14 707 28 q 589 0 636 0 l 546 0 m 663 1090 q 601 1117 625 1090 q 576 1181 576 1143 q 587 1224 576 1203 q 615 1263 597 1246 q 654 1289 632 1279 q 700 1299 676 1299 q 762 1272 738 1299 q 786 1208 786 1244 q 776 1163 786 1185 q 748 1126 765 1142 q 708 1100 731 1110 q 663 1090 686 1090 z "},"Č":{"ha":853,"x_min":58,"x_max":971,"o":"m 58 0 m 546 0 q 333 33 424 0 q 181 124 242 65 q 89 263 119 182 q 58 443 58 344 q 133 712 58 589 q 338 919 208 835 q 510 998 414 969 q 735 1026 607 1026 l 774 1026 q 876 990 844 1026 q 907 906 907 954 q 895 844 907 874 q 860 790 883 814 q 803 753 838 767 q 724 739 769 739 l 683 739 q 567 729 610 739 q 492 701 524 719 q 391 613 431 668 q 351 481 351 558 q 362 405 351 440 q 401 342 372 369 q 477 300 429 315 q 600 285 525 285 l 639 285 q 744 249 713 285 q 776 165 776 214 q 765 103 776 133 q 731 51 754 74 q 672 14 707 28 q 589 0 636 0 l 546 0 m 696 1072 q 658 1056 678 1061 q 622 1050 638 1050 q 561 1072 589 1050 l 392 1215 q 363 1275 363 1240 q 371 1308 363 1292 q 393 1338 379 1325 q 424 1360 407 1351 q 460 1368 442 1368 q 482 1365 469 1368 q 506 1354 494 1363 l 660 1243 l 851 1354 q 878 1365 865 1363 q 900 1368 890 1368 q 951 1346 932 1368 q 971 1296 971 1324 q 956 1251 971 1272 q 917 1215 940 1231 l 696 1072 z "},"Ď":{"ha":1032,"x_min":19,"x_max":1017,"o":"m 19 0 m 425 285 q 547 306 492 285 q 640 363 601 326 q 701 447 679 399 q 722 549 722 494 q 708 622 722 588 q 667 683 694 657 q 600 724 640 710 q 506 739 560 739 l 410 739 l 329 285 l 425 285 m 144 0 q 51 30 83 0 q 19 111 19 60 q 20 119 19 114 q 24 148 21 125 q 36 219 28 171 q 59 351 44 267 q 97 566 74 436 q 153 885 119 696 q 174 937 157 911 q 216 982 192 963 q 269 1014 240 1001 q 325 1026 297 1026 l 535 1026 q 743 992 653 1026 q 894 900 833 958 q 986 763 956 842 q 1017 593 1017 683 q 968 365 1017 472 q 832 176 919 257 q 623 47 744 94 q 356 0 501 0 l 144 0 m 660 1072 q 622 1056 642 1061 q 586 1050 601 1050 q 525 1072 553 1050 l 356 1215 q 326 1275 326 1240 q 335 1308 326 1292 q 357 1338 343 1325 q 388 1360 371 1351 q 424 1368 406 1368 q 446 1365 433 1368 q 469 1354 458 1363 l 624 1243 l 815 1354 q 842 1365 829 1363 q 864 1368 854 1368 q 915 1346 896 1368 q 935 1296 935 1324 q 919 1251 935 1272 q 881 1215 904 1231 l 660 1072 z "},"Ē":{"ha":964,"x_min":18,"x_max":1001,"o":"m 18 0 m 138 0 q 18 101 18 0 q 22 142 18 121 l 153 885 q 318 1026 178 1026 l 882 1026 q 971 992 940 1026 q 1001 908 1001 957 q 989 846 1001 876 q 954 792 976 815 q 901 756 932 769 q 832 742 869 742 l 408 742 l 392 646 l 824 646 q 900 619 872 646 q 928 542 928 593 q 885 423 928 467 q 776 379 843 379 l 344 379 l 328 285 l 754 285 q 844 249 813 285 q 875 165 875 214 q 863 102 875 132 q 827 49 850 72 q 773 13 804 26 q 704 0 742 0 l 138 0 m 394 1122 q 337 1145 357 1122 q 317 1200 317 1168 q 325 1240 317 1221 q 348 1275 333 1260 q 383 1299 363 1290 q 428 1308 403 1308 l 885 1308 q 943 1285 924 1308 q 963 1229 963 1261 q 931 1155 963 1188 q 851 1122 900 1122 l 394 1122 z "},"Ĕ":{"ha":964,"x_min":18,"x_max":1001,"o":"m 18 0 m 138 0 q 18 101 18 0 q 22 142 18 121 l 153 885 q 318 1026 178 1026 l 882 1026 q 971 992 940 1026 q 1001 908 1001 957 q 989 846 1001 876 q 954 792 976 815 q 901 756 932 769 q 832 742 869 742 l 408 742 l 392 646 l 824 646 q 900 619 872 646 q 928 542 928 593 q 885 423 928 467 q 776 379 843 379 l 344 379 l 328 285 l 754 285 q 844 249 813 285 q 875 165 875 214 q 863 102 875 132 q 827 49 850 72 q 773 13 804 26 q 704 0 742 0 l 138 0 m 958 1296 q 933 1206 958 1250 q 863 1128 908 1163 q 753 1072 817 1093 q 611 1050 689 1050 q 497 1067 546 1050 q 413 1111 447 1083 q 360 1176 378 1139 q 343 1253 343 1213 q 372 1337 343 1306 q 454 1368 401 1368 q 508 1350 490 1368 q 528 1300 525 1332 q 556 1221 531 1249 q 636 1193 581 1193 q 727 1221 692 1193 q 783 1300 763 1249 q 819 1350 796 1332 q 879 1368 843 1368 q 939 1348 919 1368 q 958 1296 958 1328 z "},"Ė":{"ha":964,"x_min":18,"x_max":1001,"o":"m 18 0 m 138 0 q 18 101 18 0 q 22 142 18 121 l 153 885 q 318 1026 178 1026 l 882 1026 q 971 992 940 1026 q 1001 908 1001 957 q 989 846 1001 876 q 954 792 976 815 q 901 756 932 769 q 832 742 869 742 l 408 742 l 392 646 l 824 646 q 900 619 872 646 q 928 542 928 593 q 885 423 928 467 q 776 379 843 379 l 344 379 l 328 285 l 754 285 q 844 249 813 285 q 875 165 875 214 q 863 102 875 132 q 827 49 850 72 q 773 13 804 26 q 704 0 742 0 l 138 0 m 618 1090 q 556 1117 581 1090 q 532 1181 532 1143 q 542 1224 532 1203 q 570 1263 553 1246 q 610 1289 588 1279 q 656 1299 632 1299 q 717 1272 693 1299 q 742 1208 742 1244 q 731 1163 742 1185 q 703 1126 721 1142 q 664 1100 686 1110 q 618 1090 642 1090 z "},"Ę":{"ha":964,"x_min":18,"x_max":1001,"o":"m 458 -299 q 391 -276 417 -299 q 365 -214 365 -253 q 378 -162 365 -193 q 438 -96 390 -132 l 560 0 l 138 0 q 18 101 18 0 q 22 142 18 121 l 153 885 q 318 1026 178 1026 l 882 1026 q 971 992 940 1026 q 1001 908 1001 957 q 989 846 1001 876 q 954 792 976 815 q 901 756 932 769 q 832 742 869 742 l 408 742 l 392 646 l 824 646 q 901 619 872 646 q 929 543 929 593 q 886 424 929 468 q 776 379 843 379 l 344 379 l 328 285 l 754 285 q 844 249 813 285 q 875 165 875 214 q 865 117 875 140 q 830 67 856 93 q 759 9 804 42 q 642 -67 714 -24 l 718 -67 q 792 -95 767 -67 q 817 -164 817 -124 q 807 -215 817 -190 q 778 -258 797 -239 q 734 -287 760 -276 q 678 -299 708 -299 l 458 -299 z "},"Ě":{"ha":964,"x_min":18,"x_max":1001,"o":"m 18 0 m 138 0 q 18 101 18 0 q 22 142 18 121 l 153 885 q 318 1026 178 1026 l 882 1026 q 971 992 940 1026 q 1001 908 1001 957 q 989 846 1001 876 q 954 792 976 815 q 901 756 932 769 q 832 742 869 742 l 408 742 l 392 646 l 824 646 q 900 619 872 646 q 928 542 928 593 q 885 423 928 467 q 776 379 843 379 l 344 379 l 328 285 l 754 285 q 844 249 813 285 q 875 165 875 214 q 863 102 875 132 q 827 49 850 72 q 773 13 804 26 q 704 0 742 0 l 138 0 m 682 1072 q 644 1056 664 1061 q 608 1050 624 1050 q 547 1072 575 1050 l 378 1215 q 349 1275 349 1240 q 357 1308 349 1292 q 379 1338 365 1325 q 410 1360 393 1351 q 446 1368 428 1368 q 468 1365 456 1368 q 492 1354 481 1363 l 646 1243 l 838 1354 q 864 1365 851 1363 q 886 1368 876 1368 q 938 1346 918 1368 q 957 1296 957 1324 q 942 1251 957 1272 q 903 1215 926 1231 l 682 1072 z "},"Ğ":{"ha":1117,"x_min":57,"x_max":1124,"o":"m 57 0 m 503 0 q 319 40 401 6 q 178 132 236 75 q 88 267 119 189 q 57 438 57 344 q 106 664 57 557 q 240 851 154 771 q 446 979 326 932 q 706 1026 565 1026 l 942 1026 q 1030 990 1000 1026 q 1060 904 1060 954 q 1047 842 1060 872 q 1013 790 1035 813 q 959 753 990 767 q 890 739 928 739 l 600 739 q 503 717 549 739 q 424 660 458 696 q 370 577 390 624 q 350 481 350 531 q 365 401 350 438 q 406 340 379 365 q 470 299 433 314 q 551 285 507 285 l 615 285 l 764 546 l 1014 546 q 1124 447 1124 546 q 1085 327 1124 369 q 968 285 1047 285 l 881 285 l 733 0 l 503 0 m 1076 1296 q 1051 1206 1076 1250 q 981 1128 1026 1163 q 871 1072 935 1093 q 729 1050 807 1050 q 615 1067 664 1050 q 531 1111 565 1083 q 478 1176 496 1139 q 461 1253 461 1213 q 490 1337 461 1306 q 572 1368 519 1368 q 626 1350 608 1368 q 646 1300 643 1332 q 674 1221 649 1249 q 754 1193 699 1193 q 845 1221 810 1193 q 901 1300 881 1249 q 938 1350 914 1332 q 997 1368 961 1368 q 1057 1348 1038 1368 q 1076 1296 1076 1328 z "},"Ġ":{"ha":1117,"x_min":57,"x_max":1124,"o":"m 57 0 m 503 0 q 319 40 401 6 q 178 132 236 75 q 88 267 119 189 q 57 438 57 344 q 106 664 57 557 q 240 851 154 771 q 446 979 326 932 q 706 1026 565 1026 l 942 1026 q 1030 990 1000 1026 q 1060 904 1060 954 q 1047 842 1060 872 q 1013 790 1035 813 q 959 753 990 767 q 890 739 928 739 l 600 739 q 503 717 549 739 q 424 660 458 696 q 370 577 390 624 q 350 481 350 531 q 365 401 350 438 q 406 340 379 365 q 470 299 433 314 q 551 285 507 285 l 615 285 l 764 546 l 1014 546 q 1124 447 1124 546 q 1085 327 1124 369 q 968 285 1047 285 l 881 285 l 733 0 l 503 0 m 722 1090 q 660 1117 685 1090 q 636 1181 636 1143 q 647 1224 636 1203 q 674 1263 657 1246 q 714 1289 692 1279 q 760 1299 736 1299 q 822 1272 797 1299 q 846 1208 846 1244 q 835 1163 846 1185 q 808 1126 825 1142 q 768 1100 790 1110 q 722 1090 746 1090 z "},"Ģ":{"ha":1117,"x_min":57,"x_max":1124,"o":"m 57 0 m 503 0 q 319 40 401 6 q 178 132 236 75 q 88 267 119 189 q 57 438 57 344 q 106 664 57 557 q 240 851 154 771 q 446 979 326 932 q 706 1026 565 1026 l 942 1026 q 1030 990 1000 1026 q 1060 904 1060 954 q 1047 842 1060 872 q 1013 790 1035 813 q 959 753 990 767 q 890 739 928 739 l 600 739 q 503 717 549 739 q 424 660 458 696 q 370 577 390 624 q 350 481 350 531 q 365 401 350 438 q 406 340 379 365 q 470 299 433 314 q 551 285 507 285 l 615 285 l 764 546 l 1014 546 q 1124 447 1124 546 q 1085 327 1124 369 q 968 285 1047 285 l 881 285 l 733 0 l 503 0 m 481 -253 q 397 -299 440 -299 q 347 -279 365 -299 q 329 -232 329 -260 q 334 -204 329 -217 q 347 -176 339 -192 l 406 -78 q 449 -32 422 -49 q 503 -15 475 -15 q 532 -21 517 -15 q 560 -37 547 -26 q 581 -62 572 -47 q 589 -96 589 -76 q 582 -128 589 -111 q 554 -169 575 -146 l 481 -253 z "},"Ħ":{"ha":929,"x_min":17,"x_max":1006,"o":"m 342 353 l 303 132 q 280 72 296 99 q 241 28 264 46 q 191 1 218 10 q 136 -8 164 -8 q 51 20 85 -8 q 17 101 17 49 q 17 109 17 104 q 21 133 18 114 q 30 191 24 153 q 49 299 36 229 q 79 474 61 368 q 125 732 97 579 q 86 759 99 739 q 74 806 74 779 q 97 872 74 842 q 160 913 119 903 q 220 1003 175 972 q 319 1035 265 1035 q 407 1004 374 1035 q 440 915 440 974 l 674 915 q 735 1004 690 974 q 833 1035 781 1035 q 922 1003 890 1035 q 953 913 953 972 q 992 884 979 906 q 1006 836 1006 863 q 983 771 1006 800 q 921 732 960 742 l 815 132 q 754 28 803 64 q 650 -8 706 -8 q 565 20 600 -8 q 531 103 531 49 q 531 114 531 107 q 536 145 532 121 q 549 218 540 169 q 572 353 557 267 l 342 353 m 621 624 l 639 729 l 408 729 l 390 624 l 621 624 z "},"Ĩ":{"ha":415,"x_min":17,"x_max":592,"o":"m 17 0 m 154 894 q 215 999 167 964 q 321 1035 263 1035 q 404 1007 369 1035 q 439 925 439 979 q 438 917 439 922 q 433 888 438 911 q 421 815 429 864 q 397 679 413 767 q 358 458 382 592 q 301 132 335 325 q 242 28 289 64 q 138 -8 194 -8 q 51 20 85 -8 q 17 103 17 49 q 17 111 17 106 q 22 140 18 117 q 35 213 26 164 q 58 348 43 261 q 97 568 74 435 q 154 894 119 701 m 190 1122 q 132 1145 151 1122 q 113 1200 113 1168 q 121 1240 113 1221 q 144 1275 129 1260 q 178 1299 158 1290 q 224 1308 199 1308 l 514 1308 q 572 1285 553 1308 q 592 1229 592 1261 q 560 1155 592 1188 q 481 1122 529 1122 l 190 1122 z "},"Ī":{"ha":415,"x_min":17,"x_max":592,"o":"m 154 894 q 215 999 167 964 q 321 1035 263 1035 q 404 1007 369 1035 q 439 925 439 979 q 438 917 439 922 q 433 888 438 911 q 421 815 429 864 q 397 679 413 767 q 358 458 382 592 q 301 132 335 325 q 242 28 289 64 q 138 -8 194 -8 q 51 20 85 -8 q 17 103 17 49 q 17 111 17 106 q 22 140 18 117 q 35 213 26 164 q 58 348 43 261 q 97 568 74 435 q 154 894 119 701 m 190 1122 q 132 1145 151 1122 q 113 1200 113 1168 q 121 1240 113 1221 q 144 1275 129 1260 q 178 1299 158 1290 q 224 1308 199 1308 l 514 1308 q 572 1285 553 1308 q 592 1229 592 1261 q 560 1155 592 1188 q 481 1122 529 1122 l 190 1122 z "},"Ĭ":{"ha":522,"x_min":69,"x_max":724,"o":"m 69 0 m 207 894 q 267 999 219 964 q 374 1035 315 1035 q 457 1007 422 1035 q 492 925 492 979 q 491 910 492 918 q 489 894 490 903 l 354 132 q 294 28 342 64 q 190 -8 247 -8 q 103 20 138 -8 q 69 103 69 49 q 70 117 69 110 q 72 132 71 125 l 207 894 m 724 1296 q 699 1206 724 1250 q 628 1128 674 1163 q 518 1072 582 1093 q 376 1050 454 1050 q 262 1067 311 1050 q 178 1111 213 1083 q 126 1176 143 1139 q 108 1253 108 1213 q 138 1337 108 1306 q 219 1368 167 1368 q 273 1350 256 1368 q 293 1300 290 1332 q 321 1221 296 1249 q 401 1193 346 1193 q 492 1221 457 1193 q 549 1300 528 1249 q 585 1350 561 1332 q 644 1368 608 1368 q 704 1348 685 1368 q 724 1296 724 1328 z "},"Į":{"ha":415,"x_min":-107,"x_max":440,"o":"m -15 -299 q -82 -276 -57 -299 q -107 -214 -107 -253 q -85 -144 -107 -174 q -36 -90 -62 -115 q 13 -41 -10 -65 q 35 14 35 -17 q 26 56 35 36 q 18 106 18 75 q 19 113 18 107 q 24 142 19 118 q 36 213 28 165 q 60 348 44 261 q 98 568 75 435 q 156 894 121 701 q 215 999 168 964 q 321 1035 263 1035 q 406 1007 371 1035 q 440 925 440 979 q 440 910 440 918 q 438 894 439 903 l 303 132 q 294 101 300 117 q 272 63 288 85 q 227 10 256 40 q 153 -67 199 -21 l 218 -67 q 292 -95 267 -67 q 317 -164 317 -124 q 306 -215 317 -190 q 278 -258 296 -239 q 233 -287 260 -276 q 176 -299 207 -299 l -15 -299 z "},"İ":{"ha":415,"x_min":17,"x_max":454,"o":"m 17 0 m 154 894 q 215 999 167 964 q 321 1035 263 1035 q 404 1007 369 1035 q 439 925 439 979 q 438 910 439 918 q 436 894 438 903 l 301 132 q 242 28 289 64 q 138 -8 194 -8 q 51 20 85 -8 q 17 103 17 49 q 17 117 17 110 q 19 132 18 125 l 154 894 m 331 1090 q 269 1117 293 1090 q 244 1181 244 1143 q 255 1224 244 1203 q 283 1263 265 1246 q 322 1289 300 1279 q 368 1299 344 1299 q 430 1272 406 1299 q 454 1208 454 1244 q 444 1163 454 1185 q 416 1126 433 1142 q 376 1100 399 1110 q 331 1090 354 1090 z "},"Ĳ":{"ha":806,"x_min":-37,"x_max":829,"o":"m 154 894 q 215 999 167 964 q 321 1035 263 1035 q 404 1007 369 1035 q 439 925 439 979 q 438 917 439 922 q 434 892 438 913 q 424 833 431 872 q 406 722 418 793 q 374 541 393 650 q 326 274 354 432 q 267 169 314 206 q 163 133 219 133 q 76 162 110 133 q 42 244 42 190 q 42 252 42 247 q 47 277 43 257 q 56 337 50 297 q 75 448 63 376 q 107 628 88 519 q 154 894 126 736 m 82 -299 q -7 -263 24 -299 q -37 -179 -37 -228 q -25 -117 -37 -147 q 10 -65 -12 -87 q 64 -28 33 -42 q 132 -14 94 -14 l 160 -14 q 349 49 286 -14 q 431 226 411 111 l 547 894 q 569 955 553 929 q 607 999 585 981 q 656 1026 629 1017 q 713 1035 683 1035 q 796 1007 763 1035 q 829 926 829 979 q 828 918 829 924 q 824 891 828 913 q 813 826 821 869 q 792 703 806 782 q 758 506 779 625 q 707 213 738 386 q 636 3 686 97 q 511 -158 586 -90 q 338 -262 436 -225 q 125 -299 240 -299 l 82 -299 z "},"Ķ":{"ha":868,"x_min":17,"x_max":931,"o":"m 17 0 m 344 371 l 301 132 q 242 28 289 64 q 138 -8 194 -8 q 51 20 85 -8 q 17 103 17 49 q 17 117 17 110 q 19 132 18 125 l 154 894 q 215 999 167 964 q 321 1035 263 1035 q 404 1007 369 1035 q 439 925 439 979 q 438 914 439 921 q 433 881 438 907 q 420 801 429 854 q 394 656 411 749 l 664 958 q 740 1020 706 1006 q 807 1035 774 1035 q 901 999 871 1035 q 931 918 931 963 q 918 860 931 889 q 865 792 906 832 l 592 518 l 775 236 q 801 151 801 193 q 788 92 801 121 q 749 42 774 64 q 694 6 725 19 q 631 -8 664 -8 q 570 6 599 -8 q 522 57 542 21 l 344 371 m 329 -253 q 246 -299 289 -299 q 196 -279 214 -299 q 178 -232 178 -260 q 183 -204 178 -217 q 196 -176 188 -192 l 254 -78 q 297 -32 271 -49 q 351 -15 324 -15 q 381 -21 365 -15 q 408 -37 396 -26 q 429 -62 421 -47 q 438 -96 438 -76 q 431 -128 438 -111 q 403 -169 424 -146 l 329 -253 z "},"Ĺ":{"ha":647,"x_min":18,"x_max":650,"o":"m 18 0 m 138 0 q 18 101 18 0 q 22 142 18 121 l 154 894 q 176 955 160 929 q 214 999 192 981 q 263 1026 236 1017 q 319 1035 290 1035 q 403 1007 368 1035 q 438 925 438 979 q 437 910 438 918 q 435 894 436 903 l 328 285 l 479 285 q 565 251 538 285 q 592 168 592 217 q 581 106 592 136 q 549 51 569 75 q 497 14 528 28 q 429 0 467 0 l 138 0 m 342 1057 q 292 1043 315 1043 q 243 1065 263 1043 q 224 1115 224 1088 q 238 1160 224 1139 q 276 1196 253 1181 l 511 1347 q 568 1367 542 1367 q 626 1344 601 1367 q 650 1281 650 1321 q 589 1188 650 1219 l 342 1057 z "},"Ļ":{"ha":647,"x_min":18,"x_max":592,"o":"m 18 0 m 138 0 q 18 101 18 0 q 22 142 18 121 l 154 894 q 176 955 160 929 q 214 999 192 981 q 263 1026 236 1017 q 319 1035 290 1035 q 403 1007 368 1035 q 438 925 438 979 q 437 910 438 918 q 435 894 436 903 l 328 285 l 479 285 q 565 251 538 285 q 592 168 592 217 q 581 106 592 136 q 549 51 569 75 q 497 14 528 28 q 429 0 467 0 l 138 0 m 246 -253 q 163 -299 206 -299 q 113 -279 131 -299 q 94 -232 94 -260 q 99 -204 94 -217 q 113 -176 104 -192 l 171 -78 q 214 -32 188 -49 q 268 -15 240 -15 q 297 -21 282 -15 q 325 -37 313 -26 q 346 -62 338 -47 q 354 -96 354 -76 q 347 -128 354 -111 q 319 -169 340 -146 l 246 -253 z "},"Ľ":{"ha":647,"x_min":18,"x_max":744,"o":"m 18 0 m 138 0 q 18 101 18 0 q 22 142 18 121 l 154 894 q 176 955 160 929 q 214 999 192 981 q 263 1026 236 1017 q 319 1035 290 1035 q 403 1007 368 1035 q 438 925 438 979 q 437 910 438 918 q 435 894 436 903 l 328 285 l 479 285 q 565 251 538 285 q 592 168 592 217 q 581 106 592 136 q 549 51 569 75 q 497 14 528 28 q 429 0 467 0 l 138 0 m 636 797 q 553 751 596 751 q 503 771 521 751 q 485 818 485 790 q 490 846 485 833 q 503 874 494 858 l 561 972 q 604 1018 578 1001 q 658 1035 631 1035 q 688 1029 672 1035 q 715 1013 703 1024 q 736 988 728 1003 q 744 954 744 974 q 738 922 744 939 q 710 881 731 904 l 636 797 z "},"Ł":{"ha":647,"x_min":18,"x_max":608,"o":"m 138 0 q 18 101 18 0 q 22 142 18 121 l 154 894 q 176 955 160 929 q 214 999 192 981 q 263 1026 236 1017 q 319 1035 290 1035 q 403 1007 368 1035 q 438 925 438 979 q 437 914 438 921 q 432 881 436 907 q 419 802 428 854 q 393 657 410 750 l 475 699 q 499 709 488 706 q 525 713 510 713 q 585 690 561 713 q 608 629 608 668 q 593 572 608 594 q 542 531 578 550 l 354 432 l 328 285 l 479 285 q 565 251 538 285 q 592 168 592 217 q 581 106 592 136 q 549 51 569 75 q 497 14 528 28 q 429 0 467 0 l 138 0 z "},"Ń":{"ha":929,"x_min":17,"x_max":953,"o":"m 17 0 m 356 435 l 301 132 q 242 28 289 64 q 136 -8 194 -8 q 51 20 85 -8 q 17 103 17 49 q 17 111 17 106 q 22 140 18 117 q 35 213 26 164 q 58 348 43 261 q 97 568 74 435 q 154 894 119 701 q 214 999 167 964 q 319 1035 261 1035 q 390 1016 367 1035 q 428 963 413 997 l 610 572 l 667 894 q 689 955 672 929 q 728 999 706 981 q 778 1026 751 1017 q 833 1035 806 1035 q 919 1007 885 1035 q 953 925 953 979 q 952 917 953 922 q 947 888 951 911 q 935 815 943 864 q 911 679 926 767 q 872 458 896 592 q 815 132 849 325 q 756 28 803 64 q 650 -8 708 -8 q 567 14 593 -8 q 528 67 542 36 l 356 435 m 553 1057 q 503 1043 526 1043 q 454 1065 474 1043 q 435 1115 435 1088 q 449 1160 435 1139 q 488 1196 464 1181 l 722 1347 q 779 1367 753 1367 q 837 1344 813 1367 q 861 1281 861 1321 q 800 1188 861 1219 l 553 1057 z "},"Ņ":{"ha":929,"x_min":17,"x_max":953,"o":"m 17 0 m 356 435 l 301 132 q 242 28 289 64 q 136 -8 194 -8 q 51 20 85 -8 q 17 103 17 49 q 17 111 17 106 q 22 140 18 117 q 35 213 26 164 q 58 348 43 261 q 97 568 74 435 q 154 894 119 701 q 214 999 167 964 q 319 1035 261 1035 q 390 1016 367 1035 q 428 963 413 997 l 610 572 l 667 894 q 689 955 672 929 q 728 999 706 981 q 778 1026 751 1017 q 833 1035 806 1035 q 919 1007 885 1035 q 953 925 953 979 q 952 917 953 922 q 947 888 951 911 q 935 815 943 864 q 911 679 926 767 q 872 458 896 592 q 815 132 849 325 q 756 28 803 64 q 650 -8 708 -8 q 567 14 593 -8 q 528 67 542 36 l 356 435 m 360 -253 q 276 -299 319 -299 q 226 -279 244 -299 q 208 -232 208 -260 q 213 -204 208 -217 q 226 -176 218 -192 l 285 -78 q 328 -32 301 -49 q 382 -15 354 -15 q 411 -21 396 -15 q 439 -37 426 -26 q 460 -62 451 -47 q 468 -96 468 -76 q 461 -128 468 -111 q 433 -169 454 -146 l 360 -253 z "},"Ň":{"ha":929,"x_min":17,"x_max":953,"o":"m 17 0 m 356 435 l 301 132 q 242 28 289 64 q 136 -8 194 -8 q 51 20 85 -8 q 17 103 17 49 q 17 111 17 106 q 22 140 18 117 q 35 213 26 164 q 58 348 43 261 q 97 568 74 435 q 154 894 119 701 q 214 999 167 964 q 319 1035 261 1035 q 390 1016 367 1035 q 428 963 413 997 l 610 572 l 667 894 q 689 955 672 929 q 728 999 706 981 q 778 1026 751 1017 q 833 1035 806 1035 q 919 1007 885 1035 q 953 925 953 979 q 952 917 953 922 q 947 888 951 911 q 935 815 943 864 q 911 679 926 767 q 872 458 896 592 q 815 132 849 325 q 756 28 803 64 q 650 -8 708 -8 q 567 14 593 -8 q 528 67 542 36 l 356 435 m 650 1072 q 612 1056 632 1061 q 576 1050 592 1050 q 515 1072 543 1050 l 346 1215 q 317 1275 317 1240 q 325 1308 317 1292 q 347 1338 333 1325 q 378 1360 361 1351 q 414 1368 396 1368 q 436 1365 424 1368 q 460 1354 449 1363 l 614 1243 l 806 1354 q 832 1365 819 1363 q 854 1368 844 1368 q 906 1346 886 1368 q 925 1296 925 1324 q 910 1251 925 1272 q 871 1215 894 1231 l 650 1072 z "},"Ŋ":{"ha":929,"x_min":24,"x_max":953,"o":"m 206 -299 q 117 -263 147 -299 q 86 -179 86 -228 q 99 -117 86 -147 q 134 -65 111 -87 q 188 -28 157 -42 q 256 -14 218 -14 q 407 10 343 -14 q 511 101 471 35 l 356 435 l 307 164 q 247 60 294 96 q 142 24 200 24 q 58 52 92 24 q 24 133 24 81 q 24 142 24 136 q 28 170 25 147 q 40 240 32 193 q 63 369 49 286 q 100 581 78 453 q 154 894 122 708 q 176 955 160 929 q 214 999 192 981 q 264 1026 236 1017 q 322 1035 292 1035 q 390 1016 367 1035 q 428 963 413 997 l 610 572 l 667 894 q 689 955 672 929 q 728 999 706 981 q 778 1026 751 1017 q 835 1035 806 1035 q 919 1007 885 1035 q 953 925 953 979 q 952 910 953 918 q 950 894 951 903 l 831 213 q 759 4 810 99 q 629 -158 708 -90 q 443 -262 550 -225 q 206 -299 336 -299 z "},"Ō":{"ha":1139,"x_min":57,"x_max":1124,"o":"m 57 0 m 833 544 q 819 625 833 588 q 778 690 804 663 q 715 735 751 718 q 633 751 678 751 q 528 729 579 751 q 437 669 476 707 q 374 581 397 631 q 350 475 350 531 q 365 395 350 432 q 405 331 379 358 q 467 287 431 303 q 549 271 504 271 q 654 292 603 271 q 745 351 706 314 q 809 439 785 389 q 833 544 833 489 m 1124 589 q 1071 357 1124 467 q 931 165 1018 247 q 730 35 843 83 q 496 -14 617 -14 q 319 22 400 -14 q 181 118 239 57 q 90 261 122 179 q 57 438 57 343 q 110 669 57 560 q 249 860 163 778 q 449 992 336 943 q 682 1040 561 1040 q 860 1005 779 1040 q 1000 908 942 969 q 1091 765 1058 847 q 1124 589 1124 683 m 468 1122 q 410 1145 431 1122 q 390 1200 390 1168 q 399 1240 390 1221 q 422 1275 407 1260 q 456 1299 436 1290 q 501 1308 476 1308 l 958 1308 q 1017 1285 997 1308 q 1036 1229 1036 1261 q 1005 1155 1036 1188 q 925 1122 974 1122 l 468 1122 z "},"Ŏ":{"ha":1139,"x_min":57,"x_max":1124,"o":"m 57 0 m 833 544 q 819 625 833 588 q 778 690 804 663 q 715 735 751 718 q 633 751 678 751 q 528 729 579 751 q 437 669 476 707 q 374 581 397 631 q 350 475 350 531 q 365 395 350 432 q 405 331 379 358 q 467 287 431 303 q 549 271 504 271 q 654 292 603 271 q 745 351 706 314 q 809 439 785 389 q 833 544 833 489 m 1124 589 q 1071 357 1124 467 q 931 165 1018 247 q 730 35 843 83 q 496 -14 617 -14 q 319 22 400 -14 q 181 118 239 57 q 90 261 122 179 q 57 438 57 343 q 110 669 57 560 q 249 860 163 778 q 449 992 336 943 q 682 1040 561 1040 q 860 1005 779 1040 q 1000 908 942 969 q 1091 765 1058 847 q 1124 589 1124 683 m 1032 1296 q 1007 1206 1032 1250 q 936 1128 982 1163 q 826 1072 890 1093 q 685 1050 763 1050 q 570 1067 619 1050 q 486 1111 521 1083 q 434 1176 451 1139 q 417 1253 417 1213 q 446 1337 417 1306 q 528 1368 475 1368 q 581 1350 564 1368 q 601 1300 599 1332 q 629 1221 604 1249 q 710 1193 654 1193 q 801 1221 765 1193 q 857 1300 836 1249 q 893 1350 869 1332 q 953 1368 917 1368 q 1013 1348 993 1368 q 1032 1296 1032 1328 z "},"Ő":{"ha":1139,"x_min":57,"x_max":1124,"o":"m 57 0 m 833 544 q 819 625 833 588 q 778 690 804 663 q 715 735 751 718 q 633 751 678 751 q 528 729 579 751 q 437 669 476 707 q 374 581 397 631 q 350 475 350 531 q 365 395 350 432 q 405 331 379 358 q 467 287 431 303 q 549 271 504 271 q 654 292 603 271 q 745 351 706 314 q 809 439 785 389 q 833 544 833 489 m 1124 589 q 1071 357 1124 467 q 931 165 1018 247 q 730 35 843 83 q 496 -14 617 -14 q 319 22 400 -14 q 181 118 239 57 q 90 261 122 179 q 57 438 57 343 q 110 669 57 560 q 249 860 163 778 q 449 992 336 943 q 682 1040 561 1040 q 860 1005 779 1040 q 1000 908 942 969 q 1091 765 1058 847 q 1124 589 1124 683 m 868 1072 q 835 1055 850 1060 q 807 1050 819 1050 q 758 1070 779 1050 q 736 1121 736 1090 q 747 1159 736 1143 q 779 1194 758 1175 l 938 1338 q 971 1358 951 1349 q 1010 1368 990 1368 q 1064 1345 1038 1368 q 1090 1282 1090 1322 q 1079 1235 1090 1254 q 1042 1197 1068 1217 l 868 1072 m 549 1072 q 515 1055 531 1060 q 488 1050 500 1050 q 438 1070 460 1050 q 417 1121 417 1090 q 428 1159 417 1143 q 460 1194 439 1175 l 618 1338 q 651 1358 632 1349 q 690 1368 671 1368 q 744 1345 718 1368 q 771 1282 771 1322 q 760 1235 771 1254 q 722 1197 749 1217 l 549 1072 z "},"Œ":{"ha":1554,"x_min":57,"x_max":1592,"o":"m 538 0 q 333 33 422 0 q 182 126 243 67 q 89 265 121 185 q 57 436 57 344 q 103 661 57 554 q 237 849 150 768 q 446 978 324 931 q 719 1026 568 1026 l 1472 1026 q 1561 992 1531 1026 q 1592 908 1592 957 q 1579 846 1592 876 q 1544 792 1567 815 q 1491 756 1522 769 q 1422 742 1460 742 l 1013 742 l 996 646 l 1414 646 q 1490 619 1463 646 q 1518 542 1518 593 q 1476 423 1518 467 q 1367 379 1433 379 l 949 379 l 932 285 l 1344 285 q 1434 249 1403 285 q 1465 165 1465 214 q 1453 102 1465 132 q 1417 49 1440 72 q 1363 13 1394 26 q 1294 0 1332 0 l 538 0 m 731 739 l 649 739 q 524 717 579 739 q 430 660 468 696 q 371 578 392 625 q 350 479 350 531 q 406 340 350 396 q 568 285 463 285 l 650 285 l 731 739 z "},"Ŕ":{"ha":897,"x_min":71,"x_max":935,"o":"m 71 0 m 125 358 q 86 416 101 385 q 71 488 71 447 q 118 608 71 561 q 258 656 165 656 l 615 656 q 681 707 681 656 q 631 742 681 742 l 249 742 q 163 769 193 742 q 133 854 133 797 q 172 980 133 933 q 297 1026 210 1026 l 665 1026 q 935 774 935 1026 q 903 575 935 650 q 819 460 871 500 q 701 406 767 419 q 571 392 636 392 l 515 392 l 638 254 q 667 210 657 232 q 676 161 676 188 q 664 96 676 126 q 629 42 651 65 q 577 6 607 19 q 513 -8 547 -8 q 400 43 451 -8 l 125 358 m 494 1057 q 444 1043 468 1043 q 396 1065 415 1043 q 376 1115 376 1088 q 391 1160 376 1139 q 429 1196 406 1181 l 664 1347 q 721 1367 694 1367 q 778 1344 754 1367 q 803 1281 803 1321 q 742 1188 803 1219 l 494 1057 z "},"Ŗ":{"ha":897,"x_min":71,"x_max":935,"o":"m 71 0 m 125 358 q 86 416 101 385 q 71 488 71 447 q 118 608 71 561 q 258 656 165 656 l 615 656 q 681 707 681 656 q 631 742 681 742 l 249 742 q 163 769 193 742 q 133 854 133 797 q 172 980 133 933 q 297 1026 210 1026 l 665 1026 q 935 774 935 1026 q 903 575 935 650 q 819 460 871 500 q 701 406 767 419 q 571 392 636 392 l 515 392 l 638 254 q 667 210 657 232 q 676 161 676 188 q 664 96 676 126 q 629 42 651 65 q 577 6 607 19 q 513 -8 547 -8 q 400 43 451 -8 l 125 358 m 371 -253 q 288 -299 331 -299 q 238 -279 256 -299 q 219 -232 219 -260 q 224 -204 219 -217 q 238 -176 229 -192 l 296 -78 q 339 -32 313 -49 q 393 -15 365 -15 q 422 -21 407 -15 q 450 -37 438 -26 q 471 -62 463 -47 q 479 -96 479 -76 q 472 -128 479 -111 q 444 -169 465 -146 l 371 -253 z "},"Ř":{"ha":897,"x_min":71,"x_max":935,"o":"m 71 0 m 125 358 q 86 416 101 385 q 71 488 71 447 q 118 608 71 561 q 258 656 165 656 l 615 656 q 681 707 681 656 q 631 742 681 742 l 249 742 q 163 769 193 742 q 133 854 133 797 q 172 980 133 933 q 297 1026 210 1026 l 665 1026 q 935 774 935 1026 q 903 575 935 650 q 819 460 871 500 q 701 406 767 419 q 571 392 636 392 l 515 392 l 638 254 q 667 210 657 232 q 676 161 676 188 q 664 96 676 126 q 629 42 651 65 q 577 6 607 19 q 513 -8 547 -8 q 400 43 451 -8 l 125 358 m 635 1072 q 597 1056 617 1061 q 561 1050 576 1050 q 500 1072 528 1050 l 331 1215 q 301 1275 301 1240 q 310 1308 301 1292 q 332 1338 318 1325 q 363 1360 346 1351 q 399 1368 381 1368 q 421 1365 408 1368 q 444 1354 433 1363 l 599 1243 l 790 1354 q 817 1365 804 1363 q 839 1368 829 1368 q 890 1346 871 1368 q 910 1296 910 1324 q 894 1251 910 1272 q 856 1215 879 1231 l 635 1072 z "},"Ś":{"ha":926,"x_min":11,"x_max":907,"o":"m 11 0 m 126 0 q 11 106 11 0 q 52 237 11 189 q 178 285 93 285 l 558 285 q 625 336 625 285 q 574 371 625 371 l 342 371 q 151 435 214 371 q 89 621 89 499 q 185 919 89 813 q 479 1026 282 1026 l 792 1026 q 907 921 907 1026 q 865 790 907 838 q 739 742 824 742 l 408 742 q 343 690 343 742 q 393 656 343 656 l 626 656 q 817 591 754 656 q 879 404 879 526 q 785 107 879 214 q 493 0 690 0 l 126 0 m 551 1057 q 501 1043 525 1043 q 453 1065 472 1043 q 433 1115 433 1088 q 448 1160 433 1139 q 486 1196 463 1181 l 721 1347 q 778 1367 751 1367 q 835 1344 811 1367 q 860 1281 860 1321 q 799 1188 860 1219 l 551 1057 z "},"Ş":{"ha":926,"x_min":11,"x_max":907,"o":"m 11 0 m 126 0 q 11 106 11 0 q 52 237 11 189 q 178 285 93 285 l 558 285 q 625 336 625 285 q 574 371 625 371 l 342 371 q 151 435 214 371 q 89 621 89 499 q 185 919 89 813 q 479 1026 282 1026 l 792 1026 q 907 921 907 1026 q 865 790 907 838 q 739 742 824 742 l 408 742 q 343 690 343 742 q 393 656 343 656 l 626 656 q 817 591 754 656 q 879 404 879 526 q 785 107 879 214 q 493 0 690 0 l 126 0 m 358 -253 q 275 -299 318 -299 q 225 -279 243 -299 q 207 -232 207 -260 q 212 -204 207 -217 q 225 -176 217 -192 l 283 -78 q 326 -32 300 -49 q 381 -15 353 -15 q 410 -21 394 -15 q 438 -37 425 -26 q 458 -62 450 -47 q 467 -96 467 -76 q 460 -128 467 -111 q 432 -169 453 -146 l 358 -253 z "},"Š":{"ha":926,"x_min":11,"x_max":924,"o":"m 11 0 m 126 0 q 11 106 11 0 q 52 237 11 189 q 178 285 93 285 l 558 285 q 625 336 625 285 q 574 371 625 371 l 342 371 q 151 435 214 371 q 89 621 89 499 q 185 919 89 813 q 479 1026 282 1026 l 792 1026 q 907 921 907 1026 q 865 790 907 838 q 739 742 824 742 l 408 742 q 343 690 343 742 q 393 656 343 656 l 626 656 q 817 591 754 656 q 879 404 879 526 q 785 107 879 214 q 493 0 690 0 l 126 0 m 649 1072 q 610 1056 631 1061 q 575 1050 590 1050 q 514 1072 542 1050 l 344 1215 q 315 1275 315 1240 q 324 1308 315 1292 q 346 1338 332 1325 q 377 1360 360 1351 q 413 1368 394 1368 q 435 1365 422 1368 q 458 1354 447 1363 l 613 1243 l 804 1354 q 831 1365 818 1363 q 853 1368 843 1368 q 904 1346 885 1368 q 924 1296 924 1324 q 908 1251 924 1272 q 869 1215 893 1231 l 649 1072 z "},"Ţ":{"ha":793,"x_min":99,"x_max":869,"o":"m 99 0 m 219 742 q 129 778 160 742 q 99 863 99 814 q 111 924 99 894 q 147 977 124 954 q 201 1013 169 1000 q 269 1026 232 1026 l 749 1026 q 838 992 807 1026 q 869 907 869 957 q 857 845 869 875 q 822 792 844 815 q 767 756 799 769 q 699 742 736 742 l 600 742 l 493 133 q 432 29 481 65 q 328 -7 383 -7 q 242 22 276 -7 q 208 103 208 50 q 209 110 208 106 q 213 135 210 115 q 222 194 215 154 q 241 303 229 233 q 272 480 253 374 q 318 742 290 586 l 219 742 m 279 -253 q 196 -299 239 -299 q 146 -279 164 -299 q 128 -232 128 -260 q 133 -204 128 -217 q 146 -176 138 -192 l 204 -78 q 247 -32 221 -49 q 301 -15 274 -15 q 331 -21 315 -15 q 358 -37 346 -26 q 379 -62 371 -47 q 388 -96 388 -76 q 381 -128 388 -111 q 353 -169 374 -146 l 279 -253 z "},"Ť":{"ha":793,"x_min":99,"x_max":869,"o":"m 99 0 m 219 742 q 129 778 160 742 q 99 863 99 814 q 111 924 99 894 q 147 977 124 954 q 201 1013 169 1000 q 269 1026 232 1026 l 749 1026 q 838 992 807 1026 q 869 907 869 957 q 857 845 869 875 q 822 792 844 815 q 767 756 799 769 q 699 742 736 742 l 600 742 l 493 133 q 432 29 481 65 q 328 -7 383 -7 q 242 22 276 -7 q 208 103 208 50 q 209 110 208 106 q 213 135 210 115 q 222 194 215 154 q 241 303 229 233 q 272 480 253 374 q 318 742 290 586 l 219 742 m 582 1072 q 544 1056 564 1061 q 508 1050 524 1050 q 447 1072 475 1050 l 278 1215 q 249 1275 249 1240 q 257 1308 249 1292 q 279 1338 265 1325 q 310 1360 293 1351 q 346 1368 328 1368 q 368 1365 356 1368 q 392 1354 381 1363 l 546 1243 l 738 1354 q 764 1365 751 1363 q 786 1368 776 1368 q 838 1346 818 1368 q 857 1296 857 1324 q 842 1251 857 1272 q 803 1215 826 1231 l 582 1072 z "},"Ŧ":{"ha":793,"x_min":96,"x_max":868,"o":"m 544 428 l 493 133 q 472 74 488 100 q 433 29 456 47 q 383 2 410 11 q 326 -7 356 -7 q 242 22 275 -7 q 208 104 208 50 q 209 115 208 107 q 215 155 210 124 q 232 249 221 186 q 263 428 243 313 l 174 428 q 116 451 136 428 q 96 506 96 474 q 104 546 96 526 q 127 581 113 565 q 162 605 142 596 q 207 614 182 614 l 296 614 l 318 742 l 218 742 q 129 778 160 742 q 99 863 99 814 q 111 924 99 894 q 146 977 124 954 q 199 1013 168 1000 q 268 1026 231 1026 l 747 1026 q 838 992 807 1026 q 868 907 868 957 q 856 845 868 875 q 820 792 843 815 q 766 756 797 769 q 697 742 735 742 l 600 742 l 578 614 l 664 614 q 722 590 703 614 q 742 535 742 567 q 711 460 742 493 q 631 428 681 428 l 544 428 z "},"Ũ":{"ha":917,"x_min":53,"x_max":947,"o":"m 53 0 m 661 894 q 683 955 667 929 q 722 999 699 981 q 772 1026 744 1017 q 826 1035 799 1035 q 913 1007 878 1035 q 947 925 947 979 q 947 918 947 922 q 944 899 946 914 q 936 853 942 883 q 922 770 931 824 q 899 636 913 717 q 864 439 885 556 q 388 -14 785 -14 q 53 300 53 -14 q 53 323 53 310 q 58 360 54 336 q 67 424 61 385 q 83 525 72 463 q 109 678 93 588 q 147 894 125 768 q 208 999 160 963 q 314 1035 257 1035 q 399 1007 365 1035 q 433 925 433 979 q 433 917 433 922 q 429 897 432 913 q 422 848 426 881 q 406 758 417 815 q 381 612 396 700 q 343 396 365 524 q 339 357 339 375 q 436 268 339 268 q 574 396 551 268 l 661 894 m 357 1122 q 299 1145 319 1122 q 279 1200 279 1168 q 288 1240 279 1221 q 310 1275 296 1260 q 345 1299 325 1290 q 390 1308 365 1308 l 847 1308 q 906 1285 886 1308 q 925 1229 925 1261 q 894 1155 925 1188 q 814 1122 863 1122 l 357 1122 z "},"Ū":{"ha":917,"x_min":53,"x_max":947,"o":"m 53 0 m 661 894 q 683 955 667 929 q 722 999 699 981 q 772 1026 744 1017 q 826 1035 799 1035 q 913 1007 878 1035 q 947 925 947 979 q 947 918 947 922 q 944 899 946 914 q 936 853 942 883 q 922 770 931 824 q 899 636 913 717 q 864 439 885 556 q 388 -14 785 -14 q 53 300 53 -14 q 53 323 53 310 q 58 360 54 336 q 67 424 61 385 q 83 525 72 463 q 109 678 93 588 q 147 894 125 768 q 208 999 160 963 q 314 1035 257 1035 q 399 1007 365 1035 q 433 925 433 979 q 433 917 433 922 q 429 897 432 913 q 422 848 426 881 q 406 758 417 815 q 381 612 396 700 q 343 396 365 524 q 339 357 339 375 q 436 268 339 268 q 574 396 551 268 l 661 894 m 357 1122 q 299 1145 319 1122 q 279 1200 279 1168 q 288 1240 279 1221 q 310 1275 296 1260 q 345 1299 325 1290 q 390 1308 365 1308 l 847 1308 q 906 1285 886 1308 q 925 1229 925 1261 q 894 1155 925 1188 q 814 1122 863 1122 l 357 1122 z "},"Ů":{"ha":917,"x_min":53,"x_max":947,"o":"m 53 0 m 661 894 q 683 955 667 929 q 722 999 699 981 q 772 1026 744 1017 q 826 1035 799 1035 q 913 1007 878 1035 q 947 925 947 979 q 947 918 947 922 q 944 899 946 914 q 936 853 942 883 q 922 770 931 824 q 899 636 913 717 q 864 439 885 556 q 388 -14 785 -14 q 53 300 53 -14 q 53 323 53 310 q 58 360 54 336 q 67 424 61 385 q 83 525 72 463 q 109 678 93 588 q 147 894 125 768 q 208 999 160 963 q 314 1035 257 1035 q 399 1007 365 1035 q 433 925 433 979 q 433 917 433 922 q 429 897 432 913 q 422 848 426 881 q 406 758 417 815 q 381 612 396 700 q 343 396 365 524 q 339 357 339 375 q 436 268 339 268 q 574 396 551 268 l 661 894 m 665 1214 q 651 1253 665 1238 q 613 1269 636 1269 q 560 1247 583 1269 q 536 1196 536 1225 q 551 1156 536 1172 q 590 1140 567 1140 q 642 1162 619 1140 q 665 1214 665 1183 m 765 1229 q 749 1158 765 1192 q 705 1098 732 1124 q 643 1058 678 1072 q 571 1043 608 1043 q 474 1083 511 1043 q 436 1182 436 1124 q 452 1253 436 1219 q 495 1313 468 1288 q 556 1353 522 1339 q 628 1368 590 1368 q 727 1328 689 1368 q 765 1229 765 1288 z "},"Ű":{"ha":917,"x_min":53,"x_max":979,"o":"m 53 0 m 661 894 q 683 955 667 929 q 722 999 699 981 q 772 1026 744 1017 q 826 1035 799 1035 q 913 1007 878 1035 q 947 925 947 979 q 947 918 947 922 q 944 899 946 914 q 936 853 942 883 q 922 770 931 824 q 899 636 913 717 q 864 439 885 556 q 388 -14 785 -14 q 53 300 53 -14 q 53 323 53 310 q 58 360 54 336 q 67 424 61 385 q 83 525 72 463 q 109 678 93 588 q 147 894 125 768 q 208 999 160 963 q 314 1035 257 1035 q 399 1007 365 1035 q 433 925 433 979 q 433 917 433 922 q 429 897 432 913 q 422 848 426 881 q 406 758 417 815 q 381 612 396 700 q 343 396 365 524 q 339 357 339 375 q 436 268 339 268 q 574 396 551 268 l 661 894 m 757 1072 q 724 1055 739 1060 q 696 1050 708 1050 q 647 1070 668 1050 q 625 1121 625 1090 q 636 1159 625 1143 q 668 1194 647 1175 l 826 1338 q 860 1358 840 1349 q 899 1368 879 1368 q 953 1345 926 1368 q 979 1282 979 1322 q 968 1235 979 1254 q 931 1197 957 1217 l 757 1072 m 438 1072 q 404 1055 419 1060 q 376 1050 389 1050 q 327 1070 349 1050 q 306 1121 306 1090 q 317 1159 306 1143 q 349 1194 328 1175 l 507 1338 q 540 1358 521 1349 q 579 1368 560 1368 q 633 1345 607 1368 q 660 1282 660 1322 q 649 1235 660 1254 q 611 1197 638 1217 l 438 1072 z "},"Ų":{"ha":917,"x_min":53,"x_max":947,"o":"m 222 -299 q 155 -276 181 -299 q 129 -214 129 -253 q 140 -165 129 -193 q 200 -96 151 -136 l 308 -8 q 53 299 53 25 q 53 323 53 310 q 57 360 54 336 q 66 422 60 383 q 83 524 72 461 q 109 678 93 588 q 147 894 125 768 q 208 999 160 963 q 314 1035 257 1035 q 399 1007 365 1035 q 433 925 433 979 q 433 917 433 922 q 429 897 432 913 q 422 848 426 881 q 406 758 417 815 q 381 612 396 700 q 343 396 365 524 q 339 357 339 375 q 436 268 339 268 q 574 396 551 268 l 661 894 q 683 955 667 929 q 722 999 699 981 q 772 1026 744 1017 q 826 1035 799 1035 q 913 1007 878 1035 q 947 925 947 979 q 947 910 947 918 q 944 894 946 903 l 864 439 q 478 -7 793 39 l 404 -67 l 482 -67 q 556 -95 531 -67 q 581 -164 581 -124 q 571 -215 581 -190 q 542 -258 561 -239 q 498 -287 524 -276 q 442 -299 472 -299 l 222 -299 z "},"Ŵ":{"ha":1258,"x_min":110,"x_max":1283,"o":"m 110 0 m 315 0 q 228 35 264 0 q 185 136 192 69 l 111 857 q 110 869 110 863 q 110 882 110 876 q 125 944 110 915 q 165 992 140 972 q 222 1024 190 1013 q 285 1035 253 1035 q 357 1012 325 1035 q 396 931 389 989 l 464 285 l 518 285 l 625 894 q 647 954 631 928 q 685 999 663 981 q 735 1026 708 1017 q 792 1035 763 1035 q 876 1006 842 1035 q 911 925 911 978 q 910 910 911 918 q 908 894 910 903 l 801 285 l 889 285 l 996 894 q 1017 954 1001 928 q 1056 999 1033 981 q 1106 1026 1079 1017 q 1163 1035 1133 1035 q 1249 1006 1214 1035 q 1283 922 1283 976 q 1283 908 1283 915 q 1281 894 1282 901 l 1147 142 q 979 0 1122 0 l 315 0 m 821 1175 l 629 1064 q 602 1053 615 1056 q 579 1050 589 1050 q 530 1072 549 1050 q 511 1122 511 1094 q 526 1167 511 1146 q 565 1203 540 1188 l 786 1346 q 824 1363 804 1357 q 858 1368 843 1368 q 918 1346 892 1368 l 1090 1203 q 1119 1143 1119 1178 q 1111 1110 1119 1126 q 1088 1080 1103 1093 q 1056 1058 1074 1067 q 1019 1050 1038 1050 q 998 1053 1010 1050 q 975 1064 986 1056 l 821 1175 z "},"Ŷ":{"ha":814,"x_min":97,"x_max":893,"o":"m 97 0 m 276 446 q 201 612 232 543 q 151 727 171 681 q 121 801 132 774 q 104 843 110 828 q 98 865 99 858 q 97 875 97 871 q 113 940 97 911 q 152 990 128 969 q 208 1023 176 1011 q 271 1035 239 1035 q 376 963 346 1035 l 468 739 l 636 963 q 768 1035 690 1035 q 862 998 831 1035 q 893 915 893 961 q 856 819 893 865 l 558 446 l 503 132 q 442 28 490 64 q 338 -8 394 -8 q 251 20 285 -8 q 218 103 218 49 q 219 117 218 110 q 221 132 219 124 l 276 446 m 543 1175 l 351 1064 q 324 1053 338 1056 q 301 1050 311 1050 q 252 1072 271 1050 q 233 1122 233 1094 q 248 1167 233 1146 q 288 1203 263 1188 l 508 1346 q 546 1363 526 1357 q 581 1368 565 1368 q 640 1346 614 1368 l 813 1203 q 842 1143 842 1178 q 833 1110 842 1126 q 810 1080 825 1093 q 778 1058 796 1067 q 742 1050 760 1050 q 720 1053 732 1050 q 697 1064 708 1056 l 543 1175 z "},"Ź":{"ha":890,"x_min":-18,"x_max":949,"o":"m 0 0 m 117 0 q 18 28 54 0 q -18 107 -18 56 q 2 183 -18 150 q 63 257 22 217 l 529 742 l 239 742 q 149 777 179 742 q 119 861 119 813 q 131 924 119 894 q 165 977 143 954 q 219 1013 188 1000 q 289 1026 250 1026 l 836 1026 q 917 999 885 1026 q 949 915 949 972 q 945 877 949 893 q 935 848 942 861 q 918 822 928 835 q 894 796 908 810 l 425 285 l 699 285 q 788 249 757 285 q 818 165 818 214 q 806 102 818 132 q 770 49 793 72 q 716 13 747 26 q 647 0 685 0 l 117 0 m 533 1057 q 483 1043 507 1043 q 435 1065 454 1043 q 415 1115 415 1088 q 430 1160 415 1139 q 468 1196 444 1181 l 703 1347 q 760 1367 733 1367 q 817 1344 793 1367 q 842 1281 842 1321 q 781 1188 842 1219 l 533 1057 z "},"Ż":{"ha":890,"x_min":-18,"x_max":949,"o":"m 0 0 m 117 0 q 18 28 54 0 q -18 107 -18 56 q 2 183 -18 150 q 63 257 22 217 l 529 742 l 239 742 q 149 777 179 742 q 119 861 119 813 q 131 924 119 894 q 165 977 143 954 q 219 1013 188 1000 q 289 1026 250 1026 l 836 1026 q 917 999 885 1026 q 949 915 949 972 q 945 877 949 893 q 935 848 942 861 q 918 822 928 835 q 894 796 908 810 l 425 285 l 699 285 q 788 249 757 285 q 818 165 818 214 q 806 102 818 132 q 770 49 793 72 q 716 13 747 26 q 647 0 685 0 l 117 0 m 568 1090 q 506 1117 531 1090 q 482 1181 482 1143 q 492 1224 482 1203 q 520 1263 503 1246 q 560 1289 538 1279 q 606 1299 582 1299 q 667 1272 643 1299 q 692 1208 692 1244 q 681 1163 692 1185 q 653 1126 671 1142 q 614 1100 636 1110 q 568 1090 592 1090 z "},"Ž":{"ha":890,"x_min":-18,"x_max":949,"o":"m 0 0 m 117 0 q 18 28 54 0 q -18 107 -18 56 q 2 183 -18 150 q 63 257 22 217 l 529 742 l 239 742 q 149 777 179 742 q 119 861 119 813 q 131 924 119 894 q 165 977 143 954 q 219 1013 188 1000 q 289 1026 250 1026 l 836 1026 q 917 999 885 1026 q 949 915 949 972 q 945 877 949 893 q 935 848 942 861 q 918 822 928 835 q 894 796 908 810 l 425 285 l 699 285 q 788 249 757 285 q 818 165 818 214 q 806 102 818 132 q 770 49 793 72 q 716 13 747 26 q 647 0 685 0 l 117 0 m 631 1072 q 592 1056 613 1061 q 557 1050 572 1050 q 496 1072 524 1050 l 326 1215 q 297 1275 297 1240 q 306 1308 297 1292 q 328 1338 314 1325 q 359 1360 342 1351 q 394 1368 376 1368 q 417 1365 404 1368 q 440 1354 429 1363 l 594 1243 l 786 1354 q 813 1365 800 1363 q 835 1368 825 1368 q 886 1346 867 1368 q 906 1296 906 1324 q 890 1251 906 1272 q 851 1215 875 1231 l 631 1072 z "},"ˆ":{"ha":661,"x_min":157,"x_max":765,"o":"m 467 1175 l 275 1064 q 248 1053 261 1056 q 225 1050 235 1050 q 176 1072 194 1050 q 157 1122 157 1094 q 172 1167 157 1146 q 211 1203 186 1188 l 432 1346 q 469 1363 450 1357 q 504 1368 489 1368 q 564 1346 538 1368 l 736 1203 q 765 1143 765 1178 q 757 1110 765 1126 q 734 1080 749 1093 q 701 1058 719 1067 q 665 1050 683 1050 q 644 1053 656 1050 q 621 1064 632 1056 l 467 1175 z "},"ˇ":{"ha":661,"x_min":183,"x_max":792,"o":"m 517 1072 q 478 1056 499 1061 q 443 1050 458 1050 q 382 1072 410 1050 l 213 1215 q 183 1275 183 1240 q 192 1308 183 1292 q 214 1338 200 1325 q 245 1360 228 1351 q 281 1368 263 1368 q 303 1365 290 1368 q 326 1354 315 1363 l 481 1243 l 672 1354 q 699 1365 686 1363 q 721 1368 711 1368 q 772 1346 753 1368 q 792 1296 792 1324 q 776 1251 792 1272 q 738 1215 761 1231 l 517 1072 z "},"˘":{"ha":667,"x_min":181,"x_max":796,"o":"m 796 1296 q 771 1206 796 1250 q 700 1128 746 1163 q 590 1072 654 1093 q 449 1050 526 1050 q 334 1067 383 1050 q 250 1111 285 1083 q 198 1176 215 1139 q 181 1253 181 1213 q 210 1337 181 1306 q 292 1368 239 1368 q 345 1350 328 1368 q 365 1300 363 1332 q 393 1221 368 1249 q 474 1193 418 1193 q 565 1221 529 1193 q 621 1300 600 1249 q 657 1350 633 1332 q 717 1368 681 1368 q 776 1348 757 1368 q 796 1296 796 1328 z "},"˙":{"ha":263,"x_min":168,"x_max":378,"o":"m 254 1090 q 192 1117 217 1090 q 168 1181 168 1143 q 178 1224 168 1203 q 206 1263 189 1246 q 246 1289 224 1279 q 292 1299 268 1299 q 353 1272 329 1299 q 378 1208 378 1244 q 367 1163 378 1185 q 340 1126 357 1142 q 300 1100 322 1110 q 254 1090 278 1090 z "},"˚":{"ha":379,"x_min":168,"x_max":497,"o":"m 397 1214 q 383 1253 397 1238 q 344 1269 368 1269 q 292 1247 315 1269 q 268 1196 268 1225 q 283 1156 268 1172 q 322 1140 299 1140 q 374 1162 351 1140 q 397 1214 397 1183 m 497 1229 q 481 1158 497 1192 q 437 1098 464 1124 q 375 1058 410 1072 q 303 1043 340 1043 q 206 1083 243 1043 q 168 1182 168 1124 q 184 1253 168 1219 q 227 1313 200 1288 q 288 1353 254 1339 q 360 1368 322 1368 q 459 1328 421 1368 q 497 1229 497 1288 z "},"˛":{"ha":500,"x_min":-78,"x_max":374,"o":"m 14 -299 q -53 -276 -28 -299 q -78 -214 -78 -253 q -67 -164 -78 -193 q -7 -96 -56 -135 l 113 0 l 279 0 l 197 -67 l 275 -67 q 349 -95 324 -67 q 374 -164 374 -124 q 363 -215 374 -190 q 335 -258 353 -239 q 290 -287 317 -276 q 233 -299 264 -299 l 14 -299 z "},"˜":{"ha":699,"x_min":171,"x_max":817,"o":"m 249 1122 q 191 1145 211 1122 q 171 1200 171 1168 q 179 1240 171 1221 q 202 1275 188 1260 q 237 1299 217 1290 q 282 1308 257 1308 l 739 1308 q 797 1285 778 1308 q 817 1229 817 1261 q 785 1155 817 1188 q 706 1122 754 1122 l 249 1122 z "},"˝":{"ha":703,"x_min":157,"x_max":831,"o":"m 608 1072 q 575 1055 590 1060 q 547 1050 560 1050 q 498 1070 519 1050 q 476 1121 476 1090 q 488 1159 476 1143 q 519 1194 499 1175 l 678 1338 q 711 1358 692 1349 q 750 1368 731 1368 q 804 1345 778 1368 q 831 1282 831 1322 q 819 1235 831 1254 q 782 1197 808 1217 l 608 1072 m 289 1072 q 256 1055 271 1060 q 228 1050 240 1050 q 178 1070 200 1050 q 157 1121 157 1090 q 168 1159 157 1143 q 200 1194 179 1175 l 358 1338 q 392 1358 372 1349 q 431 1368 411 1368 q 485 1345 458 1368 q 511 1282 511 1322 q 500 1235 511 1254 q 463 1197 489 1217 l 289 1072 z "},"̀":{"ha":0,"x_min":-572,"x_max":-196,"o":"m -196 1043 m -537 1188 q -564 1215 -556 1199 q -572 1250 -572 1232 q -562 1298 -572 1276 q -535 1335 -551 1319 q -498 1358 -518 1350 q -457 1367 -478 1367 q -406 1347 -429 1367 l -224 1196 q -196 1136 -196 1172 q -204 1101 -196 1118 q -226 1072 -212 1085 q -258 1051 -240 1058 q -294 1043 -276 1043 q -339 1057 -317 1043 l -537 1188 z "},"́":{"ha":0,"x_min":-514,"x_max":-87,"o":"m -87 1043 m -396 1057 q -446 1043 -422 1043 q -494 1065 -475 1043 q -514 1115 -514 1088 q -499 1160 -514 1139 q -461 1196 -485 1181 l -226 1347 q -169 1367 -196 1367 q -112 1344 -136 1367 q -87 1281 -87 1321 q -149 1188 -87 1219 l -396 1057 z "},"̂":{"ha":0,"x_min":-657,"x_max":-49,"o":"m -49 1050 m -347 1175 l -539 1064 q -566 1053 -553 1056 q -589 1050 -579 1050 q -638 1072 -619 1050 q -657 1122 -657 1094 q -642 1167 -657 1146 q -603 1203 -628 1188 l -382 1346 q -344 1363 -364 1357 q -310 1368 -325 1368 q -250 1346 -276 1368 l -78 1203 q -49 1143 -49 1178 q -57 1110 -49 1126 q -80 1080 -65 1093 q -112 1058 -94 1067 q -149 1050 -131 1050 q -170 1053 -158 1050 q -193 1064 -182 1056 l -347 1175 z "},"̃":{"ha":0,"x_min":-664,"x_max":-18,"o":"m -18 1122 m -586 1122 q -644 1145 -624 1122 q -664 1200 -664 1168 q -656 1240 -664 1221 q -633 1275 -647 1260 q -598 1299 -618 1290 q -553 1308 -578 1308 l -96 1308 q -37 1285 -57 1308 q -18 1229 -18 1261 q -49 1155 -18 1188 q -129 1122 -81 1122 l -586 1122 z "},"̄":{"ha":0,"x_min":-664,"x_max":-18,"o":"m -18 1122 m -586 1122 q -644 1145 -624 1122 q -664 1200 -664 1168 q -656 1240 -664 1221 q -633 1275 -647 1260 q -598 1299 -618 1290 q -553 1308 -578 1308 l -96 1308 q -37 1285 -57 1308 q -18 1229 -18 1261 q -49 1155 -18 1188 q -129 1122 -81 1122 l -586 1122 z "},"̆":{"ha":0,"x_min":-636,"x_max":-21,"o":"m -21 1050 m -21 1296 q -46 1206 -21 1250 q -117 1128 -71 1163 q -226 1072 -162 1093 q -368 1050 -290 1050 q -483 1067 -433 1050 q -567 1111 -532 1083 q -619 1176 -601 1139 q -636 1253 -636 1213 q -607 1337 -636 1306 q -525 1368 -578 1368 q -472 1350 -489 1368 q -451 1300 -454 1332 q -424 1221 -449 1249 q -343 1193 -399 1193 q -252 1221 -287 1193 q -196 1300 -217 1249 q -160 1350 -183 1332 q -100 1368 -136 1368 q -40 1348 -60 1368 q -21 1296 -21 1328 z "},"̇":{"ha":0,"x_min":-447,"x_max":-237,"o":"m -237 1090 m -361 1090 q -423 1117 -399 1090 q -447 1181 -447 1143 q -437 1224 -447 1203 q -409 1263 -426 1246 q -369 1289 -392 1279 q -324 1299 -347 1299 q -262 1272 -286 1299 q -237 1208 -237 1244 q -248 1163 -237 1185 q -276 1126 -258 1142 q -315 1100 -293 1110 q -361 1090 -337 1090 z "},"̈":{"ha":0,"x_min":-606,"x_max":-78,"o":"m -78 1090 m -519 1090 q -581 1117 -557 1090 q -606 1181 -606 1143 q -595 1224 -606 1203 q -567 1263 -585 1246 q -528 1289 -550 1279 q -482 1299 -506 1299 q -420 1272 -444 1299 q -396 1208 -396 1244 q -406 1163 -396 1185 q -434 1126 -417 1142 q -474 1100 -451 1110 q -519 1090 -496 1090 m -201 1090 q -264 1117 -240 1090 q -287 1179 -287 1143 q -277 1224 -287 1203 q -249 1263 -267 1246 q -210 1289 -232 1279 q -164 1299 -187 1299 q -101 1272 -125 1299 q -78 1208 -78 1244 q -88 1163 -78 1185 q -116 1126 -99 1142 q -156 1100 -133 1110 q -201 1090 -178 1090 z "},"̊":{"ha":0,"x_min":-506,"x_max":-176,"o":"m -176 1043 m -276 1214 q -291 1253 -276 1238 q -329 1269 -306 1269 q -382 1247 -358 1269 q -406 1196 -406 1225 q -390 1156 -406 1172 q -351 1140 -375 1140 q -299 1162 -322 1140 q -276 1214 -276 1183 m -176 1229 q -193 1158 -176 1192 q -237 1098 -210 1124 q -299 1058 -264 1072 q -371 1043 -333 1043 q -468 1083 -431 1043 q -506 1182 -506 1124 q -490 1253 -506 1219 q -447 1313 -474 1288 q -385 1353 -419 1339 q -314 1368 -351 1368 q -215 1328 -253 1368 q -176 1229 -176 1288 z "},"̋":{"ha":0,"x_min":-637,"x_max":36,"o":"m 0 1050 m -186 1072 q -219 1055 -204 1060 q -247 1050 -235 1050 q -297 1070 -275 1050 q -318 1121 -318 1090 q -307 1159 -318 1143 q -275 1194 -296 1175 l -117 1338 q -83 1358 -103 1349 q -44 1368 -64 1368 q 10 1345 -17 1368 q 36 1282 36 1322 q 25 1235 36 1254 q -12 1197 14 1217 l -186 1072 m -506 1072 q -539 1055 -524 1060 q -567 1050 -554 1050 q -616 1070 -594 1050 q -637 1121 -637 1090 q -626 1159 -637 1143 q -594 1194 -615 1175 l -436 1338 q -403 1358 -422 1349 q -364 1368 -383 1368 q -310 1345 -336 1368 q -283 1282 -283 1322 q -294 1235 -283 1254 q -332 1197 -306 1217 l -506 1072 z "},"̌":{"ha":0,"x_min":-631,"x_max":-22,"o":"m -22 1050 m -297 1072 q -335 1056 -315 1061 q -371 1050 -356 1050 q -432 1072 -404 1050 l -601 1215 q -631 1275 -631 1240 q -622 1308 -631 1292 q -600 1338 -614 1325 q -569 1360 -586 1351 q -533 1368 -551 1368 q -511 1365 -524 1368 q -487 1354 -499 1363 l -333 1243 l -142 1354 q -115 1365 -128 1363 q -93 1368 -103 1368 q -42 1346 -61 1368 q -22 1296 -22 1324 q -37 1251 -22 1272 q -76 1215 -53 1231 l -297 1072 z "},"̓":{"ha":0,"x_min":-461,"x_max":-201,"o":"m -310 1131 q -393 1085 -350 1085 q -443 1104 -425 1085 q -461 1151 -461 1124 q -456 1179 -461 1167 q -443 1207 -451 1192 l -385 1306 q -342 1351 -368 1335 q -287 1368 -315 1368 q -258 1363 -274 1368 q -231 1347 -243 1357 q -210 1322 -218 1336 q -201 1288 -201 1307 q -208 1255 -201 1272 q -236 1214 -215 1238 l -310 1131 z "},"̣":{"ha":0,"x_min":-685,"x_max":-475,"o":"m -597 -256 q -660 -229 -636 -256 q -685 -165 -685 -203 q -674 -122 -685 -143 q -647 -83 -664 -100 q -607 -57 -629 -67 q -561 -47 -585 -47 q -499 -74 -524 -47 q -475 -137 -475 -101 q -485 -183 -475 -161 q -513 -220 -496 -204 q -553 -246 -531 -236 q -597 -256 -575 -256 z "},"̦":{"ha":0,"x_min":-714,"x_max":-454,"o":"m -454 -15 m -562 -253 q -646 -299 -603 -299 q -696 -279 -678 -299 q -714 -232 -714 -260 q -709 -204 -714 -217 q -696 -176 -704 -192 l -637 -78 q -594 -32 -621 -49 q -540 -15 -568 -15 q -511 -21 -526 -15 q -483 -37 -496 -26 q -462 -62 -471 -47 q -454 -96 -454 -76 q -461 -128 -454 -111 q -489 -169 -468 -146 l -562 -253 z "},"̨":{"ha":0,"x_min":-811,"x_max":-360,"o":"m -360 0 m -719 -299 q -786 -276 -761 -299 q -811 -214 -811 -253 q -800 -164 -811 -193 q -740 -96 -789 -135 l -621 0 l -454 0 l -536 -67 l -458 -67 q -385 -95 -410 -67 q -360 -164 -360 -124 q -370 -215 -360 -190 q -399 -258 -381 -239 q -443 -287 -417 -276 q -500 -299 -469 -299 l -719 -299 z "},"̭":{"ha":0,"x_min":-860,"x_max":-331,"o":"m -589 -194 l -757 -287 q -779 -297 -768 -294 q -799 -299 -790 -299 q -842 -280 -825 -299 q -860 -237 -860 -261 q -847 -201 -860 -217 q -814 -172 -835 -186 l -621 -53 q -589 -39 -606 -43 q -560 -35 -572 -35 q -531 -39 -546 -35 q -506 -53 -517 -43 l -356 -172 q -331 -221 -331 -193 q -356 -274 -331 -250 q -415 -299 -382 -299 q -434 -297 -424 -299 q -454 -287 -444 -294 l -589 -194 z "},"֏":{"ha":957,"x_min":79,"x_max":935,"o":"m 779 113 q 717 22 763 53 q 618 -8 671 -8 q 533 22 567 -8 q 499 113 500 51 l 321 113 q 274 131 290 113 q 258 175 258 150 q 283 233 258 207 q 347 260 308 260 l 524 260 l 536 333 l 360 333 q 313 351 329 333 q 297 394 297 369 q 322 453 297 426 q 386 481 347 481 l 563 481 q 580 578 574 542 q 589 633 586 614 q 592 658 592 651 q 593 669 593 665 q 494 758 593 758 q 430 746 454 758 q 391 715 406 733 q 369 673 376 696 q 358 631 363 650 q 333 568 350 593 q 294 528 317 543 q 247 506 272 513 q 194 500 221 500 q 113 528 146 500 q 79 632 79 556 q 113 801 79 725 q 208 929 146 876 q 356 1011 269 982 q 547 1040 442 1040 q 878 728 878 1040 q 876 693 878 711 q 872 647 875 675 q 862 580 868 619 q 844 481 856 540 l 874 481 q 919 462 904 481 q 935 417 935 443 q 910 359 935 385 q 847 333 886 333 l 819 333 l 807 260 l 835 260 q 881 241 865 260 q 896 197 896 222 q 872 139 896 165 q 808 113 847 113 l 779 113 z "},"Ẁ":{"ha":1258,"x_min":110,"x_max":1283,"o":"m 110 0 m 315 0 q 228 35 264 0 q 185 136 192 69 l 111 857 q 110 869 110 863 q 110 882 110 876 q 125 944 110 915 q 165 992 140 972 q 222 1024 190 1013 q 285 1035 253 1035 q 357 1012 325 1035 q 396 931 389 989 l 464 285 l 518 285 l 625 894 q 647 954 631 928 q 685 999 663 981 q 735 1026 708 1017 q 792 1035 763 1035 q 876 1006 842 1035 q 911 925 911 978 q 910 910 911 918 q 908 894 910 903 l 801 285 l 889 285 l 996 894 q 1017 954 1001 928 q 1056 999 1033 981 q 1106 1026 1079 1017 q 1163 1035 1133 1035 q 1249 1006 1214 1035 q 1283 922 1283 976 q 1283 908 1283 915 q 1281 894 1282 901 l 1147 142 q 979 0 1122 0 l 315 0 m 640 1188 q 614 1215 622 1199 q 606 1250 606 1232 q 616 1298 606 1276 q 643 1335 626 1319 q 680 1358 660 1350 q 721 1367 700 1367 q 772 1347 749 1367 l 954 1196 q 982 1136 982 1172 q 974 1101 982 1118 q 951 1072 965 1085 q 919 1051 938 1058 q 883 1043 901 1043 q 839 1057 861 1043 l 640 1188 z "},"Ẃ":{"ha":1258,"x_min":110,"x_max":1283,"o":"m 110 0 m 315 0 q 228 35 264 0 q 185 136 192 69 l 111 857 q 110 869 110 863 q 110 882 110 876 q 125 944 110 915 q 165 992 140 972 q 222 1024 190 1013 q 285 1035 253 1035 q 357 1012 325 1035 q 396 931 389 989 l 464 285 l 518 285 l 625 894 q 647 954 631 928 q 685 999 663 981 q 735 1026 708 1017 q 792 1035 763 1035 q 876 1006 842 1035 q 911 925 911 978 q 910 910 911 918 q 908 894 910 903 l 801 285 l 889 285 l 996 894 q 1017 954 1001 928 q 1056 999 1033 981 q 1106 1026 1079 1017 q 1163 1035 1133 1035 q 1249 1006 1214 1035 q 1283 922 1283 976 q 1283 908 1283 915 q 1281 894 1282 901 l 1147 142 q 979 0 1122 0 l 315 0 m 757 1057 q 707 1043 731 1043 q 658 1065 678 1043 q 639 1115 639 1088 q 653 1160 639 1139 q 692 1196 668 1181 l 926 1347 q 983 1367 957 1367 q 1041 1344 1017 1367 q 1065 1281 1065 1321 q 1004 1188 1065 1219 l 757 1057 z "},"Ẅ":{"ha":1258,"x_min":110,"x_max":1283,"o":"m 110 0 m 315 0 q 228 35 264 0 q 185 136 192 69 l 111 857 q 110 869 110 863 q 110 882 110 876 q 125 944 110 915 q 165 992 140 972 q 222 1024 190 1013 q 285 1035 253 1035 q 357 1012 325 1035 q 396 931 389 989 l 464 285 l 518 285 l 625 894 q 647 954 631 928 q 685 999 663 981 q 735 1026 708 1017 q 792 1035 763 1035 q 876 1006 842 1035 q 911 925 911 978 q 910 910 911 918 q 908 894 910 903 l 801 285 l 889 285 l 996 894 q 1017 954 1001 928 q 1056 999 1033 981 q 1106 1026 1079 1017 q 1163 1035 1133 1035 q 1249 1006 1214 1035 q 1283 922 1283 976 q 1283 908 1283 915 q 1281 894 1282 901 l 1147 142 q 979 0 1122 0 l 315 0 m 647 1090 q 585 1117 610 1090 q 561 1181 561 1143 q 572 1224 561 1203 q 599 1263 582 1246 q 639 1289 617 1279 q 685 1299 661 1299 q 747 1272 722 1299 q 771 1208 771 1244 q 760 1163 771 1185 q 733 1126 750 1142 q 693 1100 715 1110 q 647 1090 671 1090 m 965 1090 q 903 1117 926 1090 q 879 1179 879 1143 q 890 1224 879 1203 q 917 1263 900 1246 q 957 1289 935 1279 q 1003 1299 979 1299 q 1065 1272 1042 1299 q 1089 1208 1089 1244 q 1078 1163 1089 1185 q 1051 1126 1068 1142 q 1011 1100 1033 1110 q 965 1090 989 1090 z "},"ẞ":{"ha":1046,"x_min":11,"x_max":1074,"o":"m 496 0 q 382 108 382 0 q 422 238 382 192 q 547 285 461 285 l 624 285 q 689 336 689 285 q 642 371 689 371 l 592 371 q 503 406 532 371 q 474 489 474 440 q 528 610 474 557 l 667 742 l 518 742 q 429 712 465 742 q 382 617 393 682 l 297 132 q 274 71 290 97 q 236 27 258 44 q 187 1 214 10 q 131 -8 160 -8 q 45 19 79 -8 q 11 101 11 47 q 12 108 11 104 q 15 127 13 113 q 22 171 17 142 q 35 252 26 200 q 58 382 44 304 q 92 574 71 460 q 568 1026 171 1026 l 960 1026 q 1042 999 1011 1026 q 1074 921 1074 972 q 1064 869 1074 897 q 1029 810 1054 840 l 801 536 q 934 469 885 521 q 983 321 983 417 q 965 197 983 256 q 910 95 947 139 q 815 26 872 51 q 678 0 757 0 l 496 0 z "},"‐":{"ha":581,"x_min":47,"x_max":575,"o":"m 47 414 m 132 414 q 69 439 90 414 q 47 497 47 464 q 56 541 47 519 q 81 579 65 563 q 119 606 97 596 q 167 615 140 615 l 492 615 q 554 590 533 615 q 575 529 575 564 q 542 449 575 485 q 457 414 510 414 l 132 414 z "},"–":{"ha":917,"x_min":47,"x_max":911,"o":"m 132 414 q 69 439 90 414 q 47 497 47 464 q 56 541 47 519 q 81 579 65 563 q 119 606 97 596 q 167 615 140 615 l 828 615 q 890 590 868 615 q 911 529 911 564 q 878 449 911 485 q 793 414 846 414 l 132 414 z "},"—":{"ha":1271,"x_min":47,"x_max":1265,"o":"m 132 414 q 69 439 90 414 q 47 497 47 464 q 56 541 47 519 q 81 579 65 563 q 119 606 97 596 q 167 615 140 615 l 1182 615 q 1244 590 1224 615 q 1265 529 1265 564 q 1257 486 1265 507 q 1233 449 1249 465 q 1195 424 1217 433 q 1147 414 1174 414 l 132 414 z "},"‘":{"ha":335,"x_min":90,"x_max":411,"o":"m 374 779 q 315 666 361 708 q 208 624 268 624 q 126 653 163 624 q 90 743 90 682 q 99 797 90 776 q 118 839 107 818 l 201 1006 q 251 1067 221 1044 q 325 1090 282 1090 q 389 1067 367 1090 q 411 1006 411 1044 q 410 997 411 1003 q 406 968 410 990 q 395 902 403 946 q 374 779 388 858 z "},"’":{"ha":335,"x_min":85,"x_max":408,"o":"m 296 708 q 247 647 276 669 q 174 624 217 624 q 108 646 132 624 q 85 708 85 668 q 85 717 85 711 q 90 746 86 724 q 102 812 94 768 q 124 935 110 856 q 183 1048 136 1006 q 290 1090 231 1090 q 334 1083 313 1090 q 372 1060 356 1075 q 399 1024 389 1046 q 408 971 408 1001 q 400 917 408 938 q 381 875 392 896 l 296 708 z "},"‚":{"ha":335,"x_min":-60,"x_max":264,"o":"m 0 0 m 146 278 q 190 270 168 278 q 228 248 211 263 q 254 211 244 233 q 264 158 264 189 q 260 126 264 142 q 245 83 257 110 q 211 13 233 57 q 151 -104 189 -32 q 102 -166 132 -143 q 29 -189 72 -189 q -36 -167 -12 -189 q -60 -104 -60 -144 q -59 -95 -60 -101 q -54 -67 -58 -89 q -42 -1 -50 -44 q -21 122 -35 43 q 39 235 -8 193 q 146 278 86 278 z "},"“":{"ha":669,"x_min":90,"x_max":746,"o":"m 90 624 m 374 779 q 315 666 361 708 q 208 624 268 624 q 126 653 163 624 q 90 743 90 682 q 99 797 90 776 q 118 839 107 818 l 201 1006 q 251 1067 221 1044 q 325 1090 282 1090 q 389 1067 367 1090 q 411 1006 411 1044 q 410 997 411 1003 q 406 968 410 990 q 395 902 403 946 q 374 779 388 858 m 708 779 q 649 666 696 708 q 543 624 603 624 q 461 653 497 624 q 425 743 425 682 q 433 797 425 776 q 453 839 442 818 l 536 1006 q 586 1067 556 1044 q 660 1090 617 1090 q 724 1067 701 1090 q 746 1006 746 1044 q 745 997 746 1003 q 741 968 744 990 q 730 902 738 946 q 708 779 722 858 z "},"”":{"ha":669,"x_min":85,"x_max":743,"o":"m 85 624 m 296 708 q 247 647 276 669 q 174 624 217 624 q 108 646 132 624 q 85 708 85 668 q 85 717 85 711 q 90 746 86 724 q 102 812 94 768 q 124 935 110 856 q 183 1048 136 1006 q 290 1090 231 1090 q 334 1083 313 1090 q 372 1060 356 1075 q 399 1024 389 1046 q 408 971 408 1001 q 400 917 408 938 q 381 875 392 896 l 296 708 m 631 708 q 581 647 611 669 q 508 624 551 624 q 443 646 467 624 q 419 708 419 668 q 420 717 419 711 q 425 746 421 724 q 437 812 429 768 q 458 935 444 856 q 518 1048 471 1006 q 625 1090 565 1090 q 669 1083 647 1090 q 707 1060 690 1075 q 733 1024 724 1046 q 743 971 743 1001 q 735 917 743 938 q 715 875 726 896 l 631 708 z "},"„":{"ha":669,"x_min":-60,"x_max":599,"o":"m 0 0 m 146 278 q 190 270 168 278 q 228 248 211 263 q 254 211 244 233 q 264 158 264 189 q 260 126 264 142 q 245 83 257 110 q 211 13 233 57 q 151 -104 189 -32 q 102 -166 132 -143 q 29 -189 72 -189 q -36 -167 -12 -189 q -60 -104 -60 -144 q -59 -95 -60 -101 q -54 -67 -58 -89 q -42 -1 -50 -44 q -21 122 -35 43 q 39 235 -8 193 q 146 278 86 278 m 481 278 q 524 270 503 278 q 563 248 546 263 q 589 211 579 233 q 599 158 599 189 q 595 126 599 142 q 580 83 592 110 q 546 13 568 57 q 486 -104 524 -32 q 437 -166 467 -143 q 364 -189 407 -189 q 299 -167 322 -189 q 275 -104 275 -144 q 276 -95 275 -101 q 281 -67 276 -89 q 292 -1 285 -44 q 314 122 300 43 q 374 235 326 193 q 481 278 421 278 z "},"†":{"ha":803,"x_min":88,"x_max":838,"o":"m 172 644 q 109 669 131 644 q 88 728 88 694 q 97 772 88 750 q 121 810 106 793 q 158 836 136 826 q 207 846 181 846 l 379 846 l 394 935 q 438 1008 403 982 q 513 1035 472 1035 q 573 1014 549 1035 q 597 954 597 993 q 597 948 597 951 q 595 934 597 944 q 590 903 593 924 q 581 846 586 882 l 753 846 q 816 820 794 846 q 838 760 838 794 q 828 717 838 738 q 804 680 819 696 q 767 654 789 664 q 718 644 744 644 l 546 644 l 449 93 q 405 18 440 44 q 329 -8 369 -8 q 269 13 293 -8 q 246 72 246 33 q 247 78 246 74 q 250 99 247 82 q 258 151 253 117 q 275 249 264 186 q 303 408 286 313 q 344 644 319 504 l 172 644 z "},"‡":{"ha":803,"x_min":7,"x_max":839,"o":"m 464 181 l 449 92 q 405 18 440 44 q 329 -8 369 -8 q 269 13 293 -8 q 246 71 246 33 q 246 78 246 74 q 248 92 246 82 q 253 124 250 103 q 263 181 256 144 l 90 181 q 28 206 50 181 q 7 267 7 232 q 40 347 7 311 q 126 382 74 382 l 299 382 l 344 644 l 172 644 q 109 669 131 644 q 88 728 88 694 q 97 772 88 750 q 122 810 106 793 q 160 836 138 826 q 208 846 182 846 l 381 846 l 396 935 q 439 1008 404 982 q 514 1035 474 1035 q 574 1014 550 1035 q 599 954 599 993 q 599 948 599 951 q 597 934 599 944 q 591 903 594 924 q 582 846 588 882 l 754 846 q 817 820 796 846 q 839 760 839 794 q 830 717 839 738 q 806 680 821 696 q 767 654 790 664 q 718 644 744 644 l 546 644 l 500 382 l 672 382 q 735 357 714 382 q 757 299 757 332 q 748 255 757 276 q 724 217 739 233 q 685 190 708 200 q 636 181 663 181 l 464 181 z "},"•":{"ha":761,"x_min":99,"x_max":736,"o":"m 736 650 q 704 512 736 576 q 620 398 672 447 q 501 320 568 349 q 361 292 433 292 q 255 313 303 292 q 172 369 207 333 q 118 454 138 406 q 99 560 99 503 q 130 698 99 632 q 213 813 161 764 q 333 890 265 861 q 471 919 400 919 q 578 899 529 919 q 662 841 626 878 q 717 755 697 804 q 736 650 736 706 z "},"…":{"ha":1013,"x_min":-21,"x_max":940,"o":"m 0 0 m 99 -8 q 13 28 46 -8 q -21 114 -21 64 q -6 176 -21 146 q 32 228 8 206 q 86 265 56 251 q 149 278 117 278 q 233 242 201 278 q 265 154 265 206 q 251 92 265 122 q 214 40 238 63 q 160 5 190 18 q 99 -8 131 -8 m 436 -8 q 350 28 383 -8 q 317 114 317 64 q 331 176 317 146 q 369 228 346 206 q 424 265 393 251 q 486 278 454 278 q 571 242 539 278 q 603 154 603 206 q 589 92 603 122 q 551 40 575 63 q 498 5 528 18 q 436 -8 468 -8 m 774 -8 q 688 28 721 -8 q 654 114 654 64 q 669 176 654 146 q 707 228 683 206 q 761 265 731 251 q 824 278 792 278 q 908 242 876 278 q 940 154 940 206 q 926 92 940 122 q 889 40 913 63 q 835 5 865 18 q 774 -8 806 -8 z "},"‹":{"ha":385,"x_min":6,"x_max":428,"o":"m 10 390 q 6 422 6 404 q 12 460 6 446 q 26 488 18 474 l 235 825 q 283 872 256 858 q 336 886 310 886 q 401 862 375 886 q 428 803 428 838 q 420 768 428 782 q 403 739 413 754 l 218 439 l 297 139 q 301 119 300 131 q 303 97 303 108 q 292 57 303 76 q 264 23 282 38 q 224 0 246 8 q 179 -8 201 -8 q 130 6 153 -8 q 99 53 107 19 l 10 390 z "},"›":{"ha":385,"x_min":-28,"x_max":394,"o":"m 165 53 q 117 6 144 19 q 64 -8 90 -8 q -1 16 25 -8 q -28 75 -28 40 q -19 110 -28 94 q -3 139 -11 125 l 182 439 l 103 739 q 98 757 100 747 q 96 778 96 767 q 107 819 96 800 q 135 853 118 839 q 175 877 153 868 q 221 886 197 886 q 269 872 247 886 q 301 825 292 858 l 390 488 q 394 454 394 471 q 390 426 394 443 q 374 390 386 410 l 165 53 z "},"⁄":{"ha":188,"x_min":-306,"x_max":535,"o":"m 351 983 q 397 1023 372 1011 q 446 1035 421 1035 q 508 1010 482 1035 q 535 949 535 985 q 528 916 535 931 q 508 883 521 901 l -125 43 q -170 4 -144 17 q -219 -8 -196 -8 q -282 19 -258 -8 q -306 81 -306 46 q -282 144 -306 113 l 351 983 z "},"⁰":{"ha":569,"x_min":97,"x_max":592,"o":"m 97 447 m 397 678 q 410 756 406 728 q 417 797 415 783 q 420 814 419 810 q 421 819 421 818 q 406 855 421 843 q 365 867 390 867 q 320 851 339 867 q 296 806 301 836 q 283 728 288 756 q 276 686 278 700 q 273 668 274 672 q 272 663 272 664 q 285 628 272 639 q 322 617 299 617 q 372 632 351 617 q 397 678 392 647 m 571 701 q 478 510 549 574 q 293 447 407 447 q 147 492 197 447 q 97 626 97 536 q 98 645 97 635 q 101 672 99 656 q 108 715 104 689 q 121 782 113 742 q 397 1035 169 1035 q 592 854 592 1035 q 591 836 592 846 q 588 810 590 826 q 582 767 586 793 q 571 701 578 742 z "},"⁴":{"ha":547,"x_min":103,"x_max":592,"o":"m 103 451 m 175 657 q 103 718 103 657 q 103 727 103 721 q 108 756 104 733 q 120 823 113 778 q 142 947 128 868 q 178 1011 149 990 q 242 1032 208 1032 q 292 1015 272 1032 q 313 965 313 999 q 312 959 313 963 q 309 942 311 956 q 303 901 307 928 q 290 828 299 875 l 399 828 l 419 947 q 456 1011 426 990 q 518 1032 485 1032 q 570 1015 549 1032 q 592 965 592 999 q 592 960 592 964 q 590 944 592 957 q 583 904 588 931 q 569 831 578 878 q 549 711 561 783 q 518 535 536 639 q 481 473 511 494 q 415 451 450 451 q 366 468 386 451 q 346 517 346 485 q 347 522 346 518 q 349 540 347 526 q 356 581 351 554 q 369 657 361 608 l 175 657 z "},"⁵":{"ha":565,"x_min":74,"x_max":608,"o":"m 74 456 m 151 456 q 74 522 74 456 q 101 599 74 571 q 182 626 128 626 l 388 626 q 414 654 414 626 q 396 671 414 671 l 143 671 q 110 701 110 671 q 110 709 110 703 q 116 742 111 715 q 131 827 121 769 q 160 989 140 885 q 204 1026 165 1026 l 540 1026 q 608 963 608 1026 q 583 885 608 914 q 510 857 558 857 l 307 857 l 299 814 l 421 814 q 531 783 494 814 q 567 685 567 753 q 514 517 567 579 q 349 456 461 456 l 151 456 z "},"⁶":{"ha":558,"x_min":88,"x_max":600,"o":"m 88 456 m 283 671 q 261 642 261 671 q 276 626 261 626 l 376 626 q 404 653 404 626 q 383 671 404 671 l 283 671 m 231 456 q 88 586 88 456 q 88 603 88 593 q 93 639 89 613 q 105 713 97 665 q 128 843 113 761 q 343 1026 158 1026 l 531 1026 q 582 1012 564 1026 q 600 964 600 997 q 575 885 600 914 q 499 857 550 857 l 324 857 q 294 833 299 857 l 290 808 l 410 808 q 557 679 557 808 q 503 515 557 575 q 338 456 449 456 l 231 456 z "},"⁷":{"ha":521,"x_min":71,"x_max":593,"o":"m 71 451 m 526 1026 q 574 1010 556 1026 q 593 963 593 994 q 586 927 593 940 q 567 899 579 914 l 231 504 q 189 465 208 479 q 142 451 169 451 q 88 472 106 451 q 71 519 71 492 q 76 549 71 531 q 101 589 82 567 l 347 857 l 192 857 q 139 878 157 857 q 121 929 121 900 q 149 997 121 968 q 222 1026 178 1026 l 526 1026 z "},"⁸":{"ha":540,"x_min":67,"x_max":592,"o":"m 67 456 m 317 857 q 290 831 290 857 q 310 814 290 814 l 375 814 q 401 840 401 814 q 382 857 401 857 l 317 857 m 285 671 q 257 643 257 671 q 276 626 257 626 l 342 626 q 368 654 368 626 q 350 671 368 671 l 285 671 m 190 456 q 95 489 124 456 q 67 575 67 522 q 98 683 67 642 q 176 743 129 724 q 114 844 114 764 q 124 914 114 881 q 157 972 135 947 q 213 1012 179 997 q 293 1026 247 1026 l 467 1026 q 563 993 533 1026 q 592 908 592 960 q 562 802 592 844 q 482 743 532 760 q 526 699 510 729 q 542 631 542 669 q 531 565 542 596 q 499 509 521 533 q 444 470 476 485 q 367 456 411 456 l 190 456 z "},"⁹":{"ha":558,"x_min":82,"x_max":589,"o":"m 82 456 m 307 857 q 279 831 279 857 q 299 814 279 814 l 393 814 q 415 842 415 814 q 401 857 415 857 l 307 857 m 151 456 q 82 521 82 456 q 107 598 82 569 q 183 626 132 626 l 354 626 q 382 650 378 626 l 386 676 l 267 676 q 121 807 121 676 q 176 968 121 910 q 339 1026 231 1026 l 446 1026 q 589 894 589 1026 q 588 878 589 888 q 583 844 588 869 q 571 770 579 818 q 549 639 563 722 q 333 456 517 456 l 151 456 z "},"₀":{"ha":569,"x_min":15,"x_max":510,"o":"m 315 222 q 328 300 324 272 q 335 341 333 328 q 338 358 338 354 q 339 364 339 363 q 324 399 339 388 q 283 411 308 411 q 238 396 257 411 q 214 350 219 381 q 201 272 206 300 q 194 231 196 244 q 191 213 192 217 q 190 207 190 208 q 203 172 190 183 q 240 161 217 161 q 290 176 269 161 q 315 222 310 192 m 489 246 q 396 55 467 118 q 211 -8 325 -8 q 65 36 115 -8 q 15 171 15 81 q 16 190 15 179 q 19 217 17 200 q 26 260 22 233 q 39 326 31 286 q 315 579 88 579 q 510 399 510 579 q 509 381 510 390 q 506 354 508 371 q 500 312 504 338 q 489 246 496 286 z "},"₁":{"ha":358,"x_min":22,"x_max":325,"o":"m 118 294 q 103 290 111 292 q 88 289 94 289 q 40 310 57 289 q 22 360 22 331 q 33 403 22 381 q 63 440 43 425 l 188 544 q 265 576 226 576 q 309 564 293 576 q 325 521 325 551 q 325 510 325 515 q 324 499 325 506 l 250 81 q 215 18 243 40 q 151 -4 186 -4 q 100 13 121 -4 q 79 63 79 31 q 80 69 79 64 q 84 97 81 75 q 95 165 88 119 q 118 294 103 211 z "},"₂":{"ha":568,"x_min":-18,"x_max":521,"o":"m 6 0 q -18 24 -18 0 q -17 28 -18 25 q -15 47 -17 32 q -7 95 -12 63 q 10 186 -1 128 q 214 365 40 365 l 339 365 q 365 392 365 365 q 347 408 365 408 l 142 408 q 69 471 69 408 q 94 544 69 518 q 168 571 119 571 l 365 571 q 521 429 521 571 q 471 265 521 322 q 313 208 421 208 l 186 208 q 160 186 164 208 l 157 167 l 386 167 q 465 100 465 167 q 438 26 465 51 q 358 0 411 0 l 6 0 z "},"₃":{"ha":529,"x_min":-17,"x_max":501,"o":"m 51 0 q -17 63 -17 0 q 8 138 -17 111 q 82 164 33 164 l 250 164 q 278 190 278 164 q 258 208 278 208 l 92 208 q 21 271 21 208 q 44 340 21 315 q 118 365 68 365 l 286 365 q 314 390 314 365 q 293 408 314 408 l 121 408 q 56 469 56 408 q 78 544 56 517 q 149 571 100 571 l 378 571 q 472 538 443 571 q 501 451 501 504 q 472 347 501 389 q 393 288 443 304 q 438 244 422 274 q 453 176 453 214 q 442 110 453 142 q 410 53 432 78 q 356 15 389 29 q 279 0 324 0 l 51 0 z "},"₄":{"ha":547,"x_min":22,"x_max":511,"o":"m 94 201 q 22 263 22 201 q 23 272 22 265 q 28 300 24 278 q 40 367 32 322 q 61 492 47 413 q 98 556 68 535 q 161 576 128 576 q 212 560 192 576 q 232 510 232 543 q 231 503 232 507 q 228 486 231 500 q 222 446 226 472 q 210 372 218 419 l 318 372 l 339 492 q 375 556 346 535 q 438 576 404 576 q 490 560 468 576 q 511 510 511 543 q 511 505 511 508 q 509 488 511 501 q 502 449 507 475 q 489 375 497 422 q 468 256 481 328 q 438 79 456 183 q 400 17 431 39 q 335 -4 369 -4 q 285 13 306 -4 q 265 61 265 29 q 266 67 265 63 q 269 85 267 71 q 276 126 271 99 q 289 201 281 153 l 94 201 z "},"₅":{"ha":565,"x_min":-7,"x_max":528,"o":"m 71 0 q -7 67 -7 0 q 20 143 -7 115 q 101 171 47 171 l 307 171 q 333 199 333 171 q 315 215 333 215 l 63 215 q 29 246 29 215 q 30 253 29 247 q 35 287 31 260 q 50 372 40 314 q 79 533 60 429 q 124 571 85 571 l 460 571 q 528 507 528 571 q 503 430 528 458 q 429 401 478 401 l 226 401 l 218 358 l 340 358 q 450 328 414 358 q 486 229 486 297 q 433 62 486 124 q 268 0 381 0 l 71 0 z "},"₆":{"ha":558,"x_min":7,"x_max":519,"o":"m 203 215 q 181 186 181 215 q 196 171 181 171 l 296 171 q 324 197 324 171 q 303 215 324 215 l 203 215 m 150 0 q 7 131 7 0 q 8 147 7 138 q 13 183 8 157 q 24 258 17 210 q 47 388 32 306 q 263 571 78 571 l 450 571 q 501 556 483 571 q 519 508 519 542 q 494 430 519 458 q 418 401 469 401 l 243 401 q 214 378 218 401 l 210 353 l 329 353 q 476 224 476 353 q 422 60 476 119 q 257 0 368 0 l 150 0 z "},"₇":{"ha":521,"x_min":-8,"x_max":514,"o":"m 447 571 q 495 555 476 571 q 514 507 514 539 q 507 472 514 485 q 488 443 500 458 l 151 49 q 110 10 129 24 q 63 -4 90 -4 q 9 16 26 -4 q -8 64 -8 36 q -3 93 -8 75 q 22 133 3 111 l 268 401 l 113 401 q 60 423 78 401 q 42 474 42 444 q 70 542 42 513 q 143 571 99 571 l 447 571 z "},"₈":{"ha":540,"x_min":-12,"x_max":513,"o":"m 238 401 q 211 375 211 401 q 231 358 211 358 l 296 358 q 322 385 322 358 q 303 401 322 401 l 238 401 m 206 215 q 178 188 178 215 q 197 171 178 171 l 263 171 q 289 199 289 171 q 271 215 289 215 l 206 215 m 111 0 q 16 33 44 0 q -12 119 -12 67 q 19 227 -12 186 q 97 288 50 268 q 35 389 35 308 q 45 458 35 425 q 78 517 56 492 q 134 556 100 542 q 214 571 168 571 l 388 571 q 483 538 454 571 q 513 453 513 504 q 483 347 513 389 q 403 288 453 304 q 447 244 431 274 q 463 175 463 214 q 452 109 463 140 q 419 53 442 78 q 365 15 397 29 q 288 0 332 0 l 111 0 z "},"₉":{"ha":558,"x_min":1,"x_max":508,"o":"m 226 401 q 199 375 199 401 q 218 358 199 358 l 313 358 q 335 386 335 358 q 321 401 335 401 l 226 401 m 71 0 q 1 65 1 0 q 26 142 1 114 q 103 171 51 171 l 274 171 q 301 194 297 171 l 306 221 l 186 221 q 40 351 40 221 q 95 513 40 454 q 258 571 150 571 l 365 571 q 508 439 508 571 q 508 423 508 432 q 503 388 507 414 q 490 315 499 363 q 468 183 482 267 q 253 0 436 0 l 71 0 z "},"₩":{"ha":1308,"x_min":42,"x_max":1347,"o":"m 217 0 q 94 103 94 0 q 95 115 94 107 q 101 151 96 124 q 115 233 106 179 q 142 383 125 288 q 65 408 89 383 q 42 467 42 433 q 51 510 42 489 q 77 549 60 532 q 119 575 94 565 q 176 585 144 585 l 190 661 q 111 686 135 661 q 88 744 88 711 q 97 788 88 767 q 123 826 106 810 q 167 853 140 843 q 226 863 193 863 q 291 994 242 954 q 397 1035 340 1035 q 483 1006 449 1035 q 518 922 518 976 q 517 905 518 915 q 510 863 515 894 l 597 863 q 662 994 613 954 q 768 1035 711 1035 q 854 1006 819 1035 q 889 922 889 976 q 888 905 889 915 q 881 863 886 894 l 968 863 q 1033 994 983 954 q 1139 1035 1082 1035 q 1225 1006 1190 1035 q 1260 922 1260 976 q 1258 905 1260 915 q 1251 863 1257 894 q 1325 837 1303 863 q 1347 776 1347 811 q 1313 697 1347 732 q 1215 661 1279 661 l 1201 585 q 1277 559 1254 585 q 1300 499 1300 533 q 1266 419 1300 454 q 1167 383 1232 383 l 1124 142 q 956 0 1099 0 l 217 0 m 494 285 l 513 383 l 425 383 l 407 285 l 494 285 m 865 285 l 883 383 l 796 383 l 778 285 l 865 285 m 460 585 l 547 585 l 561 661 l 474 661 l 460 585 m 831 585 l 918 585 l 932 661 l 844 661 l 831 585 z "},"₪":{"ha":1153,"x_min":4,"x_max":1182,"o":"m 551 0 q 311 226 311 0 q 313 253 311 238 q 319 307 314 269 q 336 412 325 344 q 368 593 347 479 q 411 669 376 643 q 489 694 446 694 q 550 675 525 694 q 575 615 575 656 q 575 605 575 610 q 574 593 575 600 q 542 415 553 478 q 526 320 531 351 q 519 281 521 289 q 518 271 518 274 q 588 207 518 207 l 850 207 l 978 933 q 1022 1009 986 983 q 1097 1035 1057 1035 q 1158 1015 1133 1035 q 1182 956 1182 994 q 1181 949 1182 954 q 1176 918 1181 943 q 1163 841 1172 893 q 1138 694 1154 789 q 1097 456 1122 600 q 1035 103 1071 313 q 915 0 1015 0 l 551 0 m 636 1026 q 875 799 875 1026 q 874 772 875 788 q 867 718 872 756 q 850 613 861 681 q 819 433 839 546 q 775 358 811 383 q 699 332 739 332 q 637 352 661 332 q 613 413 613 372 q 613 422 613 417 q 614 433 613 426 q 644 611 633 547 q 660 706 656 675 q 667 745 665 738 q 668 756 668 753 q 600 819 668 819 l 336 819 l 208 93 q 165 17 199 43 q 90 -8 131 -8 q 28 12 53 -8 q 4 72 4 32 q 5 79 4 74 q 10 109 6 85 q 23 185 14 133 q 49 331 32 238 q 90 569 65 425 q 153 924 115 714 q 191 1001 163 975 q 272 1026 219 1026 l 636 1026 z "},"€":{"ha":901,"x_min":40,"x_max":951,"o":"m 547 0 q 373 31 453 0 q 234 116 293 61 q 141 246 175 171 q 104 410 107 321 q 56 443 72 419 q 40 499 40 467 q 67 577 40 543 q 140 624 94 611 q 232 782 174 708 q 369 910 290 856 q 544 995 447 964 q 750 1026 640 1026 l 831 1026 q 921 990 890 1026 q 951 906 951 954 q 939 843 951 874 q 904 790 926 813 q 850 753 882 767 q 781 739 818 739 l 678 739 q 553 709 614 739 q 450 629 492 679 l 717 629 q 788 602 764 629 q 813 536 813 575 q 775 445 813 483 q 678 407 738 407 l 408 407 q 477 318 428 351 q 596 285 526 285 l 700 285 q 790 249 760 285 q 819 164 819 213 q 807 102 819 132 q 772 49 794 72 q 719 13 750 26 q 650 0 688 0 l 547 0 z "},"₭":{"ha":965,"x_min":25,"x_max":993,"o":"m 721 414 l 836 236 q 857 192 851 214 q 863 151 863 171 q 849 92 863 121 q 811 42 835 64 q 756 6 788 19 q 692 -8 725 -8 q 631 6 660 -8 q 583 57 603 21 l 406 371 l 364 132 q 342 72 358 99 q 303 28 326 46 q 253 1 281 10 q 199 -8 226 -8 q 113 20 146 -8 q 79 103 79 49 q 80 113 79 106 q 86 151 81 121 q 102 243 92 182 q 132 414 113 304 q 49 439 74 414 q 25 497 25 464 q 34 541 25 519 q 61 579 43 563 q 106 606 79 596 q 168 615 133 615 l 217 894 q 276 999 228 964 q 382 1035 324 1035 q 467 1007 432 1035 q 501 925 501 979 q 501 914 501 921 q 495 881 500 907 q 481 801 490 854 q 456 656 472 749 l 726 958 q 801 1020 768 1006 q 868 1035 835 1035 q 963 999 932 1035 q 993 918 993 963 q 981 860 993 889 q 928 792 968 832 l 751 615 l 875 615 q 938 590 917 615 q 958 529 958 564 q 950 486 958 507 q 926 449 942 465 q 888 424 910 433 q 840 414 867 414 l 721 414 z "},"₮":{"ha":793,"x_min":31,"x_max":868,"o":"m 629 440 q 680 417 658 440 q 701 363 701 394 q 643 278 701 308 l 506 206 q 476 103 494 144 q 434 38 458 63 q 383 3 410 14 q 326 -7 356 -7 q 260 8 289 -7 q 218 54 232 24 q 165 28 186 38 q 132 13 144 18 q 113 7 119 8 q 101 6 107 6 q 50 29 69 6 q 31 83 31 53 q 45 131 31 107 q 88 169 60 154 l 231 243 l 240 306 q 176 276 194 282 q 149 269 158 269 q 97 293 117 269 q 78 347 78 317 q 92 394 78 371 q 135 433 107 418 l 276 507 l 318 742 l 218 742 q 128 778 160 742 q 97 863 97 814 q 110 924 97 894 q 145 977 122 954 q 199 1013 168 1000 q 268 1026 231 1026 l 747 1026 q 837 992 806 1026 q 868 907 868 957 q 856 845 868 875 q 820 792 843 815 q 766 756 797 769 q 697 742 735 742 l 600 742 l 588 669 q 624 688 610 681 q 648 698 639 694 q 663 703 657 701 q 675 704 669 704 q 727 681 706 704 q 749 626 749 658 q 690 542 749 572 l 551 469 l 540 406 q 577 424 563 417 q 601 434 592 431 q 617 439 611 438 q 629 440 624 440 z "},"₱":{"ha":926,"x_min":18,"x_max":957,"o":"m 817 533 q 446 232 753 232 l 322 232 l 306 138 q 135 -8 281 -8 q 18 92 18 -8 q 19 106 18 97 q 23 136 19 114 q 34 200 26 158 q 54 315 42 242 q 115 446 69 403 q 244 489 161 489 l 521 489 q 571 533 563 489 l 176 533 q 104 599 104 533 q 128 675 104 647 q 206 703 153 703 l 600 703 q 592 734 600 726 q 571 742 585 742 l 265 742 q 150 853 150 742 q 188 980 150 933 q 314 1026 225 1026 l 583 1026 q 854 792 854 1026 q 846 703 854 750 l 886 703 q 957 638 957 703 q 933 561 957 589 q 857 533 908 533 l 817 533 z "},"₲":{"ha":1117,"x_min":57,"x_max":1124,"o":"m 942 1026 q 1031 990 1000 1026 q 1061 906 1061 954 q 1049 843 1061 874 q 1014 790 1036 813 q 960 753 992 767 q 892 739 929 739 l 788 739 l 538 285 l 615 285 l 764 546 l 1014 546 q 1124 446 1124 546 q 1085 326 1124 368 q 968 285 1047 285 l 881 285 l 733 0 l 503 0 q 445 4 472 0 q 390 15 418 8 q 320 -75 351 -54 q 263 -96 289 -96 q 198 -74 225 -96 q 171 -15 171 -51 q 173 2 171 -7 q 181 22 175 11 q 195 51 186 33 q 218 93 204 68 q 99 239 140 149 q 57 438 57 329 q 106 664 57 557 q 240 851 154 771 q 445 979 326 932 q 706 1026 564 1026 l 942 1026 m 350 479 q 356 425 350 451 q 374 379 363 399 l 569 736 q 483 706 524 729 q 414 648 443 683 q 367 569 385 613 q 350 479 350 525 z "},"₴":{"ha":850,"x_min":47,"x_max":857,"o":"m 482 249 q 494 216 483 229 q 517 189 504 203 q 539 158 529 175 q 549 115 549 142 q 512 26 549 61 q 410 -8 475 -8 q 275 57 324 -8 q 226 249 226 122 l 132 249 q 69 273 90 249 q 47 332 47 297 q 56 376 47 354 q 81 414 65 397 q 119 440 97 431 q 167 450 140 450 l 288 450 l 371 579 l 190 579 q 127 604 149 579 q 106 664 106 629 q 115 707 106 686 q 139 744 124 728 q 176 771 154 761 q 225 781 199 781 l 410 781 q 395 808 406 796 q 374 833 385 819 q 354 863 363 846 q 346 904 346 879 q 384 998 346 963 q 485 1033 422 1033 q 622 964 575 1033 q 669 781 669 894 l 771 781 q 835 755 814 781 q 857 694 857 729 q 848 651 857 672 q 823 615 839 631 q 785 589 807 599 q 736 579 763 579 l 611 579 l 526 450 l 713 450 q 776 424 754 450 q 797 364 797 399 q 788 321 797 342 q 764 284 779 300 q 726 258 749 268 q 678 249 704 249 l 482 249 z "},"₸":{"ha":835,"x_min":65,"x_max":896,"o":"m 211 825 q 148 850 169 825 q 126 908 126 875 q 135 952 126 931 q 160 990 144 974 q 199 1017 176 1007 q 247 1026 221 1026 l 813 1026 q 874 1001 853 1026 q 896 940 896 975 q 863 860 896 896 q 776 825 829 825 l 211 825 m 186 436 q 96 472 126 436 q 65 557 65 508 q 78 619 65 589 q 113 672 90 649 q 167 708 136 694 q 236 721 199 721 l 715 721 q 805 686 774 721 q 836 601 836 651 q 824 540 836 569 q 788 487 811 510 q 734 450 765 464 q 665 436 703 436 l 567 436 l 514 133 q 492 74 508 100 q 453 29 476 47 q 403 2 431 11 q 347 -7 375 -7 q 263 22 297 -7 q 229 103 229 50 q 230 115 229 107 q 236 156 231 124 q 253 253 242 188 q 285 436 264 318 l 186 436 z "},"₹":{"ha":863,"x_min":39,"x_max":929,"o":"m 379 -8 q 326 2 351 -8 q 278 39 300 13 l 89 257 q 54 306 69 279 q 39 374 39 333 q 82 482 39 442 q 208 522 125 522 l 438 522 q 477 533 461 522 q 499 571 493 543 l 154 571 q 97 594 117 571 q 76 647 76 617 q 85 688 76 668 q 108 722 93 707 q 142 747 122 738 q 186 756 163 756 l 535 756 q 524 794 535 783 q 492 806 514 806 l 208 806 q 140 833 164 806 q 115 899 115 861 q 125 945 115 922 q 153 986 135 968 q 194 1015 171 1004 q 247 1026 218 1026 l 835 1026 q 906 998 882 1026 q 929 932 929 969 q 919 885 929 907 q 890 844 910 863 q 840 816 869 826 q 774 806 811 806 l 774 756 q 860 731 836 756 q 883 675 883 707 q 849 603 883 635 q 742 571 815 571 q 698 449 729 500 q 626 363 667 397 q 538 310 585 329 q 447 288 492 292 l 497 232 q 531 147 531 194 q 519 88 531 117 q 488 38 508 60 q 440 4 468 17 q 379 -8 413 -8 z "},"₺":{"ha":943,"x_min":25,"x_max":897,"o":"m 547 644 q 591 624 572 644 q 610 576 610 604 q 558 503 610 529 l 422 431 l 396 285 l 436 285 q 516 293 482 285 q 576 315 550 301 q 622 342 603 328 q 654 369 640 357 q 712 412 678 390 q 788 433 746 433 q 826 427 807 433 q 862 407 846 421 q 888 372 878 393 q 897 322 897 351 q 850 194 897 253 q 727 92 803 135 q 556 24 651 49 q 367 0 461 0 l 211 0 q 118 30 150 0 q 86 111 86 60 q 87 121 86 115 q 90 142 88 126 q 97 187 92 157 q 111 269 101 217 q 88 265 99 265 q 42 286 60 265 q 25 333 25 307 q 38 375 25 354 q 75 408 51 396 l 142 443 l 157 524 q 132 519 142 519 q 87 540 104 519 q 69 588 69 561 q 83 629 69 608 q 119 663 96 650 l 188 697 l 222 894 q 281 999 235 964 q 386 1035 328 1035 q 472 1007 436 1035 q 507 926 507 979 q 506 907 507 919 q 497 860 504 894 q 539 880 522 872 q 565 892 556 888 q 581 897 575 896 q 592 899 588 899 q 635 878 617 899 q 654 831 654 858 q 603 757 654 783 l 467 685 l 453 606 q 494 626 478 618 q 521 638 511 633 q 537 643 531 642 q 547 644 543 644 z "},"₼":{"ha":988,"x_min":1,"x_max":938,"o":"m 253 114 q 199 23 242 54 q 107 -8 157 -8 q 32 16 63 -8 q 1 88 1 40 q 2 97 1 90 q 7 129 3 104 q 20 205 11 154 q 46 347 29 256 q 175 636 79 538 q 435 742 271 735 l 465 918 q 515 1006 475 976 q 603 1035 554 1035 q 673 1011 644 1035 q 701 943 701 988 q 701 935 701 940 q 697 909 700 929 q 687 850 693 889 q 668 743 681 811 q 938 469 938 735 q 925 347 938 414 l 883 114 q 830 23 872 54 q 738 -8 788 -8 q 663 16 693 -8 q 632 88 632 40 q 633 98 632 90 q 638 134 633 106 q 653 221 643 163 q 682 385 664 279 q 684 401 683 393 q 685 418 685 410 q 624 494 685 486 l 556 108 q 506 22 544 51 q 419 -8 467 -8 q 348 15 376 -8 q 319 85 319 39 q 321 97 319 88 q 329 144 322 106 q 350 265 336 183 q 390 493 364 346 q 300 385 317 479 l 253 114 z "},"₽":{"ha":953,"x_min":-21,"x_max":982,"o":"m 400 118 q 236 -8 369 -8 q 147 22 175 -8 q 119 118 119 51 l 64 118 q 1 142 22 118 q -21 201 -21 167 q -12 245 -21 224 q 13 283 -3 267 q 50 310 28 300 q 99 319 72 319 l 154 319 l 171 410 l 115 410 q 52 434 74 410 q 31 493 31 458 q 40 537 31 515 q 65 575 49 558 q 102 601 81 592 q 150 611 124 611 l 653 611 q 726 697 726 611 q 713 732 726 722 q 676 742 700 742 l 365 742 q 249 853 249 742 q 285 979 249 932 q 414 1026 322 1026 l 711 1026 q 982 775 982 1026 q 960 607 982 676 q 893 494 939 538 q 776 430 847 450 q 604 410 704 410 l 453 410 l 436 319 l 617 319 q 681 294 660 319 q 701 233 701 268 q 693 190 701 211 q 669 153 685 169 q 631 128 653 138 q 582 118 608 118 l 400 118 z "},"₾":{"ha":929,"x_min":-11,"x_max":976,"o":"m 101 0 q 16 34 43 0 q -11 117 -11 68 q -1 178 -11 149 q 31 232 10 208 q 81 270 51 256 q 150 285 111 285 q 133 360 139 318 q 128 442 128 401 q 161 628 128 539 q 256 791 194 717 q 406 920 318 865 q 600 1003 493 975 l 613 1075 q 676 1131 621 1131 q 724 1088 724 1131 q 723 1083 724 1086 q 722 1074 722 1081 q 719 1056 721 1068 q 713 1022 717 1043 l 783 1026 l 792 1075 q 856 1131 800 1131 q 903 1088 903 1131 q 901 1074 903 1085 q 892 1021 899 1064 q 956 977 936 1010 q 976 904 976 944 q 942 805 976 851 q 842 743 908 758 l 797 490 q 732 436 786 436 q 686 476 686 436 q 687 483 686 478 q 692 514 688 489 q 706 591 696 539 q 732 739 715 643 q 694 737 711 738 q 661 733 676 736 l 618 490 q 553 436 607 436 q 507 476 507 436 q 508 483 507 478 q 512 508 508 488 q 523 572 515 529 q 544 692 531 614 q 456 604 490 656 q 421 481 421 553 q 458 358 421 407 q 497 321 476 335 q 544 300 518 307 q 601 290 569 293 q 669 285 632 286 q 733 272 708 282 q 774 247 758 263 q 795 213 789 232 q 801 172 801 193 q 792 108 801 139 q 760 53 782 76 q 704 15 739 29 q 619 0 669 0 l 101 0 z "},"№":{"ha":1554,"x_min":17,"x_max":1575,"o":"m 17 0 m 356 435 l 301 132 q 242 28 289 64 q 136 -8 194 -8 q 51 20 85 -8 q 17 103 17 49 q 17 111 17 106 q 22 140 18 117 q 35 213 26 164 q 58 348 43 261 q 97 568 74 435 q 154 894 119 701 q 214 999 167 964 q 319 1035 261 1035 q 390 1016 367 1035 q 428 963 413 997 l 610 572 l 667 894 q 689 955 672 929 q 728 999 706 981 q 778 1026 751 1017 q 833 1035 806 1035 q 919 1007 885 1035 q 953 925 953 979 q 952 917 953 922 q 947 888 951 911 q 935 815 943 864 q 911 679 926 767 q 872 458 896 592 q 815 132 849 325 q 756 28 803 64 q 650 -8 708 -8 q 567 14 593 -8 q 528 67 542 36 l 356 435 m 1412 762 q 1380 844 1412 811 q 1299 878 1349 878 q 1238 865 1267 878 q 1187 832 1209 853 q 1151 782 1165 811 q 1137 722 1137 754 q 1169 640 1137 673 q 1250 608 1201 608 q 1311 620 1282 608 q 1362 653 1340 632 q 1398 701 1384 673 q 1412 762 1412 730 m 1221 445 q 1120 464 1166 445 q 1040 519 1073 484 q 988 600 1006 553 q 970 701 970 647 q 1000 833 970 771 q 1080 941 1029 894 q 1195 1015 1130 987 q 1328 1042 1259 1042 q 1428 1022 1383 1042 q 1506 968 1473 1003 q 1558 888 1540 934 q 1576 786 1576 841 q 1547 655 1576 718 q 1467 546 1517 592 q 1354 472 1418 499 q 1221 445 1290 445 m 994 217 q 941 239 959 217 q 923 289 923 260 q 951 358 923 327 q 1025 390 979 390 l 1395 390 q 1448 368 1430 390 q 1467 315 1467 345 q 1438 248 1467 278 q 1364 217 1409 217 l 994 217 z "},"℗":{"ha":1139,"x_min":57,"x_max":1124,"o":"m 539 440 l 519 333 q 440 265 507 265 q 382 313 382 265 q 383 320 382 315 q 386 343 383 325 q 395 396 389 361 q 413 493 401 431 q 504 575 428 575 l 675 575 q 704 600 704 575 q 682 615 704 615 l 499 615 q 444 669 444 615 q 463 728 444 706 q 522 751 481 751 l 696 751 q 825 631 825 751 q 780 490 825 540 q 644 440 735 440 l 539 440 m 521 114 q 697 150 613 114 q 848 248 782 186 q 953 392 914 310 q 992 567 992 475 q 967 700 992 638 q 899 808 943 763 q 795 881 856 854 q 661 908 735 908 q 485 871 569 908 q 336 771 401 833 q 232 626 271 708 q 193 451 193 543 q 217 319 193 381 q 284 212 240 257 q 388 140 328 167 q 521 114 447 114 m 1124 589 q 1071 357 1124 467 q 931 165 1018 247 q 730 35 843 83 q 496 -14 617 -14 q 319 22 400 -14 q 181 118 239 57 q 90 261 122 179 q 57 438 57 343 q 110 669 57 560 q 249 860 163 778 q 449 992 336 943 q 682 1040 561 1040 q 860 1005 779 1040 q 1000 908 942 969 q 1091 765 1058 847 q 1124 589 1124 683 z "},"™":{"ha":997,"x_min":119,"x_max":1071,"o":"m 178 883 q 135 901 150 883 q 119 944 119 919 q 143 1003 119 978 q 203 1028 167 1028 l 444 1028 q 488 1010 472 1028 q 504 968 504 993 q 480 909 504 935 q 419 883 456 883 l 371 883 l 318 585 q 288 531 311 549 q 236 514 264 514 q 192 528 210 514 q 174 569 174 542 q 174 578 174 571 q 181 615 175 585 q 197 707 186 644 q 228 883 207 769 l 178 883 m 871 883 l 818 585 q 788 532 811 550 q 735 514 765 514 q 691 528 707 514 q 675 568 675 542 q 676 576 675 569 q 682 614 676 583 q 698 707 688 644 q 729 883 708 769 l 700 883 l 556 565 q 483 513 531 513 q 438 528 457 513 q 418 569 418 543 q 419 583 418 576 q 428 603 421 589 l 594 974 q 634 1017 610 1007 q 678 1026 658 1026 l 1010 1026 q 1071 975 1071 1026 q 1069 957 1071 964 l 1004 585 q 974 532 997 550 q 919 514 950 514 q 876 528 893 514 q 860 569 860 542 q 860 577 860 571 q 867 614 861 583 q 883 707 872 644 q 914 883 893 769 l 871 883 z "},"−":{"ha":881,"x_min":86,"x_max":836,"o":"m 171 414 q 108 439 129 414 q 86 497 86 464 q 95 541 86 519 q 119 579 104 563 q 157 606 135 596 q 206 615 179 615 l 751 615 q 815 590 793 615 q 836 529 836 564 q 827 486 836 507 q 803 449 818 465 q 765 424 788 433 q 717 414 743 414 l 171 414 z "},"≠":{"ha":881,"x_min":13,"x_max":911,"o":"m 625 579 l 528 450 l 722 450 q 785 424 764 450 q 807 364 807 399 q 798 321 807 342 q 774 284 789 300 q 735 258 758 268 q 686 249 713 249 l 376 249 l 193 6 q 148 -33 174 -21 q 99 -46 122 -46 q 36 -19 60 -46 q 13 43 13 8 q 36 107 13 75 l 143 249 l 140 249 q 78 273 100 249 q 57 332 57 297 q 66 376 57 354 q 90 414 75 397 q 128 440 106 431 q 176 450 150 450 l 296 450 l 392 579 l 199 579 q 137 604 158 579 q 115 663 115 629 q 124 706 115 685 q 149 744 133 728 q 186 771 164 761 q 235 781 208 781 l 544 781 l 728 1022 q 773 1062 749 1050 q 822 1074 797 1074 q 885 1049 858 1074 q 911 988 911 1024 q 904 954 911 969 q 885 922 897 939 l 778 781 l 781 781 q 844 755 822 781 q 865 694 865 729 q 856 651 865 672 q 832 615 847 631 q 794 589 817 599 q 744 579 771 579 l 625 579 z "},"":{"ha":1010,"x_min":6,"x_max":1053,"o":"m 218 0 q 56 58 107 0 q 6 208 6 117 q 72 415 6 332 q 254 514 139 497 q 137 577 175 525 q 99 708 99 629 q 117 830 99 772 q 172 931 135 888 q 268 1001 210 975 q 407 1026 326 1026 l 943 1026 q 1053 919 1053 1026 q 1014 789 1053 836 q 892 742 975 742 l 453 742 q 388 690 388 742 q 438 656 388 656 l 864 656 q 978 547 978 656 q 938 418 978 465 q 813 371 897 371 l 388 371 q 322 319 322 371 q 372 285 322 285 l 804 285 q 922 175 922 285 q 881 47 922 93 q 756 0 839 0 l 218 0 z "},"":{"ha":1258,"x_min":18,"x_max":1328,"o":"m 140 0 q 18 103 18 0 q 19 112 18 106 q 24 142 19 118 q 36 215 28 167 q 60 351 44 264 q 98 570 75 438 q 156 894 121 703 q 215 999 167 963 q 321 1035 263 1035 q 406 1006 371 1035 q 442 924 442 978 q 441 916 442 921 q 438 892 440 911 q 428 833 435 872 q 408 724 421 794 q 377 547 396 654 q 332 285 358 439 l 419 285 l 526 894 q 586 999 538 963 q 692 1035 635 1035 q 777 1006 742 1035 q 813 924 813 978 q 812 916 813 921 q 808 892 811 911 q 799 833 806 872 q 779 724 792 794 q 748 547 767 654 q 703 285 729 439 l 756 285 l 1051 931 q 1119 1012 1079 989 q 1199 1035 1158 1035 q 1290 1003 1251 1035 q 1328 919 1328 971 q 1323 888 1328 903 q 1311 857 1318 874 l 982 136 q 903 35 951 69 q 804 0 856 0 l 140 0 z "},"":{"ha":1257,"x_min":19,"x_max":1192,"o":"m 306 142 q 245 38 293 74 q 142 1 197 1 q 54 30 89 1 q 19 113 19 58 q 20 121 19 115 q 25 149 21 126 q 37 219 29 172 q 60 352 44 267 q 98 567 75 438 q 154 885 121 696 q 322 1026 179 1026 l 986 1026 q 1028 1022 1007 1026 q 1067 1006 1049 1018 q 1097 974 1085 994 q 1113 919 1108 953 q 1145 603 1132 732 q 1167 389 1158 474 q 1181 257 1176 304 q 1188 187 1186 210 q 1191 158 1190 164 q 1192 151 1192 153 q 1176 88 1192 117 q 1136 40 1161 60 q 1079 8 1111 19 q 1014 -3 1047 -3 q 940 22 969 -3 q 904 101 910 47 l 836 742 l 782 742 l 676 142 q 616 38 664 74 q 513 1 568 1 q 425 30 460 1 q 390 111 390 58 q 391 119 390 114 q 394 143 392 124 q 403 201 397 163 q 422 308 410 239 q 453 483 435 378 q 499 742 471 589 l 411 742 l 306 142 z "},"":{"ha":949,"x_min":18,"x_max":954,"o":"m 394 371 l 346 371 l 304 138 q 135 -8 276 -8 q 46 17 74 -8 q 18 93 18 42 q 19 101 18 96 q 21 120 19 107 q 26 158 22 133 q 38 224 31 182 q 56 328 46 265 q 83 482 67 392 q 144 613 99 569 q 274 656 190 656 l 631 656 q 697 707 697 656 q 646 742 697 742 l 265 742 q 150 853 150 742 q 188 980 150 933 q 314 1026 225 1026 l 681 1026 q 887 965 819 1026 q 954 785 954 904 q 935 640 954 700 q 881 538 915 579 q 801 469 847 496 q 701 424 754 442 l 814 250 q 842 195 833 219 q 850 149 850 171 q 838 92 850 119 q 803 42 825 64 q 750 6 781 19 q 682 -8 719 -8 q 618 6 646 -8 q 574 51 590 21 l 394 371 z "}}}
